<svg width="23" height="23" viewBox="0 0 23 23" fill="none" xmlns="http://www.w3.org/2000/svg">
<path d="M11.484 23C9.20951 22.9968 6.98705 22.3193 5.09764 21.053C3.20824 19.7867 1.73676 17.9886 0.869276 15.8861C0.00179434 13.7835 -0.222727 11.4709 0.224107 9.24077C0.670941 7.01061 1.76906 4.96304 3.3796 3.35697C4.99014 1.75091 7.04076 0.658491 9.27216 0.217865C11.5036 -0.222762 13.8155 0.0081926 15.9156 0.881522C18.0158 1.75485 19.8098 3.23133 21.0708 5.12425C22.3318 7.01717 23.0032 9.24151 23 11.516C23.0015 13.0272 22.7043 14.5238 22.1257 15.9199C21.5471 17.3159 20.6984 18.5839 19.6283 19.651C18.5583 20.7181 17.2879 21.5633 15.8903 22.138C14.4926 22.7127 12.9952 23.0057 11.484 23V23ZM11.484 1.94099C9.59676 1.94099 7.75192 2.50062 6.18274 3.54911C4.61357 4.5976 3.39055 6.08786 2.66834 7.83143C1.94612 9.575 1.75716 11.4936 2.12534 13.3445C2.49352 15.1955 3.40231 16.8957 4.73678 18.2302C6.07125 19.5647 7.77148 20.4735 9.62244 20.8416C11.4734 21.2098 13.392 21.0209 15.1356 20.2987C16.8791 19.5764 18.3694 18.3534 19.4179 16.7842C20.4664 15.2151 21.026 13.3702 21.026 11.483C21.0241 8.95287 20.0182 6.5269 18.2292 4.73783C16.4401 2.94876 14.0141 1.94285 11.484 1.94099V1.94099Z" fill="#BFBFBF"/>
<path d="M16.9795 20.17C16.5883 19.0233 15.8481 18.0277 14.8627 17.3228C13.8773 16.6178 12.6961 16.2388 11.4845 16.2388C10.2729 16.2388 9.09164 16.6178 8.10625 17.3228C7.12086 18.0277 6.3807 19.0233 5.98948 20.17L4.14648 19.545C4.6685 18.0135 5.65669 16.6836 6.97253 15.742C8.28837 14.8003 9.8659 14.2939 11.484 14.2939C13.1021 14.2939 14.6796 14.8003 15.9954 15.742C17.3113 16.6836 18.2995 18.0135 18.8215 19.545L16.9795 20.17Z" fill="#BFBFBF"/>
<path d="M11.4845 13.293C10.6514 13.293 9.83706 13.046 9.1444 12.5832C8.45174 12.1203 7.91188 11.4625 7.59308 10.6929C7.27428 9.92324 7.19087 9.07635 7.3534 8.2593C7.51592 7.44225 7.91707 6.69175 8.50613 6.10269C9.09519 5.51363 9.84569 5.11247 10.6627 4.94995C11.4798 4.78743 12.3267 4.87084 13.0963 5.18964C13.866 5.50844 14.5238 6.0483 14.9866 6.74096C15.4494 7.43362 15.6965 8.24797 15.6965 9.08102C15.6943 10.1975 15.2499 11.2676 14.4605 12.057C13.671 12.8465 12.6009 13.2909 11.4845 13.293ZM11.4845 6.81102C11.0355 6.81102 10.5966 6.94416 10.2233 7.19359C9.85002 7.44302 9.55907 7.79754 9.38725 8.21233C9.21544 8.62712 9.17049 9.08354 9.25808 9.52387C9.34567 9.96421 9.56187 10.3687 9.87933 10.6862C10.1968 11.0036 10.6013 11.2198 11.0416 11.3074C11.4819 11.395 11.9384 11.35 12.3532 11.1782C12.7679 11.0064 13.1225 10.7155 13.3719 10.3422C13.6213 9.96887 13.7545 9.52999 13.7545 9.08102C13.7531 8.47939 13.5136 7.90277 13.0881 7.47735C12.6627 7.05192 12.0861 6.81234 11.4845 6.81102V6.81102Z" fill="#BFBFBF"/>
</svg>
