<svg width="22" height="24" viewBox="0 0 22 24" fill="none" xmlns="http://www.w3.org/2000/svg">
<path d="M20.978 1.49001e-05H0.839001C0.616484 1.49001e-05 0.403081 0.0884092 0.245738 0.245752C0.0883954 0.403095 1.11522e-06 0.616498 1.11522e-06 0.839015V22.656C-0.000259008 22.8156 0.044991 22.9719 0.130443 23.1067C0.215895 23.2414 0.338004 23.349 0.482448 23.4169C0.626891 23.4847 0.787677 23.5099 0.945945 23.4895C1.10421 23.4692 1.2534 23.4041 1.376 23.302L5.876 19.551L10.416 23.302C10.5668 23.4276 10.7568 23.4964 10.953 23.4964C11.1492 23.4964 11.3392 23.4276 11.49 23.302L15.946 19.551L20.446 23.302C20.5686 23.4041 20.7178 23.4692 20.8761 23.4895C21.0343 23.5099 21.1951 23.4847 21.3396 23.4169C21.484 23.349 21.6061 23.2414 21.6916 23.1067C21.777 22.9719 21.8223 22.8156 21.822 22.656V0.839015C21.822 0.728414 21.8001 0.618904 21.7577 0.516784C21.7152 0.414665 21.6529 0.321951 21.5745 0.243977C21.4961 0.166003 21.403 0.104308 21.3006 0.0624391C21.1982 0.0205706 21.0886 -0.000644224 20.978 1.49001e-05V1.49001e-05ZM20.139 20.86L16.48 17.814C16.3292 17.6884 16.1392 17.6196 15.943 17.6196C15.7468 17.6196 15.5568 17.6884 15.406 17.814L10.906 21.565L6.377 17.814C6.22624 17.6884 6.03622 17.6196 5.84 17.6196C5.64378 17.6196 5.45377 17.6884 5.303 17.814L1.678 20.86V1.67801H20.138L20.139 20.86ZM4.2 5.03501C4.20105 4.81388 4.28936 4.60211 4.44573 4.44574C4.60209 4.28938 4.81387 4.20107 5.035 4.20001H16.782C17.0045 4.20001 17.2179 4.28841 17.3753 4.44575C17.5326 4.6031 17.621 4.8165 17.621 5.03901C17.621 5.26153 17.5326 5.47493 17.3753 5.63228C17.2179 5.78962 17.0045 5.87801 16.782 5.87801H5.035C4.92482 5.87749 4.81582 5.85527 4.71423 5.81262C4.61264 5.76997 4.52044 5.70773 4.44291 5.62945C4.36537 5.55117 4.30401 5.45839 4.26233 5.35639C4.22065 5.2544 4.19947 5.14519 4.2 5.03501V5.03501ZM4.2 9.23501C4.2 9.0125 4.2884 8.7991 4.44574 8.64175C4.60308 8.48441 4.81648 8.39602 5.039 8.39602H16.782C16.8922 8.39602 17.0013 8.41772 17.1031 8.45988C17.2049 8.50204 17.2974 8.56384 17.3753 8.64175C17.4532 8.71966 17.515 8.81215 17.5571 8.91394C17.5993 9.01574 17.621 9.12484 17.621 9.23501C17.621 9.34519 17.5993 9.45429 17.5571 9.55609C17.515 9.65788 17.4532 9.75037 17.3753 9.82828C17.2974 9.90619 17.2049 9.96799 17.1031 10.0101C17.0013 10.0523 16.8922 10.074 16.782 10.074H5.035C4.92474 10.0735 4.81566 10.0512 4.714 10.0085C4.61234 9.96582 4.5201 9.90349 4.44255 9.8251C4.365 9.74671 4.30366 9.65381 4.26204 9.5517C4.22043 9.44959 4.19934 9.34028 4.2 9.23001V9.23501ZM4.2 13.435C4.2 13.2125 4.2884 12.9991 4.44574 12.8418C4.60308 12.6844 4.81648 12.596 5.039 12.596H16.782C17.0045 12.596 17.2179 12.6844 17.3753 12.8418C17.5326 12.9991 17.621 13.2125 17.621 13.435C17.621 13.6575 17.5326 13.8709 17.3753 14.0283C17.2179 14.1856 17.0045 14.274 16.782 14.274H5.035C4.9244 14.2735 4.81499 14.2511 4.71307 14.2081C4.61115 14.1652 4.51873 14.1025 4.44113 14.0237C4.36352 13.9449 4.30227 13.8515 4.26089 13.7489C4.21951 13.6464 4.19881 13.5366 4.2 13.426V13.435Z" fill="#BFBFBF"/>
</svg>
