<svg width="27" height="24" viewBox="0 0 27 24" fill="none" xmlns="http://www.w3.org/2000/svg">
<path d="M19.585 17.6933C19.634 17.6553 19.696 17.6023 19.585 17.6933V17.6933Z" fill="#BFBFBF"/>
<path d="M20.9341 16.3713L20.9921 16.2993C20.9391 16.3643 20.9181 16.3903 20.9201 16.3893L20.9341 16.3713Z" fill="#BFBFBF"/>
<path d="M25.5909 8.87131C25.3549 8.87157 25.1286 8.96539 24.9615 9.13222C24.7945 9.29904 24.7005 9.52525 24.6999 9.7613C24.702 9.99956 24.6889 10.2377 24.6609 10.4743C24.6243 10.6911 24.5677 10.904 24.4919 11.1103C24.4397 11.2237 24.3795 11.3333 24.3119 11.4383L24.3669 11.3713C24.3469 11.3983 24.3259 11.4213 24.3049 11.4483C24.2639 11.5043 24.2109 11.5623 24.2959 11.4573C24.2538 11.5073 24.2087 11.5547 24.1609 11.5993C24.1469 11.6123 24.1179 11.6363 24.0899 11.6593L24.0259 11.7033C23.9819 11.7313 23.9329 11.7513 23.8869 11.7753C23.5909 9.89137 22.6169 8.18046 21.1479 6.96431C20.1922 6.15771 19.1144 5.50795 17.9549 5.03931C17.8949 3.8631 17.4509 2.73902 16.6909 1.83931C15.9262 0.940236 14.8779 0.328625 13.7189 0.105315C12.4802 -0.145872 11.1925 0.0556927 10.0899 0.673369C8.98719 1.29104 8.14272 2.28383 7.70993 3.47131C7.65493 3.61831 7.62992 3.77132 7.58892 3.92032C7.38613 3.72624 7.1721 3.54426 6.94793 3.37532C6.69684 3.20272 6.39989 3.10907 6.09521 3.1064C5.79053 3.10373 5.49202 3.19215 5.23794 3.36032C5.01875 3.50632 4.83922 3.70444 4.71548 3.93692C4.59173 4.1694 4.52763 4.42895 4.52893 4.69231V6.99231C3.63441 7.76583 2.9087 8.7152 2.39694 9.78131H2.36492C1.96226 9.77459 1.56361 9.86226 1.20092 10.0373C0.831811 10.2328 0.524205 10.527 0.312342 10.887C0.10048 11.247 -0.00730873 11.6587 0.000940864 12.0763V13.4503C-0.0049517 13.7019 0.0168484 13.9535 0.0659433 14.2003C0.203158 14.7241 0.522154 15.1821 0.965937 15.4923C1.39734 15.7409 1.88163 15.8835 2.37893 15.9083C2.69327 16.5657 3.09159 17.1795 3.56393 17.7343C4.03016 18.2603 4.55035 18.736 5.11593 19.1533C4.99326 19.4713 4.87059 19.7896 4.74792 20.1083C4.63046 20.3619 4.55128 20.6315 4.51293 20.9083C4.49885 21.122 4.53338 21.3362 4.61392 21.5347C4.69445 21.7332 4.8189 21.9108 4.97793 22.0543C5.15561 22.2022 5.35901 22.3161 5.57794 22.3903C6.14694 22.6103 6.71492 22.8273 7.27792 23.0473C7.52856 23.1684 7.80019 23.24 8.07794 23.2583C8.3245 23.2566 8.56663 23.1928 8.78198 23.0727C8.99732 22.9527 9.17892 22.7802 9.30993 22.5713C9.38576 22.4351 9.44806 22.2917 9.49594 22.1433C9.60794 21.8513 9.72193 21.5603 9.83593 21.2693C11.5487 21.6446 13.3163 21.6991 15.0489 21.4303C15.3049 21.3923 15.5489 21.3213 15.8059 21.2673L16.0789 21.9773C16.1119 22.0633 16.1439 22.1493 16.1789 22.2333C16.2963 22.5831 16.5346 22.8795 16.8509 23.0693C17.0558 23.1778 17.2828 23.2379 17.5146 23.2452C17.7463 23.2525 17.9766 23.2067 18.1879 23.1113C18.7709 22.8853 19.3569 22.6583 19.9399 22.4353C20.0019 22.4113 20.0649 22.3883 20.1299 22.3613C20.2901 22.3037 20.4408 22.2225 20.5769 22.1203C20.8009 21.9469 20.9695 21.712 21.0619 21.4443C21.1794 21.0677 21.1494 20.6606 20.9779 20.3053C20.8329 19.9293 20.6879 19.5553 20.5439 19.1803C21.425 18.5215 22.1884 17.7185 22.8019 16.8053C23.4167 15.8493 23.8034 14.7647 23.9319 13.6353C24.0259 13.6133 24.1219 13.6003 24.2129 13.5693C24.6247 13.4407 25.0045 13.2261 25.3272 12.9397C25.6499 12.6534 25.9082 12.3018 26.0849 11.9083C26.3719 11.2286 26.5083 10.4948 26.4849 9.75731C26.4833 9.52143 26.3884 9.29579 26.2208 9.12974C26.0533 8.9637 25.8268 8.87077 25.5909 8.87131ZM20.9739 9.37831C20.8739 9.26031 20.9299 9.32131 20.9739 9.37831V9.37831ZM9.20993 4.83832C9.25983 4.53986 9.33922 4.24709 9.44693 3.96431C9.54311 3.74174 9.65787 3.52765 9.78994 3.32431C9.82794 3.26631 9.86892 3.21132 9.90792 3.15332L9.91494 3.14531C10.0049 3.03531 10.1019 2.93031 10.2029 2.82931C10.3039 2.72831 10.4029 2.64432 10.5029 2.55632L10.5429 2.52331C10.5889 2.48931 10.6329 2.45631 10.6819 2.42331C10.8906 2.28641 11.1107 2.16798 11.3399 2.06932C11.622 1.96076 11.9146 1.88166 12.2129 1.83331C12.5228 1.80181 12.8351 1.80181 13.1449 1.83331C13.4444 1.88341 13.7382 1.96315 14.0219 2.07132C14.2445 2.16751 14.4586 2.28224 14.6619 2.41431C14.7199 2.45231 14.7749 2.49332 14.8319 2.53232L14.8399 2.53931C14.9507 2.62955 15.0562 2.72604 15.1559 2.82831C15.2489 2.92031 15.3419 3.02831 15.4299 3.12831L15.4629 3.16731C15.4959 3.21331 15.5299 3.25831 15.5629 3.30731C15.6998 3.51596 15.8182 3.73613 15.9169 3.96532C16.027 4.2523 16.1071 4.54988 16.1559 4.85332C16.1776 5.00002 16.1893 5.14802 16.1909 5.29631C16.1909 5.31131 16.1989 5.32332 16.1989 5.33832C16.1989 5.48132 16.1859 5.62431 16.1709 5.76631C16.1194 6.07619 16.0366 6.38007 15.9239 6.67331C15.8649 6.80231 15.8059 6.93131 15.7349 7.05331C15.6849 7.13731 15.6349 7.22031 15.5799 7.30331C15.5629 7.32831 15.5269 7.37531 15.4969 7.41531C15.3445 7.58958 15.1797 7.75267 15.0039 7.90332H10.3439C10.3099 7.87232 10.2719 7.84432 10.2439 7.81232C10.178 7.74941 10.1159 7.68263 10.0579 7.61232C10.0279 7.58032 9.99893 7.54331 9.96493 7.51231C9.94252 7.48819 9.92149 7.46281 9.90194 7.43631L9.89392 7.42631C9.86624 7.39109 9.84054 7.35437 9.81692 7.31631C9.76692 7.24231 9.71692 7.16432 9.67092 7.08632C9.59492 6.95932 9.53194 6.82431 9.47094 6.68631C9.35602 6.39599 9.27222 6.09431 9.22094 5.78631C9.1856 5.47148 9.1819 5.15389 9.20993 4.83832V4.83832ZM6.23794 4.83832L6.25393 4.82132L6.23794 4.83832ZM5.90594 4.79831C5.91794 4.81031 5.93294 4.82231 5.94494 4.83331L5.95693 4.84431L5.89993 4.81932C5.9276 4.8332 5.95435 4.8489 5.97994 4.86632C5.65694 4.69432 5.87494 4.77131 5.90594 4.80231V4.79831ZM21.3059 15.8383C21.2079 15.9943 21.1043 16.1443 20.9949 16.2883L21.0169 16.2603L20.9919 16.2923L20.9849 16.3023C20.9629 16.3323 20.9249 16.3773 20.9229 16.3783C20.8609 16.4543 20.7989 16.5293 20.7339 16.6023C20.4761 16.8992 20.1966 17.1766 19.8979 17.4323C19.8179 17.5043 19.7349 17.5733 19.6489 17.6403C19.6129 17.6703 19.5739 17.6973 19.5379 17.7273L19.5849 17.6893L19.5709 17.7003C19.3989 17.8313 19.2179 17.9533 19.0379 18.0733C18.896 18.1453 18.7767 18.255 18.6929 18.3903C18.6329 18.4927 18.594 18.6061 18.5786 18.7237C18.5631 18.8414 18.5714 18.9609 18.6029 19.0753C18.7339 19.4143 18.8649 19.7513 18.9959 20.0913L19.2549 20.7603C19.2549 20.7693 19.2599 20.7783 19.2639 20.7873L18.5519 21.0603L17.8169 21.3393C17.7989 21.3473 17.7789 21.3513 17.7609 21.3593C17.5849 20.902 17.4086 20.4453 17.2319 19.9893C17.1664 19.7668 17.0202 19.5767 16.8219 19.4563C16.6137 19.336 16.3666 19.3026 16.1339 19.3633C15.6043 19.5131 15.065 19.6267 14.5199 19.7033C13.4013 19.8443 12.2695 19.8443 11.1509 19.7033C10.6059 19.6267 10.0666 19.5131 9.53692 19.3633C9.30419 19.3041 9.0576 19.3375 8.84893 19.4563C8.65748 19.5842 8.5134 19.7715 8.43893 19.9893L7.90792 21.3633C7.88892 21.3553 7.86894 21.3513 7.84994 21.3423L7.11492 21.0643L6.40393 20.7903L6.40994 20.7733C6.49594 20.5473 6.58493 20.3213 6.67193 20.0943L7.06393 19.0793C7.1198 18.887 7.10416 18.681 7.01992 18.4993C6.94589 18.3223 6.81779 18.1732 6.65393 18.0733C6.46793 17.9553 6.29693 17.8323 6.12493 17.7023C6.07393 17.6633 5.93892 17.5533 6.14892 17.7223C6.10992 17.6933 6.07192 17.6633 6.03292 17.6293L5.80993 17.4443C5.50324 17.1806 5.21489 16.8963 4.94692 16.5933C4.88092 16.5163 4.81594 16.4423 4.74694 16.3613C4.71638 16.3258 4.68768 16.2888 4.66094 16.2503C4.68794 16.2863 4.71692 16.3223 4.74392 16.3573L4.68792 16.2833C4.57392 16.1313 4.46494 15.9743 4.36294 15.8133C4.17288 15.5071 4.00575 15.1872 3.86294 14.8563C3.84994 14.8233 3.83594 14.7893 3.82394 14.7563C3.76599 14.572 3.652 14.4103 3.49786 14.2938C3.34371 14.1773 3.15707 14.1118 2.96392 14.1063C2.70792 14.1163 2.45292 14.1063 2.19692 14.0983C2.14292 14.0853 2.08894 14.0733 2.03594 14.0553C2.01794 14.0453 1.99794 14.0373 1.97994 14.0263C1.96194 14.0153 1.92992 13.9833 1.92492 13.9773C1.91281 13.965 1.90146 13.952 1.89093 13.9383C1.87493 13.9123 1.86293 13.8853 1.84793 13.8583C1.83193 13.8093 1.81992 13.7583 1.80792 13.7083C1.79392 13.4163 1.78692 13.1243 1.79992 12.8323C1.81292 12.5403 1.78793 12.2543 1.80493 11.9683C1.81733 11.9099 1.83268 11.8522 1.85092 11.7953C1.86092 11.7763 1.86894 11.7563 1.87994 11.7383C1.89534 11.7195 1.91168 11.7015 1.92892 11.6843C1.94092 11.6723 1.95492 11.6613 1.96792 11.6493C1.98092 11.6373 2.02094 11.6213 2.04794 11.6073C2.09694 11.5903 2.14793 11.5783 2.19793 11.5663C2.45393 11.5543 2.70893 11.5473 2.96493 11.5583C3.15843 11.5542 3.34571 11.4892 3.50012 11.3725C3.65452 11.2558 3.76819 11.0933 3.82495 10.9083C3.83795 10.8743 3.85193 10.8393 3.86593 10.8083C3.99254 10.5122 4.14059 10.2258 4.30892 9.95131C4.39492 9.80831 4.48694 9.67232 4.58694 9.53432C4.62994 9.47332 4.67492 9.41131 4.72192 9.35031L4.82192 9.2333C4.89692 9.1433 4.98594 9.06431 5.06494 8.97731C5.17579 9.02515 5.29518 9.04998 5.41592 9.05031C5.53314 9.05057 5.64927 9.02772 5.75765 8.98308C5.86604 8.93843 5.96457 8.87286 6.0476 8.79011C6.13063 8.70736 6.19653 8.60906 6.24154 8.50082C6.28655 8.39258 6.3098 8.27654 6.30993 8.15932V7.44432C6.30993 7.42132 6.32593 7.40232 6.32693 7.37932C6.34493 6.71232 6.32693 6.0393 6.32693 5.3733C6.32693 5.3113 6.32693 5.25031 6.32693 5.18831L6.72692 5.55231L7.47094 6.22531C7.50194 6.39631 7.55392 6.56231 7.60192 6.73031C7.63192 6.83031 7.66193 6.93932 7.70193 7.04332C7.72893 7.11632 7.74092 7.19331 7.76992 7.26631C7.78592 7.30531 7.81294 7.33931 7.82894 7.37831C7.9177 7.59433 8.02023 7.80443 8.13592 8.00731C8.14792 8.02631 8.16393 8.04132 8.17593 8.06032C8.0493 8.13761 7.94436 8.24575 7.87091 8.37465C7.79745 8.50354 7.7579 8.64897 7.75595 8.79732C7.75568 8.91454 7.7785 9.03066 7.82315 9.13905C7.86779 9.24744 7.93339 9.34595 8.01614 9.42898C8.09889 9.51201 8.19718 9.57793 8.30542 9.62294C8.41365 9.66795 8.52971 9.69118 8.64694 9.69131H9.94693C9.97393 9.69831 9.99793 9.70931 10.0249 9.71531C10.4679 9.72731 10.9149 9.71531 11.3579 9.71531C12.6879 9.71531 14.0209 9.74231 15.3509 9.71531C15.4183 9.71456 15.4853 9.70651 15.5509 9.69131H16.7289C16.9656 9.69078 17.1924 9.59632 17.3594 9.42869C17.5265 9.26106 17.6202 9.03398 17.6199 8.79732C17.6175 8.6534 17.5798 8.51228 17.5101 8.38638C17.4403 8.26048 17.3407 8.15366 17.2199 8.07532C17.4402 7.71079 17.6165 7.32139 17.7449 6.91531C18.0259 7.04831 18.3089 7.17531 18.5779 7.33131C18.7779 7.44431 18.9649 7.56631 19.1519 7.69231C19.2449 7.75131 19.3299 7.81332 19.4159 7.87732L19.5379 7.9703L19.5549 7.98331C19.8908 8.24804 20.2075 8.53609 20.5029 8.8453C20.6489 8.9963 20.7819 9.15431 20.9199 9.31831L20.9879 9.39931L20.9949 9.40831C21.0569 9.49431 21.1209 9.58132 21.1809 9.67032C21.4077 10.0109 21.6058 10.3698 21.7729 10.7433C21.9542 11.194 22.0843 11.6636 22.1609 12.1433C22.1849 12.3633 22.2019 12.5823 22.2039 12.8033V12.8193C22.2039 12.8293 22.2089 12.8383 22.2099 12.8483C22.207 13.0823 22.1917 13.316 22.1639 13.5483C22.0901 14.0166 21.965 14.4753 21.7909 14.9163C21.6522 15.2365 21.4901 15.546 21.3059 15.8423V15.8383Z" fill="#BFBFBF"/>
<path d="M24.311 11.4403L24.291 11.4633L24.3 11.4543L24.311 11.4403Z" fill="#BFBFBF"/>
<path d="M5.76895 10.2714C5.53211 10.2714 5.30498 10.3654 5.13751 10.5329C4.97004 10.7004 4.87598 10.9275 4.87598 11.1644C4.87807 11.4005 4.97285 11.6263 5.13989 11.7931C5.30694 11.96 5.53285 12.0545 5.76895 12.0564C6.00552 12.0564 6.23244 11.9624 6.39972 11.7951C6.567 11.6278 6.66098 11.4009 6.66098 11.1644C6.66111 11.0471 6.63812 10.931 6.59335 10.8227C6.54858 10.7144 6.4829 10.6159 6.40005 10.533C6.31721 10.45 6.21885 10.3842 6.11057 10.3394C6.00228 10.2945 5.88617 10.2714 5.76895 10.2714Z" fill="#BFBFBF"/>
</svg>
