<svg xmlns="http://www.w3.org/2000/svg" xmlns:xlink="http://www.w3.org/1999/xlink" width="186.145" height="186.33" viewBox="0 0 186.145 186.33"><defs><style>.a,.l{fill:#f4f7fa;}.b{fill:url(#a);}.ab,.ah,.al,.c,.e,.v{opacity:0.3;}.ab,.ah,.al,.c,.v{mix-blend-mode:multiply;}.ab,.ah,.al,.c,.g,.l,.v{isolation:isolate;}.al,.d{fill:#d8dee8;}.e,.o{fill:url(#b);}.f{opacity:0.6;fill:url(#c);}.am,.g,.u{fill:#fff;}.g{opacity:0.35;}.g,.l{mix-blend-mode:soft-light;}.h{fill:url(#i);}.i{fill:url(#j);}.j{fill:url(#k);}.k{fill:url(#l);}.l{opacity:0.5;}.m{fill:url(#m);}.n{fill:url(#n);}.p{fill:url(#p);}.q{fill:url(#q);}.r{fill:url(#r);}.s{fill:url(#s);}.t{fill:url(#t);}.u{opacity:0.67;}.v{fill:url(#u);}.w{fill:url(#v);}.x{fill:url(#w);}.y{fill:url(#x);}.z{fill:url(#y);}.aa{fill:url(#z);}.ab{fill:url(#aa);}.ac{fill:url(#ab);}.ad{fill:url(#ac);}.ae{fill:url(#ad);}.af{fill:url(#ae);}.ag{fill:url(#af);}.ah{fill:url(#ag);}.ai{fill:url(#ah);}.aj{fill:url(#ai);}.ak{fill:url(#ak);}.am{opacity:0.56;}.an{fill:url(#am);}.ao{fill:url(#an);}.ap{fill:url(#ao);}</style><linearGradient id="a" x1="0.302" y1="0.298" x2="0.81" y2="0.84" gradientUnits="objectBoundingBox"><stop offset="0" stop-color="#ff9085"/><stop offset="1" stop-color="#fb6fbb"/></linearGradient><linearGradient id="b" x1="0.978" y1="0.047" x2="0.263" y2="0.702" gradientUnits="objectBoundingBox"><stop offset="0" stop-color="#fff"/><stop offset="0.996" stop-color="#ebeff2"/></linearGradient><linearGradient id="c" x1="0" y1="0.5" x2="1" y2="0.5" xlink:href="#b"/><linearGradient id="i" x1="-0.526" y1="-0.018" x2="1.792" y2="1.129" gradientUnits="objectBoundingBox"><stop offset="0" stop-color="#444b8c"/><stop offset="0.996" stop-color="#3e4177"/></linearGradient><linearGradient id="j" x1="-1.535" y1="-0.119" x2="2.33" y2="1.124" xlink:href="#i"/><linearGradient id="k" x1="0.936" y1="-0.09" x2="-1.257" y2="2.877" gradientUnits="objectBoundingBox"><stop offset="0" stop-color="#aa80f9"/><stop offset="0.996" stop-color="#6165d7"/></linearGradient><linearGradient id="l" x1="0.366" y1="0.452" x2="1.418" y2="0.452" xlink:href="#a"/><linearGradient id="m" x1="1.004" y1="0.086" x2="0.129" y2="1.115" gradientUnits="objectBoundingBox"><stop offset="0" stop-color="#ffc444"/><stop offset="0.996" stop-color="#f36f56"/></linearGradient><linearGradient id="n" x1="0.881" y1="0.067" x2="0.433" y2="0.559" gradientUnits="objectBoundingBox"><stop offset="0.004" stop-color="#e38ddd"/><stop offset="1" stop-color="#9571f6"/></linearGradient><linearGradient id="p" x1="0.451" y1="-0.115" x2="0.688" y2="2.232" xlink:href="#m"/><linearGradient id="q" x1="0.473" y1="0.366" x2="1.052" y2="2.183" xlink:href="#n"/><linearGradient id="r" x1="-0.012" y1="0.026" x2="1.499" y2="1.304" xlink:href="#k"/><linearGradient id="s" x1="0.974" y1="-0.105" x2="0.276" y2="0.797" xlink:href="#a"/><linearGradient id="t" x1="0.593" y1="-0.143" x2="0.053" y2="3.782" xlink:href="#m"/><linearGradient id="u" x1="-12.106" y1="-12.501" x2="-12.899" y2="-10.565" xlink:href="#a"/><linearGradient id="v" x1="6.506" y1="-2.326" x2="6.686" y2="2.711" gradientUnits="objectBoundingBox"><stop offset="0" stop-color="#311944"/><stop offset="1" stop-color="#a03976"/></linearGradient><linearGradient id="w" x1="23.316" y1="1.238" x2="23.194" y2="-4.978" xlink:href="#m"/><linearGradient id="x" x1="10.002" y1="-1.429" x2="10.287" y2="1.522" xlink:href="#v"/><linearGradient id="y" x1="16.656" y1="1.428" x2="16.57" y2="-2.955" xlink:href="#m"/><linearGradient id="z" x1="3.503" y1="0.505" x2="4.505" y2="0.505" xlink:href="#i"/><linearGradient id="aa" x1="3.684" y1="0.505" x2="4.758" y2="0.505" xlink:href="#i"/><linearGradient id="ab" x1="1.732" y1="0.506" x2="2.728" y2="0.506" xlink:href="#i"/><linearGradient id="ac" x1="0.799" y1="-0.049" x2="0.226" y2="1.009" xlink:href="#k"/><linearGradient id="ad" x1="0.549" y1="0.204" x2="0.293" y2="3.433" xlink:href="#m"/><linearGradient id="ae" x1="18.906" y1="7.661" x2="18.156" y2="5.986" xlink:href="#i"/><linearGradient id="af" x1="0.44" y1="-0.008" x2="0.938" y2="4.489" xlink:href="#m"/><linearGradient id="ag" x1="0" y1="0.5" x2="1" y2="0.5" xlink:href="#k"/><linearGradient id="ah" x1="43.379" y1="-31.35" x2="44.259" y2="-31.35" xlink:href="#m"/><linearGradient id="ai" x1="0.819" y1="0.139" x2="-0.341" y2="1.435" xlink:href="#k"/><linearGradient id="ak" y1="0.5" x2="1" y2="0.5" gradientUnits="objectBoundingBox"><stop offset="0" stop-color="#444b8c"/><stop offset="0.996" stop-color="#26264f"/></linearGradient><linearGradient id="am" x1="-8.043" y1="2.009" x2="-8.547" y2="1.466" xlink:href="#ak"/><linearGradient id="an" x1="-9.34" y1="1.258" x2="-8.616" y2="2.026" xlink:href="#ak"/><linearGradient id="ao" x1="-91.76" y1="-26.852" x2="-91.555" y2="-28.584" xlink:href="#m"/></defs><g transform="translate(-393.532 -349.86)"><path class="a" d="M437.7,361.06c-6.171,9,1.065,23.581-8.092,30.346-8.914,6.586-19.864-4.209-28.264,1.46-12.462,8.41-10.186,46.892,8.034,70.8,5.479,7.19,10.058,9.988,12.085,18.12,4.354,17.462-10.948,27.849-8.036,36.485,6.557,19.445,107.4,35.763,147.858-22.678,18.9-27.294,21.724-66.707,4.841-96.641C535.618,344.863,451.55,340.874,437.7,361.06Z"/><g transform="translate(406.326 357.477)"><g transform="translate(0 0)"><path class="b" d="M686.572,471.382l-90.3-3.056a3.574,3.574,0,0,0-3.742,3.573V635.935a3.478,3.478,0,0,0,3.742,3.487l90.3-5.135a3.692,3.692,0,0,0,3.379-3.7V475.006A3.589,3.589,0,0,0,686.572,471.382Z" transform="translate(-592.528 -468.324)"/><g class="c"><path class="d" d="M649.521,592.51c-1.536-18.756,9.986-26.5,5.592-43.491-5.431-21.005-26.319-21.905-33.432-42.5-2.726-7.892-3.8-19.823,4-37.194l-29.411-1a3.574,3.574,0,0,0-3.742,3.573V635.935a3.478,3.478,0,0,0,3.742,3.487l80.519-4.579C656.3,618.981,650.465,604.039,649.521,592.51Z" transform="translate(-592.528 -468.324)"/></g><path class="e" d="M718.68,505.132l-90.3-2.952a1.47,1.47,0,0,0-1.535,1.468V667.492a1.43,1.43,0,0,0,1.535,1.432l90.3-5.031a1.518,1.518,0,0,0,1.39-1.521V506.62A1.476,1.476,0,0,0,718.68,505.132Z" transform="translate(-624.636 -500.002)"/><g transform="translate(19.852 129.165)"><path class="f" d="M958.426,2477.247l-54.794,1.974a2.447,2.447,0,0,0-2.343,2.425h0a2.236,2.236,0,0,0,2.343,2.25l54.794-2.111a2.342,2.342,0,0,0,2.2-2.351h0A2.14,2.14,0,0,0,958.426,2477.247Z" transform="translate(-901.289 -2477.245)"/><path class="f" d="M958.426,2602.933l-54.794,2.219a2.461,2.461,0,0,0-2.343,2.435h0a2.225,2.225,0,0,0,2.343,2.239l54.794-2.356a2.354,2.354,0,0,0,2.2-2.36h0A2.129,2.129,0,0,0,958.426,2602.933Z" transform="translate(-901.289 -2594.85)"/><path class="f" d="M958.426,2728.62l-54.794,2.463a2.474,2.474,0,0,0-2.343,2.445h0a2.213,2.213,0,0,0,2.343,2.229l54.794-2.6a2.367,2.367,0,0,0,2.2-2.37h0A2.117,2.117,0,0,0,958.426,2728.62Z" transform="translate(-901.289 -2712.456)"/></g><g transform="translate(19.852 10.908)"><path class="f" d="M930.012,638.763l-27.563-.781a1.121,1.121,0,0,0-1.161,1.125h0a1.2,1.2,0,0,0,1.161,1.19l27.563.747a1.1,1.1,0,0,0,1.125-1.109h0A1.172,1.172,0,0,0,930.012,638.763Z" transform="translate(-901.289 -637.982)"/><path class="f" d="M930.012,702.835l-27.563-.72a1.124,1.124,0,0,0-1.161,1.128h0a1.2,1.2,0,0,0,1.161,1.187l27.563.686A1.1,1.1,0,0,0,931.137,704h0A1.169,1.169,0,0,0,930.012,702.835Z" transform="translate(-901.289 -697.991)"/><path class="f" d="M930.012,766.908l-27.563-.659a1.127,1.127,0,0,0-1.161,1.13h0a1.192,1.192,0,0,0,1.161,1.185l27.563.625a1.1,1.1,0,0,0,1.125-1.114h0A1.166,1.166,0,0,0,930.012,766.908Z" transform="translate(-901.289 -758.002)"/></g></g><path class="g" d="M685.043,624.287c-1.535-18.754,9.984-26.495,5.591-43.486-5.43-21-26.313-21.9-33.425-42.5-2.612-7.566-3.71-18.845,3.083-35.079l-28.488-.931a1.47,1.47,0,0,0-1.535,1.468V667.585a1.43,1.43,0,0,0,1.535,1.432l78.055-4.349C691.35,649.526,685.948,635.337,685.043,624.287Z" transform="translate(-627.842 -500.107)"/></g><g transform="translate(511.916 357.411)"><path class="h" d="M2276.805,506.627a4.184,4.184,0,0,0,3.776-7.437c-.1-.05-.2-.092-.3-.132a24.072,24.072,0,0,0,.8-3.427c.109,0,.218,0,.329-.012a4.364,4.364,0,0,0,3.836-4.442,3.7,3.7,0,0,0-4-3.743c-.113.01-.224.028-.335.048a22.048,22.048,0,0,0-.926-3.273c.1-.058.2-.118.3-.186a4.364,4.364,0,0,0,1.322-5.718,3.7,3.7,0,0,0-5.383-1.021c-.095.066-.184.138-.272.211a19.55,19.55,0,0,0-2.4-2.241c.061-.1.121-.2.175-.308,1.043-2.054,2.405-4.3.494-5.23-4.422-2.159-6.32-.311-7.362,1.743-.054.106-.1.214-.145.323a19.547,19.547,0,0,0-3.226-.616c.007-.114.012-.229.01-.344-.045-2.26.625-3.483-1.547-3.525-4.737-.092-6.335,1.964-6.29,4.224,0,.118.012.234.024.348a22.051,22.051,0,0,0-3.189,1.184c-.049-.1-.1-.2-.159-.3a3.7,3.7,0,0,0-5.382-1.021,4.364,4.364,0,0,0-1.322,5.718c.057.1.12.184.184.272a24.05,24.05,0,0,0-2.3,2.665c-.092-.058-.185-.114-.283-.164a4.184,4.184,0,0,0-3.776,7.437c.1.05.2.092.3.132a24.041,24.041,0,0,0-.8,3.427c-.109,0-.218,0-.329.012a4.364,4.364,0,0,0-3.836,4.442,3.7,3.7,0,0,0,4,3.743c.113-.01.224-.028.335-.048a22.047,22.047,0,0,0,.927,3.273c-.1.058-.2.118-.3.186a4.364,4.364,0,0,0-1.322,5.718c1.121,1.861,4.833,2.725,6.685,1.428.095-.066-1.118-.546-1.03-.619a19.552,19.552,0,0,0,2.4,2.241c-.061.1-.121.2-.175.308a3.864,3.864,0,1,0,6.869,3.487c.054-.106.1-.214.145-.323a19.539,19.539,0,0,0,3.226.616c-.007.114-.012.229-.01.344a3.7,3.7,0,0,0,4,3.743,4.364,4.364,0,0,0,3.836-4.442c0-.118-.012-.234-.024-.348a22.048,22.048,0,0,0,3.189-1.184c.049.1.1.2.159.3a3.7,3.7,0,0,0,5.383,1.021,4.364,4.364,0,0,0,1.322-5.718c-.057-.1-.12-.184-.184-.272a24.029,24.029,0,0,0,2.3-2.665C2276.614,506.521,2276.707,506.577,2276.805,506.627Zm-23.645.3c-6.886-3.5-9.4-12.376-5.614-19.833s12.438-10.667,19.324-7.171,9.4,12.376,5.614,19.833S2260.047,510.423,2253.161,506.927Z" transform="translate(-2234.787 -467.292)"/><path class="i" d="M2575.217,557.551a4.364,4.364,0,0,0,3.836-4.442,3.7,3.7,0,0,0-4-3.743c-.113.01-.224.028-.335.047a22.047,22.047,0,0,0-.926-3.273c.1-.058.2-.118.3-.186,1.852-1.3,4.142-4.431,2.836-6.167-2.479-3.295-5.045-1.869-6.9-.572-.095.067-.184.138-.272.211a19.571,19.571,0,0,0-2.4-2.241c.061-.1.121-.2.175-.308a4.309,4.309,0,0,0,.243-3.4q-2.682,4.721-5.285,9.486c5.494,4.026,7.243,11.959,3.809,18.723a15.164,15.164,0,0,1-14.343,8.547c-.252.653-.5,1.31-.769,1.958-.732,1.756-1.564,3.476-2.4,5.194q.786.148,1.577.232c-.007.114-.012.229-.01.345.045,2.26,1.418,4.18,5.34,3.972,2.169-.115,2.542-2.411,2.5-4.671,0-.118-.012-.234-.024-.348a22.055,22.055,0,0,0,3.189-1.183c.049.1.1.2.159.3,1.121,1.861,5.011,2.652,6.862,1.354s.964-4.191-.158-6.052c-.057-.1-.12-.184-.184-.273a24.027,24.027,0,0,0,2.3-2.665c.092.058.185.114.283.164a4.184,4.184,0,0,0,3.776-7.437c-.1-.05-.2-.092-.3-.132a24.075,24.075,0,0,0,.8-3.427C2575,557.563,2575.106,557.561,2575.217,557.551Z" transform="translate(-2528.597 -529.224)"/><path class="j" d="M2308.535,506.892a4.184,4.184,0,0,0,3.776-7.437c-.1-.05-.2-.092-.3-.132a24.071,24.071,0,0,0,.8-3.428c.109,0,.218,0,.329-.012a4.364,4.364,0,0,0,3.836-4.442,3.7,3.7,0,0,0-4-3.743c-.113.01-.224.028-.335.048a22.042,22.042,0,0,0-.926-3.273c.1-.058.2-.118.3-.186a4.364,4.364,0,0,0,1.322-5.718,3.7,3.7,0,0,0-5.383-1.021c-.095.066-.184.138-.272.211a19.573,19.573,0,0,0-2.4-2.241c.061-.1.121-.2.175-.308a3.864,3.864,0,1,0-6.869-3.487c-.054.106-.1.214-.145.323a19.556,19.556,0,0,0-3.226-.616c.007-.114.012-.229.01-.345a3.7,3.7,0,0,0-4-3.743,4.364,4.364,0,0,0-3.836,4.442c0,.118.012.234.024.348a22.059,22.059,0,0,0-3.189,1.184c-.049-.1-.1-.2-.159-.3a3.7,3.7,0,0,0-5.383-1.021,4.364,4.364,0,0,0-1.322,5.718c.058.1.12.184.184.272a24.053,24.053,0,0,0-2.3,2.665c-.092-.058-.185-.114-.283-.164a4.184,4.184,0,0,0-3.776,7.437c.1.05.2.092.3.132a24.04,24.04,0,0,0-.8,3.427c-.109,0-.218,0-.329.012a4.364,4.364,0,0,0-3.836,4.442,3.7,3.7,0,0,0,4,3.743c.113-.01.224-.028.335-.048a22.052,22.052,0,0,0,.927,3.273c-.1.058-.2.118-.3.186a4.364,4.364,0,0,0-1.322,5.718,3.7,3.7,0,0,0,5.382,1.021c.095-.067.184-.138.272-.211a19.544,19.544,0,0,0,2.4,2.241c-.061.1-.121.2-.175.308a3.864,3.864,0,1,0,6.869,3.487c.054-.106.1-.214.146-.323a19.547,19.547,0,0,0,3.226.616c-.007.114-.012.229-.01.344a3.7,3.7,0,0,0,4,3.743,4.364,4.364,0,0,0,3.836-4.442c0-.118-.012-.234-.024-.348a22.04,22.04,0,0,0,3.189-1.183c.049.1.1.2.159.3a3.7,3.7,0,0,0,5.383,1.021,4.364,4.364,0,0,0,1.322-5.718c-.057-.1-.12-.184-.184-.272a24.045,24.045,0,0,0,2.3-2.665C2308.344,506.786,2308.437,506.842,2308.535,506.892Zm-23.645.3c-6.886-3.5-9.4-12.376-5.614-19.833s12.438-10.667,19.324-7.171,9.4,12.376,5.614,19.833S2291.777,510.688,2284.89,507.192Z" transform="translate(-2264.477 -467.325)"/></g><g transform="translate(488.189 397.344)"><path class="k" d="M1875.53,1194.918c-4.88-.083-9.317-11.391-9.7-20.635-.149-3.576-.3-7.133,1.769-10.714,3.487-6.043,8.84-4.457,11.967-9.38,4.618-7.269-3.84-15.787.752-21.826,3.378-4.442,9.025-1.241,13.121-6.122,4.752-5.662.114-13.5,4.514-16.355,2.556-1.659,4.793.549,12.149-1.125,2.878-.655,4.317-.982,5.523-1.99,4.232-3.533.994-9.548,4.125-14.023,3.446-4.927,12.543-5.033,18.2-3.48,10.141,2.783,16.053,12.76,17.5,21.2.311,1.807,2.148,13.608-5.348,21.164-5.451,5.495-13.745,6.636-15.089,6.821-5.24.721-6.522-.635-8.208.749-4.874,4,4.683,16.27-.849,25.892a16.946,16.946,0,0,1-10.891,7.672c-6.788,1.369-10.5-3.117-13.866-.86-4.361,2.919-.091,11.723-4.823,15.242-3.348,2.49-6.751-.976-12.646,1.6C1878.5,1191.029,1878.42,1194.967,1875.53,1194.918Z" transform="translate(-1865.752 -1088.384)"/><path class="l" d="M1930.976,1231.876c2.252.2,2.5-5.866,8.7-14.743,6.779-9.694,11.286-9.319,17.638-18.079,7.251-10,2.811-12.467,8.972-20.295,8.35-10.609,17.37-7.178,27.457-19.647,3.026-3.74,7.034-8.843,5.442-14.1-1.381-4.557-6.791-8.632-12.088-7.824a10.652,10.652,0,0,0-6.979,4.645c-2.838,4.737.835,8.641-1.906,12.325-1.436,1.929-4.046,2.531-9.268,3.733-7.509,1.729-9.023.318-10.886,2.027-4.211,3.861,1.932,12.518-2.235,17.145-3.578,3.972-10.232-.047-13.324,3.708-3.732,4.532,4.373,12.315.909,19.459-2.982,6.15-10.685,3.875-14.963,10.481C1923.4,1218.511,1927.727,1231.583,1930.976,1231.876Z" transform="translate(-1922.254 -1133.955)"/></g><g transform="translate(508.027 453.406)"><path class="m" d="M2185.159,2027.863c4.145-.1,3.991-7.72,10.969-10.663,7.718-3.256,13.469,3.721,18.743.351,5.925-3.786,1.393-14.338,8-19.082,4.514-3.241,8.227.538,13.994-2.589,6.011-3.259,11.315-12.427,8.116-20.627-2.669-6.841-10.322-10.616-16.147-10.11-4.765.414-5.841,3.479-10.088,3.006-5.291-.589-5.636-5.571-11.284-7.3-5.62-1.717-12.834.906-16.488,5.708-3.038,3.993-2.951,8.62-2.875,12.656.2,10.835,5.506,14.517,3.273,18.9-2.786,5.467-12.163,1.939-15.767,7.438C2171.095,2012.434,2179.2,2028.008,2185.159,2027.863Z" transform="translate(-2174.294 -1960.324)"/><path class="l" d="M2257.376,2107.079c1.535.158,1.517-4.786,5.868-9.326,4.988-5.205,9.3-3.183,15.029-7.462,7.1-5.3,3.69-10.81,9.954-16.1,8.78-7.416,21.127-1.367,23.778-7,1.549-3.289-1.055-8.772-4.554-10.312-3.734-1.643-5.894,2.346-12.068,2.031-5.782-.295-6.447-3.925-13.659-5.1-3.516-.573-8.135-1.325-10.806,1.153-5.235,4.857-.718,20.005.661,24.629,1.269,4.254,2.225,5.863,1.262,7.734-2.52,4.9-12.774,1.054-16.839,6.475C2252.6,2098.338,2255.393,2106.874,2257.376,2107.079Z" transform="translate(-2249.256 -2047.266)"/></g><g transform="translate(399.447 353.831)"><g transform="translate(19.281 0)"><path class="n" d="M883.465,414.8l-94.151-3.187a3.726,3.726,0,0,0-3.9,3.725V586.363a3.626,3.626,0,0,0,3.9,3.635l94.151-5.354a3.849,3.849,0,0,0,3.523-3.859V418.574A3.742,3.742,0,0,0,883.465,414.8Z" transform="translate(-785.413 -411.607)"/><g class="c"><path class="d" d="M844.835,541.087c-1.6-19.556,10.411-27.627,5.831-45.345-5.662-21.9-27.441-22.839-34.857-44.315-2.842-8.229-3.964-20.668,4.17-38.78l-30.664-1.038a3.726,3.726,0,0,0-3.9,3.725V586.363a3.626,3.626,0,0,0,3.9,3.635l83.951-4.774C851.906,568.686,845.819,553.107,844.835,541.087Z" transform="translate(-785.413 -411.607)"/></g><path class="o" d="M916.942,449.984l-94.151-3.078a1.533,1.533,0,0,0-1.6,1.53V619.265a1.491,1.491,0,0,0,1.6,1.494l94.151-5.245a1.583,1.583,0,0,0,1.449-1.585V451.536A1.539,1.539,0,0,0,916.942,449.984Z" transform="translate(-818.89 -444.636)"/><g transform="translate(20.698 134.67)"><path class="d" d="M1166.907,2506.159l-57.129,2.059a2.551,2.551,0,0,0-2.443,2.528h0a2.332,2.332,0,0,0,2.443,2.346l57.129-2.2a2.441,2.441,0,0,0,2.3-2.451h0A2.231,2.231,0,0,0,1166.907,2506.159Z" transform="translate(-1107.335 -2506.158)"/><path class="d" d="M1166.907,2637.2l-57.129,2.313a2.566,2.566,0,0,0-2.443,2.539h0a2.319,2.319,0,0,0,2.443,2.334l57.129-2.456a2.454,2.454,0,0,0,2.3-2.461h0A2.22,2.22,0,0,0,1166.907,2637.2Z" transform="translate(-1107.335 -2628.775)"/><path class="d" d="M1166.907,2768.247l-57.129,2.568a2.579,2.579,0,0,0-2.443,2.55h0a2.307,2.307,0,0,0,2.443,2.324l57.129-2.711a2.468,2.468,0,0,0,2.3-2.471h0A2.208,2.208,0,0,0,1166.907,2768.247Z" transform="translate(-1107.335 -2751.393)"/></g><g transform="translate(20.698 11.373)"><path class="d" d="M1137.282,589.312l-28.737-.814a1.169,1.169,0,0,0-1.21,1.173h0a1.249,1.249,0,0,0,1.21,1.24l28.737.778a1.143,1.143,0,0,0,1.173-1.156h0A1.222,1.222,0,0,0,1137.282,589.312Z" transform="translate(-1107.335 -588.497)"/><path class="d" d="M1137.282,656.115l-28.737-.75a1.172,1.172,0,0,0-1.21,1.176h0a1.246,1.246,0,0,0,1.21,1.238l28.737.715a1.146,1.146,0,0,0,1.173-1.159h0A1.219,1.219,0,0,0,1137.282,656.115Z" transform="translate(-1107.335 -651.065)"/><path class="d" d="M1137.282,722.918l-28.737-.687a1.175,1.175,0,0,0-1.21,1.179h0a1.243,1.243,0,0,0,1.21,1.235l28.737.651a1.149,1.149,0,0,0,1.173-1.162h0A1.215,1.215,0,0,0,1137.282,722.918Z" transform="translate(-1107.335 -713.632)"/></g><g transform="translate(20.595 30.731)"><g transform="translate(0 11.479)"><path class="p" d="M1161.164,1092.046a12.3,12.3,0,0,1,9.449-6.5l.286-17.442a29.512,29.512,0,0,0-26.208,17.8Z" transform="translate(-1142.187 -1068.1)"/><path class="q" d="M1376.28,1563.9a12.348,12.348,0,0,1-11.991,10.3,12.057,12.057,0,0,1-5.006-1.031l-9.14,15.024a28.928,28.928,0,0,0,14.145,3.376,29.687,29.687,0,0,0,28.828-27.031Z" transform="translate(-1334.43 -1532.021)"/><path class="r" d="M1118.629,1427.4l9.166-15.037a12.4,12.4,0,0,1-4.527-9.618,12.608,12.608,0,0,1,.3-2.736l-16.493-6.121a30.153,30.153,0,0,0-1.337,8.906A29.739,29.739,0,0,0,1118.629,1427.4Z" transform="translate(-1105.738 -1372.94)"/></g><g transform="translate(31.692)"><path class="s" d="M1598.655,918.557a12.306,12.306,0,0,1,10.288,11.085l27.865,1.1c0-.013,0-.025,0-.037,0-21.6-16.489-39.541-37.68-41.135Z" transform="translate(-1598.655 -889.571)"/></g></g><path class="g" d="M881.872,574.218c-1.6-19.554,10.409-27.624,5.829-45.34-5.661-21.9-27.434-22.837-34.849-44.31-2.724-7.888-3.868-19.648,3.214-36.574l-29.7-.971a1.532,1.532,0,0,0-1.6,1.53V619.362a1.491,1.491,0,0,0,1.6,1.493l81.382-4.534C888.448,600.533,882.815,585.739,881.872,574.218Z" transform="translate(-822.233 -444.745)"/></g><g transform="translate(0 28.109)"><path class="t" d="M532.959,870.184l-45.566-.453a1.864,1.864,0,0,1-1.867-1.833V850.566a1.79,1.79,0,0,1,1.867-1.77l39.668.945a1.816,1.816,0,0,1,1.766,1.8v14.9Z" transform="translate(-485.526 -848.795)"/><path class="u" d="M620.282,922.115l-30.176-.588v-2.078l30.176.63Z" transform="translate(-583.382 -914.906)"/><path class="u" d="M620.282,986.662l-30.176-.505v-2.078l30.176.547Z" transform="translate(-583.382 -975.381)"/><path class="u" d="M620.282,1051.208l-30.176-.422v-2.078l30.176.463Z" transform="translate(-583.382 -1035.855)"/></g><g transform="translate(65.828 104.6)"><path class="v" d="M1513.573,2041.7l40.71-.875a1.9,1.9,0,0,1,1.918,1.943v18.954a2.033,2.033,0,0,1-1.918,2.049l-42.908,1.446a1.943,1.943,0,0,1-2.011-1.967v-24.777Z" transform="translate(-1509.365 -2038.473)"/><path class="u" d="M1622.065,2323.994l32.641-.976v2.291l-32.641,1.016Z" transform="translate(-1614.819 -2304.723)"/><path class="u" d="M1622.065,2252.653l32.641-.9v2.291l-32.641.936Z" transform="translate(-1614.819 -2238.043)"/><path class="u" d="M1622.065,2181.312l32.641-.817v2.291l-32.641.857Z" transform="translate(-1614.819 -2171.363)"/></g></g><g transform="translate(434.695 416.987)"><path class="w" d="M2286.532,3101.367s-5.984,2.737-6.081,3.172,3.852-.155,5.465-.1,2.938-.421,2.791-1.1-.717-2.4-.717-2.4Z" transform="translate(-2200.292 -2991.184)"/><path class="x" d="M2371.567,3068.455l.371,2.7a2.114,2.114,0,0,0,1.585-.065l.265-2.959Z" transform="translate(-2285.551 -2960.481)"/><path class="y" d="M2747.641,3073.18l.7,1.117a1.334,1.334,0,0,1,.162,1.046c-.241.931-.724,2.745-.935,3.218-.287.645-4.164,1.036-4.164,1.036s-.347-.486.457-1.075,1.321-.683,1.6-1.551a22.719,22.719,0,0,0,.466-3.321Z" transform="translate(-2633.411 -2965.209)"/><path class="z" d="M2765.164,3024.3a36.141,36.141,0,0,1,1.509,3.979s.4.514,1.168-.248.346-.342.346-.342l-.153-3.717Z" transform="translate(-2653.842 -2919.16)"/><path class="aa" d="M2315.364,2175.586c-.3,8.047-.289,16.789.2,26.126.547,10.515,1.617,20.232,2.959,29.04.491.015,1.006.016,1.545,0q.546-.016,1.057-.054a66.934,66.934,0,0,0,2.2-7.1,68.311,68.311,0,0,0,1.53-8.316c1.132-9.116-.222-9.908.7-16.664.815-5.984,1.994-6.22,3.357-14.716,1.48-9.218.358-10.6-.187-11.1C2326.4,2170.68,2320.969,2172.141,2315.364,2175.586Z" transform="translate(-2232.774 -2121.796)"/><path class="ab" d="M2342.911,2172.819c-2.213-2.023-7.259-.783-12.584,2.325,6.151,6.614,6.83,10.912,6.1,13.7-.823,3.155-3.348,4.069-3.331,7.517.022,4.237,3.849,5.35,3.778,9.834-.047,2.965-1.727,2.938-2.115,6.6-.459,4.334,1.74,5.821,1.036,9.029a8.676,8.676,0,0,1-3.653,5.046c.182,1.316.369,2.619.564,3.9.491.014,1.006.016,1.545,0q.546-.016,1.057-.054a66.922,66.922,0,0,0,2.2-7.1,68.3,68.3,0,0,0,1.53-8.316c1.132-9.116-.222-9.908.7-16.664.815-5.984,1.994-6.22,3.357-14.716C2344.577,2174.7,2343.456,2173.317,2342.911,2172.819Z" transform="translate(-2246.963 -2121.814)"/><path class="ac" d="M2377.372,2162.741a180.666,180.666,0,0,1,24.9,52.954,3.232,3.232,0,0,0,1.769.27,3.289,3.289,0,0,0,2-1.087,52.028,52.028,0,0,0,.428-12.831,44.222,44.222,0,0,0-1.827-9.639c-1.47-4.7-2.473-4.962-4.387-9.934-1.987-5.161-1.512-6.451-3.418-12.91a85.282,85.282,0,0,0-4.25-11.324Z" transform="translate(-2290.983 -2109.095)"/><path class="ad" d="M2042.454,1648.37c.05,1.878,3.136,3.531,5.621,4.039,5.81,1.186,12.545-3.036,15.742-7.705.628-.917,1.325-2.029,1.493-1.943.38.195-3.113,5.933-4.627,12.46-.775,3.339-.572,4.9-2.021,7.126-.328.5-.732,1.028-.59,1.624.356,1.492,3.768,1.879,6.135,2.148a54.568,54.568,0,0,0,7.133.223c3.688-.054,3.978-.245,4.82.168,2.565,1.259,2.391,4.275,4.322,4.677,1.621.338,3.265-1.472,3.787-2.046,2.71-2.983,2.565-6.58,3.046-10.207,1.117-8.434,5.7-17.674,10.182-23.524,1.359-1.774,2.3-2.707,2.364-4.356.173-4.84-7.494-10.182-13.878-10.8a47.936,47.936,0,0,0-7.82.162c-1.174.111-2.424.273-3.767.509a30.781,30.781,0,0,0-7.837,2.024c-9.321,4.265-7.287,13.758-17.375,20.321C2045.713,1645.528,2042.4,1646.4,2042.454,1648.37Z" transform="translate(-1977.599 -1605.612)"/><path class="ae" d="M2554.539,1543.56a13.874,13.874,0,0,0,1.322,3.824c.833,1.437,4.276,1.953,4.993,2.2s-1.082,1.5-3,1.952-7.511.749-8.608.147.712-.787,2.029-1.479,1.758-3.507,1.35-4.7S2554.539,1543.56,2554.539,1543.56Z" transform="translate(-2451.493 -1533.937)"/><g transform="translate(98.013 4.63)"><path class="af" d="M2559.556,1470.245c-1.389-.993-1.773-3.677-1-4.279.221-.172.431-.093,3.565,1.164,1.556.624,2.322.957,2.574,1.644a2.179,2.179,0,0,1-.041,1.433,5.5,5.5,0,0,1-.637,1.062c-.337.485-.314.468-.417.609a7.64,7.64,0,0,1-1.6,1.568,5.294,5.294,0,0,0-.255-.888,4.712,4.712,0,0,0-.567-1.055A5.31,5.31,0,0,0,2559.556,1470.245Z" transform="translate(-2558.162 -1465.898)"/><path class="ag" d="M2579.337,1525.305a2.884,2.884,0,0,1-2.592,1.17c-1.507-.165-1.58-3.563-.583-4.24a1.909,1.909,0,0,1,1.5-.127c.306.1.405.234.908.388.464.142.6.1.735.222.171.157.284.528-.055,1.506a.823.823,0,0,1,.892-.25.514.514,0,0,1,.193.2C2580.53,1524.575,2580.155,1525.054,2579.337,1525.305Z" transform="translate(-2574.384 -1518.406)"/></g><path class="ah" d="M2063.9,1914.826c4.212-.949,5.891-.918,7.974-2.6,3.468-2.794,3.989-7.047,6-7,.952.025,1.726,1,2.277,1.95l-1.522,2.384c0-.03-.009-.054-.026-.062-.168-.086-.865,1.026-1.493,1.943-3.2,4.67-9.933,8.891-15.742,7.705a10.1,10.1,0,0,1-4.708-2.289A71.966,71.966,0,0,1,2063.9,1914.826Z" transform="translate(-1990.892 -1872.356)"/><path class="ai" d="M1975.1,2095.51a16.233,16.233,0,0,1-3.793-.843c-1.416-.606-2.331.264-2.2.867s2.46,1.441,3.391,1.471S1975.1,2095.51,1975.1,2095.51Z" transform="translate(-1908.951 -2049.418)"/><path class="aj" d="M2683.845,1701.248c2.552.228,8.3.331,12.359-3.427,6.764-6.257,3.408-18.168,1.054-23.29a29.159,29.159,0,0,0-9.606-11.158c-3.239-2.479-5.216-3.991-7.595-3.653-6.152.876-10.412,13.484-7.035,17.094,1.105,1.182,2.2.513,5.4,1.532,1.042.332,8.819,2.809,10.173,8.536.948,4.009-1.465,8.7-5.76,11.856Z" transform="translate(-2566.509 -1642.584)"/><path class="ah" d="M2297,1874.89c2.889-1.826,3.316-3.676,6.552-4.927,4.2-1.625,6.223.439,8.306-1.227,2.48-1.983.284-5.437,2.14-11.431.315-1.017,2.707-8.745,8.2-9.729,2.56-.459,5.94.521,7.243,2.691,1.02,1.7.07,2.963,1.309,4.837s2.72,1.415,4.3,2.977c2.507,2.48,2.892,7.711.628,10.668-1.056,1.38-2.428,1.925-5.01,2.952a24.321,24.321,0,0,1-4.305,1.265c3.161-3.034,4.8-6.947,3.994-10.365-.844-3.57-4.183-5.877-6.832-7.189a49.944,49.944,0,0,0-5.537,16.211c-.481,3.628-.336,7.224-3.046,10.208-.521.574-2.166,2.384-3.787,2.046-1.93-.4-1.756-3.418-4.322-4.677-.842-.413-1.132-.222-4.82-.168a54.568,54.568,0,0,1-7.133-.223c-2.1-.239-5.031-.574-5.9-1.694A15.385,15.385,0,0,0,2297,1874.89Z" transform="translate(-2208.269 -1818.303)"/><g transform="translate(0 0)"><path class="ak" d="M1968.287,2027.167l.3-.875a2.592,2.592,0,0,0-1.74-3.318l-56.237-17.131-1.714,5.808,55.953,17.234A2.776,2.776,0,0,0,1968.287,2027.167Z" transform="translate(-1852.626 -1966.497)"/><path class="ak" d="M1051.7,1417.5c4.3-16.987,21.149-27.224,37.812-22.426,16.969,4.886,26.684,23.272,21.528,40.6-5.035,16.924-22.3,26.055-38.411,20.833C1056.8,1451.376,1047.5,1434.1,1051.7,1417.5Zm54.445,16.678c4.261-14.5-3.869-29.867-18.039-33.989-13.956-4.06-28.135,4.462-31.794,18.724-3.589,13.989,4.248,28.57,17.616,32.866C1087.5,1456.135,1101.97,1448.393,1106.147,1434.175Z" transform="translate(-1049.604 -1393.887)"/><path class="al" d="M1910.608,2005.843l7.17,2.184a7.449,7.449,0,0,0,2.411,4.4c3.622,3,8.458-.272,15.205,3.248,3.386,1.767,2.743,2.891,5.916,4.124,5.247,2.038,7.648-.785,12.292,1.07,4.7,1.876,5.16,5.931,7.823,5.785,1.14-.062,2.606-.891,4.242-4.034l1.176.358a2.592,2.592,0,0,1,1.74,3.318l-.3.875a2.776,2.776,0,0,1-3.44,1.718l-55.953-17.234Z" transform="translate(-1852.626 -1966.497)"/><path class="am" d="M1113.222,1538.184c14.033,4.516,29.016-3.481,33.348-18.2,4.423-15.02-4-30.933-18.676-35.2-14.45-4.2-29.118,4.638-32.9,19.4C1091.3,1518.66,1099.4,1533.736,1113.222,1538.184Z" transform="translate(-1090.223 -1477.97)"/><path class="an" d="M1034.76,1440.155c4.3-16.987,21.149-27.224,37.812-22.426,16.969,4.886,26.684,23.272,21.528,40.6-5.035,16.925-22.3,26.055-38.411,20.833C1039.857,1474.033,1030.558,1456.755,1034.76,1440.155Zm54.446,16.678c4.261-14.5-3.869-29.867-18.039-33.989-13.956-4.06-28.135,4.462-31.794,18.724-3.589,13.989,4.248,28.57,17.617,32.865C1070.556,1478.792,1085.029,1471.051,1089.206,1456.833Z" transform="translate(-1033.752 -1415.088)"/><path class="ao" d="M1060.794,1467.905c4.075-16.023,19.981-25.65,35.685-21.112,15.975,4.617,25.129,21.93,20.292,38.259-4.729,15.968-21.005,24.61-36.218,19.694C1065.589,1499.911,1056.807,1483.584,1060.794,1467.905Zm52.817,16.179c4.261-14.5-3.869-29.867-18.039-33.989-13.956-4.06-28.135,4.462-31.794,18.724-3.589,13.989,4.248,28.57,17.617,32.865C1094.962,1506.044,1109.434,1498.3,1113.611,1484.084Z" transform="translate(-1058.157 -1442.339)"/></g><path class="ap" d="M2772.116,2265.238l-.568-1.413a2.908,2.908,0,0,1-1.689-.489,2.195,2.195,0,0,0-1.365-.327c-.214.059-1.022.024-.1.463s.914.766.53,1.126a6.672,6.672,0,0,1-2.37,1.174c-.526.037.425.851.955.955a3.273,3.273,0,0,0,2.476-.4C2770.375,2266.1,2772.116,2265.238,2772.116,2265.238Z" transform="translate(-2654.997 -2207.113)"/></g><g transform="translate(491.407 365.155)"><path class="h" d="M1932.024,602.934a1.615,1.615,0,0,0,1.458-2.872c-.038-.019-.077-.035-.116-.051a9.287,9.287,0,0,0,.307-1.323c.042,0,.084,0,.127,0a1.685,1.685,0,0,0,1.481-1.715,1.427,1.427,0,0,0-1.545-1.445c-.044,0-.086.011-.129.018a8.518,8.518,0,0,0-.358-1.264c.038-.023.077-.046.114-.072a1.685,1.685,0,0,0,.51-2.208,1.427,1.427,0,0,0-2.078-.394c-.036.026-.071.053-.105.082a7.545,7.545,0,0,0-.927-.865c.024-.039.047-.078.068-.119.4-.793.929-1.659.191-2.019-1.707-.834-2.44-.12-2.843.673-.021.041-.039.083-.056.125a7.547,7.547,0,0,0-1.246-.238c0-.044,0-.088,0-.133-.018-.873.241-1.345-.6-1.361-1.829-.036-2.446.758-2.428,1.631,0,.046,0,.09.009.135a8.506,8.506,0,0,0-1.231.457c-.019-.039-.039-.078-.061-.115a1.427,1.427,0,0,0-2.078-.394,1.685,1.685,0,0,0-.51,2.208c.022.037.047.071.071.105a9.287,9.287,0,0,0-.887,1.029c-.035-.022-.071-.044-.109-.063a1.615,1.615,0,0,0-1.458,2.872c.038.019.077.035.116.051a9.271,9.271,0,0,0-.307,1.323c-.042,0-.084,0-.127,0a1.685,1.685,0,0,0-1.481,1.715,1.427,1.427,0,0,0,1.545,1.445c.044,0,.087-.011.129-.018a8.53,8.53,0,0,0,.358,1.264c-.038.023-.077.046-.114.072a1.685,1.685,0,0,0-.51,2.208,2.09,2.09,0,0,0,2.581.551c.037-.026-.432-.211-.4-.239a7.548,7.548,0,0,0,.927.865c-.023.039-.047.078-.067.119a1.492,1.492,0,1,0,2.652,1.346c.021-.041.039-.083.056-.125a7.553,7.553,0,0,0,1.246.238c0,.044,0,.088,0,.133a1.427,1.427,0,0,0,1.545,1.445,1.685,1.685,0,0,0,1.481-1.715c0-.046,0-.09-.009-.135a8.513,8.513,0,0,0,1.231-.457c.019.039.039.078.061.115a1.427,1.427,0,0,0,2.078.394,1.685,1.685,0,0,0,.51-2.208c-.022-.037-.047-.071-.071-.105a9.282,9.282,0,0,0,.887-1.029C1931.95,602.893,1931.986,602.915,1932.024,602.934Zm-9.13.116a5.865,5.865,0,1,1,7.461-2.769A5.636,5.636,0,0,1,1922.895,603.05Z" transform="translate(-1915.801 -587.746)"/><path class="i" d="M2047.245,622.6a1.685,1.685,0,0,0,1.481-1.715,1.427,1.427,0,0,0-1.544-1.445c-.044,0-.087.011-.129.018a8.514,8.514,0,0,0-.358-1.264c.038-.022.077-.046.114-.072.715-.5,1.6-1.711,1.095-2.381-.957-1.272-1.948-.722-2.663-.221-.036.026-.071.053-.105.081a7.567,7.567,0,0,0-.927-.865c.024-.039.047-.078.068-.119a1.664,1.664,0,0,0,.094-1.312q-1.036,1.823-2.041,3.663a5.723,5.723,0,0,1,1.471,7.229,5.855,5.855,0,0,1-5.538,3.3c-.1.252-.193.506-.3.756-.283.678-.6,1.342-.925,2.005q.3.057.609.089c0,.044,0,.088,0,.133.018.873.547,1.614,2.062,1.534.838-.044.982-.931.964-1.8,0-.046,0-.09-.009-.135a8.509,8.509,0,0,0,1.231-.457c.019.039.039.078.062.115a2.178,2.178,0,0,0,2.65.523c.715-.5.372-1.618-.061-2.337-.022-.037-.047-.071-.071-.105a9.282,9.282,0,0,0,.887-1.029c.036.022.071.044.109.063a1.615,1.615,0,0,0,1.458-2.872c-.038-.019-.077-.036-.116-.051a9.274,9.274,0,0,0,.307-1.323C2047.161,622.6,2047.2,622.6,2047.245,622.6Z" transform="translate(-2029.245 -611.659)"/><path class="j" d="M1944.275,603.036a1.615,1.615,0,0,0,1.458-2.872c-.038-.019-.077-.035-.115-.051a9.29,9.29,0,0,0,.307-1.323c.042,0,.084,0,.127,0a1.685,1.685,0,0,0,1.481-1.715,1.427,1.427,0,0,0-1.545-1.445c-.044,0-.087.011-.129.018a8.5,8.5,0,0,0-.358-1.264c.038-.022.077-.046.114-.072a1.685,1.685,0,0,0,.51-2.208,1.427,1.427,0,0,0-2.078-.394c-.037.026-.071.053-.105.081a7.544,7.544,0,0,0-.927-.865c.024-.039.047-.078.068-.119a1.492,1.492,0,1,0-2.652-1.347c-.021.041-.039.083-.056.125a7.543,7.543,0,0,0-1.246-.238c0-.044,0-.088,0-.133a1.427,1.427,0,0,0-1.545-1.445,1.685,1.685,0,0,0-1.481,1.715c0,.046,0,.09.009.134a8.528,8.528,0,0,0-1.231.457c-.019-.039-.039-.078-.061-.115a1.427,1.427,0,0,0-2.078-.394,1.685,1.685,0,0,0-.51,2.208c.022.037.047.071.071.105a9.282,9.282,0,0,0-.887,1.029c-.035-.022-.071-.044-.109-.063a1.615,1.615,0,0,0-1.458,2.872c.038.019.077.035.115.051a9.286,9.286,0,0,0-.307,1.323c-.042,0-.084,0-.127,0a1.685,1.685,0,0,0-1.481,1.715,1.427,1.427,0,0,0,1.545,1.445c.044,0,.087-.011.129-.018a8.516,8.516,0,0,0,.358,1.264c-.038.023-.077.046-.114.072a1.685,1.685,0,0,0-.51,2.208,1.427,1.427,0,0,0,2.078.394c.037-.026.071-.053.105-.081a7.558,7.558,0,0,0,.927.865c-.024.039-.047.078-.068.119a1.492,1.492,0,1,0,2.652,1.346c.021-.041.039-.083.056-.125a7.55,7.55,0,0,0,1.246.238c0,.044,0,.088,0,.133a1.427,1.427,0,0,0,1.545,1.445,1.685,1.685,0,0,0,1.481-1.715c0-.046,0-.09-.009-.134a8.5,8.5,0,0,0,1.231-.457c.019.039.039.078.061.115a1.427,1.427,0,0,0,2.078.394,1.685,1.685,0,0,0,.51-2.208c-.022-.037-.047-.071-.071-.105a9.292,9.292,0,0,0,.887-1.029C1944.2,602.995,1944.238,603.017,1944.275,603.036Zm-9.129.116a5.865,5.865,0,1,1,7.461-2.769A5.636,5.636,0,0,1,1935.146,603.152Z" transform="translate(-1927.264 -587.758)"/></g></g></svg>