<svg xmlns="http://www.w3.org/2000/svg" xmlns:xlink="http://www.w3.org/1999/xlink" width="122" height="115" viewBox="0 0 122 115"><defs><style>.a{fill:#fff;stroke:#707070;}.b{clip-path:url(#a);}.c{opacity:0.2;}.d{fill:url(#b);}.e{fill:url(#c);}.f{fill:url(#d);}.g{fill:url(#e);}.h{fill:url(#f);}.i{fill:url(#g);}.j{fill:url(#h);}.k{fill:url(#i);}.l{fill:url(#j);}.ag,.aj,.am,.aq,.ba,.bd,.bg,.bk,.m,.p,.s,.w{mix-blend-mode:color-dodge;isolation:isolate;}.m{fill:url(#k);}.n{fill:url(#l);}.o{fill:url(#m);}.p{fill:url(#n);}.q{fill:url(#o);}.r{fill:url(#p);}.s{fill:url(#q);}.t{fill:url(#r);}.u{fill:url(#s);}.v{fill:url(#t);}.w{fill:url(#u);}.x{fill:url(#v);}.y{fill:url(#w);}.z{fill:url(#x);}.aa{fill:url(#y);}.ab{fill:url(#z);}.ac{fill:url(#aa);}.ad{fill:url(#ab);}.ae{fill:url(#ac);}.af{fill:url(#ad);}.ag{fill:url(#ae);}.ah{fill:url(#af);}.ai{fill:url(#ag);}.aj{fill:url(#ah);}.ak{fill:url(#ai);}.al{fill:url(#aj);}.am{fill:url(#ak);}.an{fill:url(#al);}.ao{fill:url(#am);}.ap{fill:url(#an);}.aq{fill:url(#ao);}.ar{fill:url(#ap);}.as{fill:url(#aq);}.at{fill:url(#ar);}.au{fill:url(#as);}.av{fill:url(#at);}.aw{fill:url(#au);}.ax{fill:url(#av);}.ay{fill:url(#aw);}.az{fill:url(#ax);}.ba{fill:url(#ay);}.bb{fill:url(#az);}.bc{fill:url(#ba);}.bd{fill:url(#bb);}.be{fill:url(#bc);}.bf{fill:url(#bd);}.bg{fill:url(#be);}.bh{fill:url(#bf);}.bi{fill:url(#bg);}.bj{fill:url(#bh);}.bk{fill:url(#bi);}</style><clipPath id="a"><path class="a" d="M0,0H122a0,0,0,0,1,0,0V95a20,20,0,0,1-20,20H0a0,0,0,0,1,0,0V0A0,0,0,0,1,0,0Z" transform="translate(1809.244 955)"/></clipPath><linearGradient id="b" x1="0.285" y1="0.532" x2="3.111" y2="0.113" gradientUnits="objectBoundingBox"><stop offset="0.035" stop-color="#9f19ab"/><stop offset="0.244" stop-color="#ae24b0"/><stop offset="0.645" stop-color="#d643bf"/><stop offset="1" stop-color="#ff63ce"/></linearGradient><linearGradient id="c" x1="-1.315" y1="0.703" x2="2.394" y2="0.289" xlink:href="#b"/><linearGradient id="d" x1="1.022" y1="-1.198" x2="0.46" y2="0.629" xlink:href="#b"/><linearGradient id="e" x1="0.03" y1="0.517" x2="6.209" y2="0.296" gradientUnits="objectBoundingBox"><stop offset="0.035" stop-color="#138bbd"/><stop offset="0.226" stop-color="#169ac6"/><stop offset="0.595" stop-color="#1ec2df"/><stop offset="1" stop-color="#2af6ff"/></linearGradient><linearGradient id="f" x1="0.684" y1="-0.102" x2="0.473" y2="0.585" xlink:href="#e"/><linearGradient id="g" x1="786.401" y1="0.616" x2="795.546" y2="0.379" xlink:href="#e"/><linearGradient id="h" x1="119.003" y1="-0.096" x2="118.794" y2="0.585" xlink:href="#e"/><linearGradient id="i" x1="0.418" y1="0.374" x2="0.878" y2="1.08" xlink:href="#e"/><linearGradient id="j" x1="0.248" y1="0.961" x2="0.894" y2="-0.203" gradientUnits="objectBoundingBox"><stop offset="0.035" stop-color="#1bb0d4"/><stop offset="0.203" stop-color="#1ebfdd"/><stop offset="0.527" stop-color="#26e7f6"/><stop offset="0.631" stop-color="#2af6ff"/><stop offset="0.874" stop-color="#1bb0d4"/></linearGradient><radialGradient id="k" cx="0.72" cy="0.193" r="0.554" gradientTransform="translate(-0.397) scale(0.835 1)" gradientUnits="objectBoundingBox"><stop offset="0" stop-color="#fff"/><stop offset="1"/></radialGradient><linearGradient id="l" x1="255.875" y1="0.374" x2="256.336" y2="1.08" xlink:href="#e"/><linearGradient id="m" x1="257.698" y1="0.961" x2="258.344" y2="-0.203" xlink:href="#j"/><radialGradient id="n" cx="0.28" cy="0.193" r="0.554" gradientTransform="matrix(-0.835, 0, 0, 1, 672.243, 0)" xlink:href="#k"/><linearGradient id="o" x1="245.033" y1="0.059" x2="245.145" y2="1.089" xlink:href="#e"/><linearGradient id="p" x1="245.244" y1="-0.017" x2="244.855" y2="1.039" xlink:href="#j"/><radialGradient id="q" cx="0.674" cy="0.301" r="0.79" gradientTransform="matrix(-0.501, 0, 0, 1, 478.989, 0)" xlink:href="#k"/><linearGradient id="r" x1="0.5" y1="1.482" x2="0.5" y2="0.035" xlink:href="#e"/><linearGradient id="s" x1="0.454" y1="0.059" x2="0.566" y2="1.089" xlink:href="#e"/><linearGradient id="t" x1="0.665" y1="-0.017" x2="0.275" y2="1.039" xlink:href="#j"/><radialGradient id="u" cx="0.326" cy="0.301" r="0.79" gradientTransform="translate(-1.219) scale(0.501 1)" xlink:href="#k"/><linearGradient id="v" x1="0.305" y1="0.538" x2="2.868" y2="0.033" gradientUnits="objectBoundingBox"><stop offset="0.035" stop-color="#6b24d6"/><stop offset="0.294" stop-color="#7733dc"/><stop offset="0.794" stop-color="#965bec"/><stop offset="1" stop-color="#a56ef4"/></linearGradient><linearGradient id="w" x1="-1.146" y1="0.744" x2="2.217" y2="0.246" xlink:href="#v"/><linearGradient id="x" x1="1.022" y1="-1.198" x2="0.46" y2="0.629" xlink:href="#v"/><linearGradient id="y" x1="0.139" y1="0.519" x2="4.887" y2="0.268" gradientUnits="objectBoundingBox"><stop offset="0.035" stop-color="#ffa98c"/><stop offset="0.317" stop-color="#feb892"/><stop offset="0.86" stop-color="#fee0a3"/><stop offset="1" stop-color="#feeca8"/></linearGradient><linearGradient id="z" x1="0.684" y1="-0.102" x2="0.473" y2="0.585" xlink:href="#y"/><linearGradient id="aa" x1="985.269" y1="0.635" x2="992.458" y2="0.359" xlink:href="#y"/><linearGradient id="ab" x1="148.844" y1="-0.096" x2="148.635" y2="0.585" xlink:href="#y"/><linearGradient id="ac" x1="0.417" y1="0.374" x2="0.878" y2="1.08" xlink:href="#y"/><linearGradient id="ad" x1="0.248" y1="0.961" x2="0.894" y2="-0.203" gradientUnits="objectBoundingBox"><stop offset="0.035" stop-color="#f7aa90"/><stop offset="0.232" stop-color="#f9b996"/><stop offset="0.61" stop-color="#fee1a6"/><stop offset="0.631" stop-color="#ffe4a7"/><stop offset="0.874" stop-color="#f7aa90"/></linearGradient><radialGradient id="ae" cx="0.72" cy="0.193" r="0.555" gradientTransform="translate(-0.526) scale(0.835 1)" xlink:href="#k"/><linearGradient id="af" x1="320.076" y1="0.374" x2="320.536" y2="1.08" xlink:href="#y"/><linearGradient id="ag" x1="322.407" y1="0.961" x2="323.053" y2="-0.203" xlink:href="#ad"/><radialGradient id="ah" cx="0.28" cy="0.193" r="0.555" gradientTransform="matrix(-0.835, 0, 0, 1, 840.703, 0)" xlink:href="#k"/><linearGradient id="ai" x1="306.935" y1="0.06" x2="307.047" y2="1.089" xlink:href="#y"/><linearGradient id="aj" x1="307.146" y1="-0.017" x2="306.757" y2="1.039" xlink:href="#ad"/><radialGradient id="ak" cx="0.674" cy="0.301" r="0.79" gradientTransform="matrix(-0.501, 0, 0, 1, 599.968, 0)" xlink:href="#k"/><linearGradient id="al" x1="0.5" y1="1.482" x2="0.5" y2="0.035" xlink:href="#y"/><linearGradient id="am" x1="0.454" y1="0.06" x2="0.566" y2="1.089" xlink:href="#y"/><linearGradient id="an" x1="0.665" y1="-0.017" x2="0.275" y2="1.039" xlink:href="#ad"/><radialGradient id="ao" cx="0.326" cy="0.301" r="0.79" gradientTransform="translate(-1.564) scale(0.501 1)" xlink:href="#k"/><linearGradient id="ap" x1="0.318" y1="0.545" x2="2.712" y2="-0.052" xlink:href="#e"/><linearGradient id="aq" x1="-1.037" y1="0.788" x2="2.103" y2="0.199" xlink:href="#e"/><linearGradient id="ar" x1="1.022" y1="-1.198" x2="0.46" y2="0.629" xlink:href="#e"/><linearGradient id="as" x1="0.209" y1="0.522" x2="4.038" y2="0.23" xlink:href="#b"/><linearGradient id="at" x1="0.684" y1="-0.102" x2="0.473" y2="0.585" xlink:href="#b"/><linearGradient id="au" x1="1022.086" y1="0.662" x2="1028.019" y2="0.331" xlink:href="#b"/><linearGradient id="av" x1="154.303" y1="-0.096" x2="154.094" y2="0.585" xlink:href="#b"/><linearGradient id="aw" x1="0.417" y1="0.374" x2="0.878" y2="1.08" xlink:href="#b"/><linearGradient id="ax" x1="0.248" y1="0.961" x2="0.894" y2="-0.203" gradientUnits="objectBoundingBox"><stop offset="0.035" stop-color="#9f19ab"/><stop offset="0.164" stop-color="#ae24b0"/><stop offset="0.412" stop-color="#d643bf"/><stop offset="0.631" stop-color="#ff63ce"/><stop offset="0.874" stop-color="#dc48c1"/></linearGradient><radialGradient id="ay" cx="0.72" cy="0.193" r="0.555" gradientTransform="translate(-0.552) scale(0.835 1)" xlink:href="#k"/><linearGradient id="az" x1="331.83" y1="0.374" x2="332.29" y2="1.08" xlink:href="#b"/><linearGradient id="ba" x1="334.257" y1="0.961" x2="334.903" y2="-0.203" xlink:href="#ax"/><radialGradient id="bb" cx="0.28" cy="0.193" r="0.555" gradientTransform="matrix(-0.835, 0, 0, 1, 871.541, 0)" xlink:href="#k"/><linearGradient id="bc" x1="318.262" y1="0.06" x2="318.374" y2="1.089" xlink:href="#b"/><linearGradient id="bd" x1="318.473" y1="-0.017" x2="318.084" y2="1.039" xlink:href="#ax"/><radialGradient id="be" cx="0.674" cy="0.301" r="0.79" gradientTransform="matrix(-0.501, 0, 0, 1, 622.118, 0)" xlink:href="#k"/><linearGradient id="bf" x1="0.5" y1="1.482" x2="0.5" y2="0.035" xlink:href="#b"/><linearGradient id="bg" x1="0.454" y1="0.06" x2="0.566" y2="1.089" xlink:href="#b"/><linearGradient id="bh" x1="0.665" y1="-0.017" x2="0.275" y2="1.039" xlink:href="#ax"/><radialGradient id="bi" cx="0.326" cy="0.301" r="0.79" gradientTransform="translate(-1.633) scale(0.501 1)" xlink:href="#k"/></defs><g class="b" transform="translate(-1809.244 -955)"><g transform="translate(1798.729 986.209) rotate(-21)"><g transform="translate(22.6 0)"><path class="c" d="M0,27.02,46.155,54.088,92.306,26.926,46.05,0Z" transform="translate(0 54.508)"/><path class="d" d="M0,24.09V82.706L40.98,58.975V0Z" transform="translate(45.172 24.03)"/><path class="e" d="M41.192,24.157V82.774L0,58.975V0Z" transform="translate(4.032 23.963)"/><path class="f" d="M0,23.963,41.192,48.121,82.121,24.03,40.839,0Z" transform="translate(4.032)"/><path class="g" d="M0,4.486v58.6l7.531-4.127V0Z" transform="translate(62.416 33.622)"/><path class="h" d="M0,4.359,41.532,28.647l7.48-4.486L7.39,0Z" transform="translate(20.936 9.46)"/><path class="i" d="M7.3,4.372v58.6L0,58.963V0Z" transform="translate(20.708 33.849)"/><path class="j" d="M48.445,4.245,7.253,28.4,0,24.03,41.282,0Z" transform="translate(20.708 9.818)"/><g transform="translate(44.321 7.736)"><path class="k" d="M6.652,16.942,0,13.111S6.7,3.639,12.932.64c3.738-1.8,8.045.482,9.388,3.27.807,1.672-1.041,4.513-3.132,5.78C13.611,13.067,6.652,16.942,6.652,16.942Z"/><path class="l" d="M19.227,4.58a6.48,6.48,0,0,1,3.112-.628c-1.32-2.806-5.649-5.12-9.406-3.311C6.7,3.638,0,13.111,0,13.111l6.455,3.718C7.461,15.447,13.533,7.321,19.227,4.58Z" transform="translate(0 0)"/><path class="m" d="M15.676.006a6.471,6.471,0,0,0-3.1.628C6.886,3.374,0,13.266,0,13.266,1.006,11.884,7.078,3.758,12.772,1.017A6.48,6.48,0,0,1,15.884.389C15.824.259,15.75.133,15.676.006Z" transform="translate(6.454 3.563)"/></g><g transform="translate(23.61 8.02)"><path class="n" d="M15.862,16.942l6.652-3.831S15.81,3.638,9.581.64c-3.738-1.8-8.045.482-9.388,3.269-.806,1.673,1.041,4.514,3.132,5.78C8.9,13.067,15.862,16.942,15.862,16.942Z" transform="translate(0 0)"/><path class="o" d="M3.112,4.58A6.48,6.48,0,0,0,0,3.952C1.32,1.145,5.649-1.168,9.406.64c6.23,3,12.933,12.471,12.933,12.471l-6.455,3.718C14.878,15.447,8.806,7.32,3.112,4.58Z" transform="translate(0.175)"/><path class="p" d="M.208.006A6.482,6.482,0,0,1,3.3.634C9,3.375,15.884,13.267,15.884,13.267,14.878,11.885,8.806,3.758,3.112,1.018A6.48,6.48,0,0,0,0,.389C.061.26.135.133.208.006Z" transform="translate(0.175 3.562)"/></g><g transform="translate(43.314 22.83)"><path class="q" d="M6.1.437s5.463-1.079,9.824.154c5.564,1.573,9.249,6.984,6.485,9.134s-5.6,4.145-8.634,2.494S0,4.391,0,4.391Z"/><path class="r" d="M10.132,4.391C5.77,3.156.307,4.237.307,4.237l-.27.175L0,4.391,6.1.437s5.463-1.079,9.824.154c5.564,1.573,9.249,6.984,6.485,9.134A14.625,14.625,0,0,1,17.3,12.673C18.51,10.193,15.065,5.785,10.132,4.391Z"/><path class="s" d="M.538.543.575.564S6.308-.691,10.669.543c4.934,1.4,8.379,5.8,7.173,8.283.305-.072-.052.114-.537.231,1.206-2.48-2.239-6.888-7.173-8.283C5.77-.461.307.62.307.62L.037.794,0,.773Z" transform="translate(0 3.617)"/></g><path class="t" d="M7.3,2.178,5.516.656A2.731,2.731,0,0,0,1.9.717L0,2.455,3.449,4.95Z" transform="translate(41.627 21.317)"/><g transform="translate(23.326 22.83)"><path class="u" d="M17.249.437S11.786-.642,7.424.591C1.86,2.164-1.824,7.575.939,9.725s5.6,4.145,8.635,2.494S23.35,4.391,23.35,4.391Z"/><path class="v" d="M13.22,4.391c4.361-1.234,9.824-.154,9.824-.154l.27.175.037-.021L17.249.437S11.786-.642,7.424.591C1.86,2.164-1.824,7.575.939,9.725a14.629,14.629,0,0,0,5.108,2.948C4.841,10.193,8.285,5.785,13.22,4.391Z"/><path class="w" d="M17.546.543l-.037.022S11.776-.691,7.414.543C2.481,1.938-.964,6.345.242,8.825c-.3-.072.052.114.538.231C-.427,6.576,3.018,2.168,7.952.773,12.313-.461,17.776.62,17.776.62l.27.175.037-.021Z" transform="translate(5.267 3.617)"/></g></g><g transform="translate(0 59.601)"><path class="c" d="M0,21.813,37.261,43.665,74.519,21.737,37.176,0Z" transform="translate(0 27.503)"/><path class="x" d="M0,19.448V50.267L33.083,31.109V0Z" transform="translate(36.467 19.4)"/><path class="y" d="M33.254,19.5V50.322L0,31.109V0Z" transform="translate(3.255 19.346)"/><path class="z" d="M0,19.346l33.254,19.5L66.3,19.4,32.969,0Z" transform="translate(3.255)"/><path class="aa" d="M0,3.621v30.81L6.08,31.1V0Z" transform="translate(50.389 27.143)"/><path class="ab" d="M0,3.519,33.529,23.127l6.039-3.621L5.966,0Z" transform="translate(16.902 7.637)"/><path class="ac" d="M5.9,3.529v30.81L0,31.1V0Z" transform="translate(16.718 27.326)"/><path class="ad" d="M39.11,3.427,5.855,22.929,0,19.4,33.327,0Z" transform="translate(16.718 7.926)"/><g transform="translate(35.78 6.246)"><path class="ae" d="M5.37,13.678,0,10.584S5.411,2.937,10.441.517a5.957,5.957,0,0,1,7.579,2.64c.651,1.35-.84,3.644-2.529,4.666C10.988,10.548,5.37,13.678,5.37,13.678Z"/><path class="af" d="M15.521,3.7a5.237,5.237,0,0,1,2.513-.507A5.953,5.953,0,0,0,10.441.517C5.411,2.937,0,10.584,0,10.584l5.21,3C6.023,12.471,10.925,5.91,15.521,3.7Z" transform="translate(0 0)"/><path class="ag" d="M12.655,0a5.226,5.226,0,0,0-2.5.506C5.56,2.724,0,10.71,0,10.71.812,9.594,5.715,3.034,10.311.821A5.237,5.237,0,0,1,12.824.313C12.775.209,12.715.107,12.655,0Z" transform="translate(5.21 2.877)"/></g><g transform="translate(19.06 6.475)"><path class="ah" d="M12.805,13.678l5.371-3.093S12.764,2.937,7.735.517A5.957,5.957,0,0,0,.156,3.157C-.5,4.507,1,6.8,2.685,7.823,7.187,10.549,12.805,13.678,12.805,13.678Z"/><path class="ai" d="M2.513,3.7A5.226,5.226,0,0,0,0,3.191,5.952,5.952,0,0,1,7.594.517c5.029,2.42,10.441,10.067,10.441,10.067l-5.211,3C12.012,12.471,7.109,5.91,2.513,3.7Z" transform="translate(0.142 0)"/><path class="aj" d="M.167,0a5.228,5.228,0,0,1,2.5.506c4.6,2.213,10.155,10.2,10.155,10.2C12.012,9.594,7.109,3.034,2.513.821A5.226,5.226,0,0,0,0,.314C.049.209.109.107.167,0Z" transform="translate(0.142 2.877)"/></g><g transform="translate(34.967 18.431)"><path class="ak" d="M4.926.353a20.02,20.02,0,0,1,7.931.124c4.492,1.27,7.466,5.639,5.236,7.374S13.57,11.2,11.122,9.865,0,3.544,0,3.544Z"/><path class="al" d="M8.18,3.544A20.039,20.039,0,0,0,.248,3.42L.03,3.561,0,3.544,4.926.353a20.021,20.021,0,0,1,7.931.124c4.492,1.27,7.466,5.639,5.236,7.374a11.786,11.786,0,0,1-4.124,2.38C14.943,8.229,12.162,4.671,8.18,3.544Z"/><path class="am" d="M.434.438l.03.017S5.092-.558,8.613.438C12.6,1.565,15.376,5.122,14.4,7.125c.246-.059-.042.092-.434.186.973-2-1.807-5.56-5.79-6.686A20.039,20.039,0,0,0,.248.5L.03.641,0,.624Z" transform="translate(0 2.92)"/></g><path class="an" d="M5.89,1.759,4.453.529a2.205,2.205,0,0,0-2.922.05L0,1.982,2.784,4Z" transform="translate(33.605 17.209)"/><g transform="translate(18.831 18.431)"><path class="ao" d="M13.925.353A20.021,20.021,0,0,0,5.994.477C1.5,1.748-1.473,6.116.758,7.851S5.281,11.2,7.729,9.865s11.122-6.32,11.122-6.32Z"/><path class="ap" d="M10.672,3.544A20.039,20.039,0,0,1,18.6,3.42l.218.141.03-.017L13.925.353A20.021,20.021,0,0,0,5.994.477C1.5,1.748-1.473,6.116.758,7.851a11.791,11.791,0,0,0,4.123,2.38C3.908,8.229,6.689,4.671,10.672,3.544Z"/><path class="aq" d="M14.165.438l-.03.017S9.507-.558,5.986.438C2,1.565-.778,5.122.2,7.125c-.245-.059.042.092.434.186-.973-2,1.808-5.56,5.791-6.686A20.039,20.039,0,0,1,14.351.5l.218.141L14.6.624Z" transform="translate(4.252 2.92)"/></g></g><g transform="translate(63.49 78.646)"><path class="c" d="M0,20.592,35.175,41.22l35.171-20.7L35.095,0Z" transform="translate(0 15.961)"/><path class="ar" d="M0,18.359V37.451L31.231,19.365V0Z" transform="translate(34.426 18.313)"/><path class="as" d="M31.392,18.41V37.5L0,19.365V0Z" transform="translate(3.073 18.262)"/><path class="at" d="M0,18.262l31.392,18.41L62.584,18.313,31.123,0Z" transform="translate(3.073)"/><path class="au" d="M0,3.418V22.5l5.74-3.145V0Z" transform="translate(47.567 25.623)"/><path class="av" d="M0,3.322l31.651,18.51,5.7-3.418L5.632,0Z" transform="translate(15.956 7.21)"/><path class="aw" d="M5.567,3.332V22.414L0,19.356V0Z" transform="translate(15.782 25.796)"/><path class="ax" d="M36.92,3.235,5.527,21.645,0,18.314,31.461,0Z" transform="translate(15.782 7.482)"/><g transform="translate(33.778 5.895)"><path class="ay" d="M5.069,12.912,0,9.992S5.108,2.773,9.856.488A5.624,5.624,0,0,1,17.01,2.98c.615,1.275-.793,3.44-2.387,4.4C10.373,9.959,5.069,12.912,5.069,12.912Z" transform="translate(0 0)"/><path class="az" d="M14.652,3.491a4.935,4.935,0,0,1,2.372-.478A5.618,5.618,0,0,0,9.856.488C5.108,2.773,0,9.992,0,9.992l4.919,2.833C5.685,11.772,10.313,5.58,14.652,3.491Z"/><path class="ba" d="M11.946,0a4.932,4.932,0,0,0-2.36.478C5.247,2.572,0,10.11,0,10.11.766,9.057,5.394,2.864,9.733.775A4.935,4.935,0,0,1,12.1.3C12.059.2,12,.1,11.946,0Z" transform="translate(4.919 2.716)"/></g><g transform="translate(17.993 6.112)"><path class="bb" d="M12.088,12.912l5.069-2.92S12.049,2.773,7.3.488A5.624,5.624,0,0,0,.147,2.98c-.615,1.275.793,3.439,2.387,4.4C6.785,9.958,12.088,12.912,12.088,12.912Z" transform="translate(0 0)"/><path class="bc" d="M2.372,3.491A4.947,4.947,0,0,0,0,3.012,5.619,5.619,0,0,1,7.168.488c4.748,2.286,9.856,9.5,9.856,9.5L12.1,12.826C11.339,11.772,6.711,5.58,2.372,3.491Z" transform="translate(0.134)"/><path class="bd" d="M.158,0A4.926,4.926,0,0,1,2.517.482C6.857,2.572,12.1,10.11,12.1,10.11,11.339,9.057,6.711,2.864,2.372.775A4.947,4.947,0,0,0,0,.3C.046.2.1.1.158,0Z" transform="translate(0.134 2.716)"/></g><g transform="translate(33.01 17.399)"><path class="be" d="M4.65.334A18.906,18.906,0,0,1,12.137.45c4.241,1.2,7.048,5.324,4.942,6.961s-4.269,3.159-6.58,1.9S0,3.346,0,3.346Z"/><path class="bf" d="M7.721,3.346A18.906,18.906,0,0,0,.234,3.229l-.206.133L0,3.346,4.65.334A18.906,18.906,0,0,1,12.137.45c4.241,1.2,7.048,5.324,4.942,6.961a11.133,11.133,0,0,1-3.893,2.247C14.106,7.769,11.481,4.409,7.721,3.346Z"/><path class="bg" d="M.409.414.437.43S4.807-.526,8.131.414c3.76,1.063,6.385,4.423,5.467,6.312.232-.055-.04.087-.41.176.919-1.89-1.706-5.249-5.466-6.312A18.906,18.906,0,0,0,.234.472L.028.606,0,.589Z" transform="translate(0 2.757)"/></g><path class="bh" d="M5.56,1.66,4.2.5A2.08,2.08,0,0,0,1.445.547L0,1.872l2.629,1.9Z" transform="translate(31.724 16.245)"/><g transform="translate(17.777 17.399)"><path class="bi" d="M13.145.334A18.9,18.9,0,0,0,5.658.45C1.418,1.65-1.39,5.774.716,7.411s4.27,3.159,6.58,1.9S17.8,3.346,17.8,3.346Z"/><path class="bj" d="M10.074,3.346a18.9,18.9,0,0,1,7.487-.117l.206.133.029-.016L13.145.334A18.9,18.9,0,0,0,5.658.45C1.418,1.65-1.39,5.774.716,7.411A11.137,11.137,0,0,0,4.608,9.658C3.689,7.769,6.315,4.409,10.074,3.346Z"/><path class="bk" d="M13.371.414,13.343.43S8.974-.526,5.651.414C1.89,1.477-.735,4.836.184,6.726c-.232-.055.039.087.409.176C-.325,5.012,2.3,1.652,6.06.589A18.9,18.9,0,0,1,13.547.472l.206.133.029-.016Z" transform="translate(4.014 2.757)"/></g></g></g></g></svg>