<svg xmlns="http://www.w3.org/2000/svg" width="380" height="274" viewBox="0 0 380 274"><defs><style>.a,.m,.n{fill:#fff;}.b,.h{fill:#2a286a;}.b{font-size:12px;}.b,.m{font-family:Poppins-Medium, Poppins Medium;font-weight:500;}.c,.d,.e{fill:#465969;}.c{font-size:10px;font-family:CircularStd-Book, Circular Std;}.d,.e{font-size:16px;}.d,.f,.g{font-family:CircularStd-Bold, Circular Std;}.d,.e,.g,.h,.n{font-weight:700;}.e,.h,.n{font-family:Helvetica-Bold, Helvetica;}.g,.k,.l{fill:#fb8b24;}.g{font-size:18px;}.h{font-size:30px;}.i{font-family:Poppins-Bold, Poppins;}.j{fill:none;stroke:#d6d6d6;}.k{opacity:0.323;}.m{font-size:9px;}.n{font-size:23px;}.o{fill:#ffe700;}.p{fill:#00dc99;}</style></defs><g transform="translate(-16 -165)"><rect class="a" width="380" height="274" rx="15" transform="translate(16 165)"/><text class="b" transform="translate(103 273)"><tspan x="-62.742" y="0">Instant Loan Amount</tspan></text><text class="c" transform="translate(78 384)"><tspan x="-37.67" y="0">Repayment Days</tspan></text><text class="c" transform="translate(218 384)"><tspan x="-44.675" y="0">Repayment Amount</tspan></text><text class="d" transform="translate(70 407)"><tspan x="-29.448" y="0">30 Days</tspan></text><text class="e" transform="translate(222 407)"><tspan x="-48.861" y="0">₦</tspan><tspan class="f" y="0">335,000.00</tspan></text><text class="g" transform="translate(115 358)"><tspan x="-74.907" y="0">Repayment Terms</tspan></text><text class="h" transform="translate(132 309)"><tspan x="-91.599" y="0">₦</tspan><tspan class="i" y="0">310,000.00</tspan></text><path class="j" d="M1441.463,5008.959h332.676" transform="translate(-1401.963 -4680)"/><g transform="translate(4 36)"><rect class="k" width="317" height="42" rx="8" transform="translate(45 164)"/><rect class="l" width="337" height="55" rx="8" transform="translate(34 144)"/><text class="m" transform="translate(83 162)"><tspan x="-37.049" y="0">You have saved </tspan></text><text class="n" transform="translate(126 187)"><tspan x="-79.897" y="0">₦</tspan><tspan class="i" y="0">1,205,000.00</tspan></text><path class="o" d="M9.845,5.513H9.254V3.741a3.741,3.741,0,1,0-7.482,0V5.513H1.181A1.182,1.182,0,0,0,0,6.694V11.42A1.182,1.182,0,0,0,1.181,12.6H9.845a1.182,1.182,0,0,0,1.181-1.181V6.694A1.182,1.182,0,0,0,9.845,5.513Zm-2.56,0H3.741V3.741a1.772,1.772,0,1,1,3.544,0Z" transform="translate(339.974 167.301)"/></g><g transform="translate(178 262)"><path class="p" d="M8.22.563A7.658,7.658,0,1,0,15.878,8.22,7.659,7.659,0,0,0,8.22.563Zm0,3.4a1.3,1.3,0,1,1-1.3,1.3A1.3,1.3,0,0,1,8.22,3.959ZM9.95,11.8a.371.371,0,0,1-.371.371H6.862a.371.371,0,0,1-.371-.371v-.741a.371.371,0,0,1,.371-.371h.371V8.715H6.862a.371.371,0,0,1-.371-.371V7.6a.371.371,0,0,1,.371-.371H8.838a.371.371,0,0,1,.371.371v3.088h.371a.371.371,0,0,1,.371.371Z" transform="translate(-0.563 -0.563)"/></g></g></svg>