<svg xmlns="http://www.w3.org/2000/svg" viewBox="0 0 740.48 205.31"><defs><style>.cls-1{isolation:isolate;}.cls-2{fill:#00dc99;mix-blend-mode:multiply;}.cls-3{fill:#9d98ec;}.cls-4{fill:#312c6c;}.cls-5{fill:#04004d;}</style></defs><title>kwaba - logo</title><g class="cls-1"><g id="Layer_2" data-name="Layer 2"><g id="Layer_1-2" data-name="Layer 1"><path class="cls-2" d="M5.13,13.84A29.39,29.39,0,0,1,8,10.15a35.75,35.75,0,0,0-7.26,14A30.9,30.9,0,0,1,5.13,13.84Z"/><path class="cls-2" d="M169.38,19.17,119.71,68.75,85.27,103.14,21.21,39.19A37.16,37.16,0,0,1,9.34,8.76,30.74,30.74,0,0,1,30.87,0h130A11.49,11.49,0,0,1,169.38,19.17Z"/><path class="cls-3" d="M9.34,8.76c-.44.44-.88.88-1.28,1.33.4-.5.85-1,1.29-1.46C9.35,8.67,9.34,8.72,9.34,8.76Z"/><path class="cls-3" d="M168.45,186.13l-49.67-49.57-34-34L21.12,166.11A37.15,37.15,0,0,0,9.24,196.23c0,.41.45.58.53,1a30.05,30.05,0,0,0,20.17,8.08h130A11.5,11.5,0,0,0,168.45,186.13Z"/><path class="cls-4" d="M85.27,103.14,21.63,166.66A37.19,37.19,0,0,0,9.77,197.23,35.88,35.88,0,0,1,.13,175.45c-.06-.7-.1-1.42-.11-2.13,0-.25,0-.48,0-.72V30.86a30.17,30.17,0,0,1,.74-6.7A35.75,35.75,0,0,1,8,10.15a.34.34,0,0,1,.06-.06c.4-.45.84-.89,1.28-1.33A37.16,37.16,0,0,0,21.21,39.19Z"/><path class="cls-5" d="M301,165l-49.26-59.87V165h-23.5V50.11h23.5v53.44l43.86-53.44h28l-44,54.13L329.38,165Z"/><path class="cls-5" d="M464.62,78.83l-40,88.25h-7.65L392,117l-24.72,50.13h-7.66l-40-88.25h24.71l20.54,49.09,23.33-51H396l23.84,50,20-48Z"/><path class="cls-5" d="M543.46,113.82V165H521.87v-8.35c-6.09,6.44-15.14,10.44-26.28,10.44-18.8,0-29.76-11.14-29.76-25.76,0-15.67,12.7-25.07,32.55-25.07H520v-3.82c0-9.4-5.4-15.15-16-15.15-9.23,0-15.67,4.35-22.8,11.84L469,94.67c10.1-12,22.45-17.75,37.6-17.75C528.49,76.92,543.46,89.28,543.46,113.82Zm-23.5,19v-1H501.51c-7.66,0-12,3-12,8.7,0,5.92,5.05,9.4,12.36,9.4C511.78,149.85,520,142.88,520,132.79Z"/><path class="cls-5" d="M653.46,122c0,25.93-17.41,45.08-41.78,45.08-11.83,0-21.75-4.7-27.67-12.88V165H562.43V34.45h23.49V87.19c5.92-6.62,15-10.27,25.76-10.27C636.05,76.92,653.46,96.06,653.46,122Zm-23.85-.17c0-14.63-10.1-23.68-22.28-23.68-11,0-21.76,7.49-21.76,23.85,0,16.53,11,23.67,21.76,23.67C619.69,145.67,629.61,136.45,629.61,121.83Z"/><path class="cls-5" d="M740.48,113.82V165H718.89v-8.35c-6.09,6.44-15.14,10.44-26.28,10.44-18.8,0-29.76-11.14-29.76-25.76,0-15.67,12.7-25.07,32.55-25.07H717v-3.82c0-9.4-5.4-15.15-16-15.15-9.23,0-15.67,4.35-22.8,11.84L666,94.67c10.1-12,22.45-17.75,37.6-17.75C725.51,76.92,740.48,89.28,740.48,113.82Zm-23.5,19v-1H698.53c-7.66,0-12,3-12,8.7,0,5.92,5.05,9.4,12.36,9.4C708.8,149.85,717,142.88,717,132.79Z"/></g></g></g></svg>