<svg xmlns="http://www.w3.org/2000/svg" xmlns:xlink="http://www.w3.org/1999/xlink" width="412" height="429" viewBox="0 0 412 429"><defs><style>.a{fill:#fff;stroke:#465969;}.b{clip-path:url(#a);}.c{fill:#9d98ec;}.d{fill:#00dc99;mix-blend-mode:multiply;isolation:isolate;}.e{fill:#2a286a;}</style><clipPath id="a"><rect class="a" width="412" height="429" transform="translate(-638 144)"/></clipPath></defs><g class="b" transform="translate(638 -144)"><g transform="translate(-925.741 836.86) rotate(-90)"><path class="c" d="M1123.4,100.516l-229.43-228.1a365.819,365.819,0,0,1-86.017,54L364.663,125.038a142.564,142.564,0,0,0,118.9,63.711h600.339C1129.855,188.749,1154.108,134.552,1123.4,100.516Z" transform="translate(-340.985 770.852)"/><path class="d" d="M421.765,12.372l453.086,450.5a364.066,364.066,0,0,0,129.91-278.576h0c0-201.414-163.935-364.688-366.14-364.688H487.98A165.881,165.881,0,0,0,367.01-128.268,170.718,170.718,0,0,0,421.765,12.372Z" transform="translate(-321.868 180.394)"/><path class="e" d="M915.711,415.022,462.625-35.476a170.717,170.717,0,0,1-54.756-140.639A164.486,164.486,0,0,0,363.3-75.944c-.232,3.265-.452,6.542-.488,9.855-.025,1.109-.086,2.193-.086,3.289V589.344a140.9,140.9,0,0,0,23.677,78.3l443.29-198.625A365.866,365.866,0,0,0,915.711,415.022Z" transform="translate(-362.727 228.241)"/></g></g></svg>