<svg xmlns="http://www.w3.org/2000/svg" width="35.04" height="22.22" viewBox="0 0 35.04 22.22"><defs><style>.a{fill:#ffb655;}.b{fill:#d8143a;}</style></defs><g transform="translate(-10.96 -76.515)"><path class="a" d="M257.958,158.966a11.157,11.157,0,0,1,1.458,2.12,11.076,11.076,0,0,1,0,10.353,11.2,11.2,0,0,1-3.416,3.89,11.11,11.11,0,1,0,0-18.132A11.219,11.219,0,0,1,257.958,158.966Z" transform="translate(-227.52 -78.637)"/><path class="b" d="M117.906,161.089a11.076,11.076,0,1,0,1.284,5.177A11.039,11.039,0,0,0,117.906,161.089Z" transform="translate(-86.01 -78.64)"/></g></svg>