<svg xmlns="http://www.w3.org/2000/svg" xmlns:xlink="http://www.w3.org/1999/xlink" width="195.804" height="276.804" viewBox="0 0 195.804 276.804"><defs><style>.a{fill:#fff;stroke:#f1f0ff;}.b{fill:#9d98ec;opacity:0.339;}.c{fill:#2a286a;font-size:15px;font-family:Poppins-Regular, Poppins;}.d{fill:#adadad;font-size:10px;font-family:Poppins-Medium, Circular Std;}.e{fill:#ffb655;}.f{fill:#d8143a;}.g{clip-path:url(#a);}.h{fill:url(#b);}.i{fill:url(#c);}.j{fill:url(#d);}.k{stroke:none;}.l{fill:none;}</style><clipPath id="a"><rect class="a" width="142" height="196" rx="15" transform="translate(115 166.143)"/></clipPath><linearGradient id="b" x1="0.184" y1="0.187" x2="0.652" y2="0.714" gradientUnits="objectBoundingBox"><stop offset="0" stop-color="#b029ff"/><stop offset="0.829" stop-color="#691ec1"/><stop offset="1" stop-color="#9024e3"/></linearGradient><linearGradient id="c" y1="0.5" x2="1" y2="0.5" gradientUnits="objectBoundingBox"><stop offset="0" stop-color="#9024e3"/><stop offset="0.292" stop-color="#b84aff"/><stop offset="1" stop-color="#691ec1"/></linearGradient><linearGradient id="d" x1="0.201" y1="0.177" x2="0.799" y2="0.823" gradientUnits="objectBoundingBox"><stop offset="0.177" stop-color="#c263ff"/><stop offset="1" stop-color="#8629d5"/></linearGradient></defs><g transform="translate(-89.098 -138.098)"><rect class="b" width="122" height="203" rx="12" transform="translate(126 175)"/><g class="a" transform="translate(115 166)"><rect class="k" width="143" height="198" rx="15"/><rect class="l" x="0.5" y="0.5" width="142" height="197" rx="14.5"/></g><text class="c" transform="translate(132 198)"><tspan x="0" y="0">****2345</tspan></text><text class="d" transform="translate(205 333)"><tspan x="0" y="0">EXPIRES</tspan><tspan x="0" y="13">12/2022</tspan></text><g transform="translate(120 249.063)"><path class="e" d="M257.958,158.966a11.157,11.157,0,0,1,1.458,2.12,11.076,11.076,0,0,1,0,10.353,11.2,11.2,0,0,1-3.416,3.89,11.11,11.11,0,1,0,0-18.132A11.219,11.219,0,0,1,257.958,158.966Z" transform="translate(-227.52 -78.637)"/><path class="f" d="M117.906,161.089a11.076,11.076,0,1,0,1.284,5.177A11.039,11.039,0,0,0,117.906,161.089Z" transform="translate(-86.01 -78.64)"/></g><g class="g" transform="translate(0 1.857)"><g transform="translate(180.878 196.408)"><g transform="translate(7.053 16.335)"><path class="h" d="M439.148,107.211c-.063.151-.115.3-.175.452-.2.492-.384.985-.551,1.478-.077.227-.144.454-.214.681-.131.422-.254.844-.362,1.265-.062.243-.121.483-.175.725-.1.418-.177.836-.251,1.253-.041.229-.083.458-.117.687-.069.47-.119.935-.16,1.4-.015.169-.039.34-.049.508-.041.606-.06,1.209-.053,1.8,0,.025,0,.049,0,.073,0,.1.011.2.014.3q.024.758.1,1.5c.019.188.044.374.067.561s.04.392.07.585c.048.3.108.6.168.9.012.058.02.117.033.174.087.407.184.811.3,1.21.029.1.07.192.1.29.105.352.229.694.354,1.038.072.2.126.405.205.6.033.083.077.16.112.243.117.277.249.546.378.816.1.212.186.432.3.64.048.088.106.171.155.259.131.239.273.469.415.7.117.192.219.391.343.579s.268.4.408.589l5.947,8.226c-.273-.377-.511-.774-.752-1.168-.142-.232-.284-.462-.415-.7-.161-.294-.305-.6-.451-.9-.129-.27-.262-.539-.377-.815s-.215-.562-.318-.845c-.125-.343-.248-.686-.353-1.037-.149-.494-.287-.993-.4-1.5-.012-.057-.021-.116-.033-.173-.1-.488-.174-.984-.238-1.482-.025-.187-.05-.374-.068-.562q-.074-.744-.1-1.5c0-.1-.013-.2-.015-.3-.01-.62.007-1.247.049-1.877.011-.169.035-.34.05-.509.042-.465.091-.931.16-1.4.034-.23.077-.46.117-.689.073-.417.156-.834.251-1.252.055-.241.113-.483.175-.725.108-.42.231-.841.361-1.262.071-.229.138-.457.215-.685.166-.491.353-.982.55-1.471.06-.153.113-.306.177-.459q.4-.958.884-1.909c.08-.159.172-.316.256-.474.255-.483.518-.965.8-1.442.1-.174.213-.348.321-.52q.425-.685.893-1.361c.114-.164.224-.331.342-.494.2-.278.42-.551.63-.825.343-.449.691-.9,1.061-1.334.434-.514.872-1.026,1.343-1.526.263-.279.532-.548.8-.817q.744-.741,1.521-1.435c.1-.088.2-.172.3-.259q.681-.594,1.384-1.151c.089-.07.176-.144.266-.213q.785-.609,1.593-1.169c.121-.085.244-.166.365-.249.53-.359,1.064-.706,1.607-1.034l.124-.078c.6-.363,1.218-.7,1.836-1.025.119-.063.239-.126.358-.187q.984-.5,1.984-.941c.108-.048.215-.092.323-.138q1.153-.492,2.323-.9l.425-.144q.548-.181,1.1-.343c.155-.046.308-.092.463-.136.511-.143,1.022-.275,1.534-.393l.172-.036c.394-.087.789-.17,1.183-.243.157-.029.312-.051.468-.077.3-.05.591-.1.887-.142.181-.025.362-.044.543-.065.269-.033.538-.066.806-.092.191-.018.38-.03.572-.044.257-.02.514-.04.77-.052.2-.01.39-.014.585-.019.249-.008.5-.015.747-.015.2,0,.393,0,.589.007.244,0,.486.011.729.022.2.009.393.022.59.036.239.016.476.034.713.056.2.019.391.041.586.063q.352.042.7.092c.194.029.386.059.578.092.231.04.46.083.688.129.189.038.379.077.568.12.227.052.452.108.677.165.185.049.37.1.553.149.224.063.445.134.667.2.179.056.359.113.536.174.222.077.441.161.659.246.171.065.343.129.512.2.222.092.44.191.659.291.16.072.322.143.479.219.224.109.444.228.664.345.147.078.3.153.441.234.241.137.477.283.711.429.117.072.237.141.352.215.349.227.69.464,1.024.713a18.246,18.246,0,0,1,3.9,3.943l-5.947-8.227a18.263,18.263,0,0,0-3.9-3.943q-.5-.373-1.023-.712c-.117-.075-.238-.144-.356-.217-.235-.146-.469-.292-.709-.428-.144-.081-.292-.155-.438-.232-.221-.118-.441-.236-.666-.346-.159-.077-.321-.147-.482-.22-.217-.1-.434-.2-.655-.29-.17-.07-.343-.135-.514-.2-.219-.084-.437-.168-.659-.245-.177-.061-.357-.118-.536-.175-.22-.07-.441-.14-.664-.2-.185-.053-.371-.1-.558-.15-.224-.057-.448-.113-.674-.164q-.282-.064-.568-.12c-.229-.047-.458-.089-.689-.129-.191-.033-.384-.063-.578-.092q-.348-.051-.7-.092-.294-.036-.589-.064c-.236-.022-.473-.04-.709-.056-.2-.013-.4-.026-.593-.035-.242-.012-.484-.017-.727-.022-.2,0-.394-.008-.592-.008-.247,0-.493.008-.741.015-.2,0-.393.01-.591.019-.255.013-.509.033-.765.052-.192.015-.383.026-.576.045-.267.025-.534.058-.8.091-.183.022-.367.041-.55.066-.292.041-.585.091-.879.141-.158.027-.315.049-.474.077-.394.073-.789.156-1.184.244-.055.013-.111.022-.166.034l-.006,0c-.511.117-1.022.251-1.533.393-.155.043-.309.09-.464.136q-.548.162-1.1.342c-.093.032-.186.056-.279.088-.049.017-.1.039-.147.056q-1.168.4-2.323.9c-.056.024-.114.041-.17.065s-.1.05-.152.071q-1,.438-1.984.942c-.052.026-.1.047-.155.072-.068.036-.135.078-.2.114-.618.325-1.231.663-1.836,1.026l-.028.015c-.034.02-.065.044-.1.063-.542.328-1.076.675-1.6,1.033-.072.049-.147.091-.218.141-.051.034-.1.073-.148.108q-.807.562-1.592,1.169c-.028.021-.057.04-.085.061-.062.05-.123.1-.185.155q-.7.554-1.378,1.146c-.067.058-.138.111-.205.17-.033.03-.063.062-.1.092q-.776.691-1.518,1.433c-.044.044-.091.083-.135.127q-.337.34-.669.69-.562.6-1.089,1.208c-.09.1-.165.213-.254.318-.371.44-.718.886-1.061,1.333-.145.19-.31.374-.45.567-.063.086-.119.174-.181.262-.117.162-.227.327-.34.491q-.468.676-.9,1.364c-.107.172-.215.344-.318.517-.062.1-.131.205-.191.309-.219.377-.415.76-.616,1.14-.082.157-.172.31-.252.467Q439.553,106.25,439.148,107.211Z" transform="translate(-416.561 -76.754)"/><path class="i" d="M515.587,137.556c.54-.83,1.051-1.665,1.544-2.5.068-.116.146-.229.213-.345.117-.2.226-.406.341-.608.133-.235.265-.469.393-.7.237-.43.465-.862.689-1.294.107-.207.218-.413.322-.62q.458-.9.882-1.814c.015-.034.032-.066.047-.1.3-.64.576-1.282.846-1.924.084-.2.162-.4.245-.6.181-.445.36-.891.528-1.335.09-.238.176-.475.263-.713q.227-.624.439-1.249c.081-.242.162-.482.241-.724.14-.434.271-.869.4-1.3.063-.214.13-.429.19-.643q.244-.862.456-1.723c.017-.071.038-.143.055-.213.156-.644.3-1.288.427-1.93.04-.2.072-.389.109-.583.086-.451.168-.9.242-1.351.038-.234.071-.468.106-.7q.092-.624.168-1.245.045-.357.083-.71c.046-.427.083-.853.117-1.279.017-.213.037-.427.052-.64.036-.541.06-1.08.077-1.617,0-.092.01-.184.012-.275q.022-.869.011-1.732c0-.034,0-.066,0-.1-.014-.9-.06-1.794-.129-2.682-.017-.212-.037-.423-.056-.635-.076-.827-.171-1.649-.3-2.463-.009-.061-.013-.125-.022-.186,0-.02-.008-.039-.011-.058q-.172-1.079-.4-2.138c-.042-.2-.092-.386-.138-.58-.118-.512-.242-1.022-.38-1.528-.025-.09-.043-.183-.068-.273-.053-.19-.119-.376-.175-.566-.1-.35-.21-.7-.325-1.044-.094-.287-.2-.573-.3-.857-.122-.341-.247-.681-.377-1.016-.051-.128-.092-.26-.144-.387-.067-.167-.146-.331-.215-.5-.119-.281-.239-.562-.364-.84-.136-.3-.275-.6-.419-.895-.133-.275-.266-.549-.406-.82-.06-.117-.113-.237-.174-.354-.1-.184-.206-.365-.307-.548-.133-.242-.266-.483-.405-.722-.176-.3-.361-.6-.546-.9-.143-.229-.283-.46-.432-.687-.048-.073-.091-.15-.14-.223q-.4-.6-.817-1.181l-5.947-8.226c.333.461.649.93.959,1.4.147.226.287.455.429.684.186.3.371.6.549.907.138.237.269.476.4.716.164.3.327.6.483.905.14.271.273.545.406.819.143.3.283.594.418.895q.187.418.364.84.186.44.36.886c.131.336.256.676.376,1.015.1.285.2.571.3.858.114.345.22.692.324,1.041.083.28.167.56.245.843.138.5.263,1.014.38,1.526.045.194.1.385.138.58q.227,1.059.4,2.138c.013.081.021.164.034.246.124.813.22,1.637.3,2.464.02.211.04.421.057.633.068.888.115,1.781.129,2.682q.015.911-.006,1.829c0,.1-.01.194-.013.291q-.025.8-.076,1.6c-.015.216-.035.432-.052.648-.034.423-.071.846-.116,1.27-.026.239-.055.478-.083.717q-.076.618-.167,1.237c-.036.237-.069.473-.108.709-.073.447-.155.9-.24,1.343-.038.2-.071.392-.111.588q-.195.964-.427,1.931c-.016.066-.036.133-.051.2q-.214.866-.459,1.736c-.06.213-.127.427-.19.64-.128.436-.26.872-.4,1.307-.077.241-.159.481-.24.722q-.211.626-.439,1.249c-.086.238-.172.476-.263.715-.168.444-.345.887-.525,1.33-.083.2-.162.406-.248.609q-.4.961-.845,1.921c-.017.037-.035.072-.052.108q-.422.906-.878,1.807c-.1.206-.215.412-.322.618-.225.432-.453.864-.689,1.295-.129.236-.262.471-.394.705-.18.318-.366.634-.552.95-.494.84-1.005,1.676-1.545,2.506-.033.051-.063.1-.1.153-.571.872-1.175,1.736-1.8,2.594q-.284.391-.574.78-.48.645-.98,1.285c-.221.281-.442.564-.669.844-.349.433-.707.863-1.069,1.291-.219.259-.435.518-.659.776-.644.74-1.3,1.476-1.986,2.2-.588.624-1.191,1.23-1.8,1.831q-.346.342-.7.679-.673.651-1.361,1.28c-.224.205-.446.412-.672.614q-.906.811-1.833,1.59c-.067.056-.133.116-.2.171q-1.031.859-2.088,1.673c-.205.159-.412.312-.617.468q-.771.584-1.553,1.147c-.236.169-.472.338-.709.5q-.805.563-1.621,1.1c-.2.133-.4.269-.6.4q-1.106.716-2.226,1.391c-.161.1-.325.187-.486.282q-.9.533-1.821,1.042c-.268.148-.538.29-.807.434q-.752.4-1.511.79-.511.259-1.024.507-.709.346-1.423.675-.516.238-1.033.468c-.439.194-.879.379-1.319.564s-.9.372-1.346.55c-.424.167-.849.329-1.275.487-.452.168-.9.334-1.357.492-.369.129-.738.252-1.108.373q-1.1.364-2.2.688c-.31.091-.62.186-.93.272-1.025.286-2.052.554-3.078.789-.106.024-.212.043-.318.066-.8.178-1.6.346-2.4.493-.314.057-.628.1-.941.155-.592.1-1.185.2-1.775.283-.364.052-.726.088-1.09.133-.539.065-1.078.133-1.615.183-.385.037-.77.06-1.154.089-.513.039-1.026.078-1.536.1-.394.019-.787.027-1.179.038-.5.015-1,.029-1.493.03-.4,0-.793-.008-1.189-.015-.486-.01-.973-.021-1.456-.043-.4-.018-.792-.045-1.188-.071-.477-.032-.954-.068-1.427-.113-.394-.038-.787-.081-1.178-.128q-.7-.083-1.4-.185-.583-.085-1.161-.184c-.463-.078-.921-.165-1.379-.257-.381-.076-.761-.156-1.139-.242-.455-.1-.905-.215-1.355-.331-.371-.1-.744-.192-1.111-.3-.449-.128-.892-.266-1.333-.407-.361-.115-.721-.228-1.077-.352-.444-.154-.881-.322-1.318-.489-.345-.133-.691-.261-1.032-.4-.442-.182-.876-.381-1.31-.579-.325-.148-.653-.289-.973-.445-.45-.219-.889-.455-1.329-.689-.293-.156-.591-.3-.881-.468-.484-.273-.956-.568-1.427-.861-.235-.145-.475-.28-.706-.431q-1.048-.681-2.054-1.428a36.614,36.614,0,0,1-7.822-7.907l5.946,8.226a36.623,36.623,0,0,0,7.823,7.908q1,.749,2.053,1.427c.232.151.471.286.706.432.473.293.944.587,1.427.861.289.162.587.311.882.467.44.235.88.472,1.328.689.321.157.648.3.973.446.435.2.868.4,1.31.579.341.141.687.269,1.032.4.438.168.874.336,1.318.489.357.124.717.237,1.077.352.443.141.886.28,1.333.407.369.105.74.2,1.111.3.45.117.9.229,1.356.332.377.085.757.164,1.138.241q.687.138,1.381.258.577.1,1.157.184.7.1,1.408.185c.39.046.781.089,1.174.127.474.046.951.081,1.429.114.4.027.79.053,1.187.07.484.022.972.034,1.459.043.394.007.789.017,1.184.015.5,0,1-.015,1.5-.03.39-.011.78-.019,1.172-.038.514-.026,1.03-.065,1.545-.1.382-.029.763-.053,1.146-.088.539-.052,1.079-.119,1.62-.185.362-.044.723-.08,1.086-.131.591-.083,1.183-.184,1.775-.284.314-.052.627-.1.941-.155.813-.15,1.628-.319,2.443-.5.088-.02.176-.034.264-.054l.01,0c1.027-.235,2.054-.5,3.08-.79.31-.086.619-.181.928-.272q1.1-.325,2.2-.687c.187-.062.375-.112.562-.175s.366-.136.55-.2c.452-.158.9-.324,1.352-.491.427-.159.853-.32,1.278-.487.45-.178.9-.364,1.345-.551.258-.108.516-.205.773-.315.182-.079.364-.167.546-.248.346-.153.689-.31,1.033-.469q.713-.328,1.423-.674c.343-.167.684-.336,1.024-.508.188-.1.379-.183.568-.281.317-.164.63-.34.946-.508.268-.144.537-.285.8-.433.613-.339,1.222-.689,1.83-1.047.158-.094.319-.182.477-.277l.088-.051c.718-.432,1.429-.881,2.138-1.34.2-.132.4-.269.607-.4.368-.244.738-.483,1.1-.735.171-.118.339-.243.51-.363.239-.167.477-.338.715-.508q.78-.56,1.547-1.143c.206-.157.414-.31.619-.469.087-.068.176-.132.264-.2q.921-.719,1.826-1.474c.067-.055.133-.115.2-.17.51-.428,1.017-.86,1.518-1.3.106-.094.209-.193.315-.288.226-.2.448-.409.672-.614q.688-.63,1.362-1.28c.233-.225.465-.45.694-.678.153-.151.309-.3.46-.448q.676-.682,1.338-1.384c.685-.725,1.342-1.46,1.986-2.2.064-.073.135-.146.2-.22.159-.183.305-.37.461-.556.362-.428.72-.857,1.069-1.289.227-.282.449-.565.67-.848q.5-.637.978-1.28c.118-.159.245-.315.362-.475.074-.1.14-.207.214-.309.621-.859,1.224-1.722,1.8-2.593C515.524,137.658,515.554,137.607,515.587,137.556Z" transform="translate(-416.367 -76.667)"/></g><path class="j" d="M426.577,83.027C448.692,59.576,483.441,53.12,504.2,68.605s19.66,47.043-2.455,70.494-56.871,29.9-77.624,14.422S404.469,106.471,426.577,83.027ZM482.9,125.039c11.032-11.7,11.579-27.429,1.23-35.149s-27.678-4.505-38.71,7.192S433.847,124.5,444.2,132.229s27.672,4.5,38.7-7.19" transform="translate(-409.247 -60.177)"/></g></g></g></svg>