<svg xmlns="http://www.w3.org/2000/svg" width="35.728" height="30.472" viewBox="0 0 35.728 30.472"><defs><style>.a{fill:#ff507d;}.b{fill:#ff6991;}.c{fill:#d23c69;}.d{fill:#ffdc64;}.e{fill:#ffc850;}</style></defs><g transform="translate(0 -37.658)"><path class="a" d="M448,243.009h3.19a1.276,1.276,0,0,0,1.276-1.276V237.9a1.276,1.276,0,0,0-1.276-1.276H448Z" transform="translate(-416.738 -185.087)"/><path class="b" d="M21.692,114.588h-9.57A12.157,12.157,0,0,1,0,102.466H0A12.157,12.157,0,0,1,12.122,90.344h9.57a12.157,12.157,0,0,1,12.122,12.122h0A12.157,12.157,0,0,1,21.692,114.588Z" transform="translate(0 -49.009)"/><path class="a" d="M310.857,38.172v5.077a1.276,1.276,0,0,0,1.276,1.276h1.823a1.272,1.272,0,0,0,1.268-1.437,6.593,6.593,0,0,0-3.7-5.4A.508.508,0,0,0,310.857,38.172Z" transform="translate(-289.165)"/><g transform="translate(9.57 43.249)"><path class="c" d="M370.959,211.753a.637.637,0,0,1-.6-.415,1.393,1.393,0,0,0-2.574,0,.638.638,0,1,1-1.195-.446,2.667,2.667,0,0,1,4.964,0,.638.638,0,0,1-.6.861Z" transform="translate(-350.544 -202.821)"/><path class="c" d="M146.713,119.048h-8.932a.638.638,0,0,1-.638-.638h0a.638.638,0,0,1,.638-.638h8.932a.638.638,0,0,1,.638.638h0A.638.638,0,0,1,146.713,119.048Z" transform="translate(-137.143 -117.772)"/></g><path class="d" d="M162.1,51.01a3.828,3.828,0,1,0-5.7,0Z" transform="translate(-144.583 -6.485)"/><path class="e" d="M164.716,66.313a2.47,2.47,0,0,0,.024-1.637,2.55,2.55,0,0,0-4.976.791,2.451,2.451,0,0,0,.149.839.32.32,0,0,1-.294.437h-.9a3.84,3.84,0,0,0,.751,1.276h5.695a3.842,3.842,0,0,0,.751-1.276h-.9A.316.316,0,0,1,164.716,66.313Z" transform="translate(-147.642 -23.493)"/><path class="a" d="M30.746,122.655a12,12,0,0,1-4.588.913H24.772a3.135,3.135,0,0,0-3.133-3.19h0a3.137,3.137,0,0,0-3.137,3.137v.053H16.588A12.157,12.157,0,0,1,4.466,111.446h0a12.053,12.053,0,0,1,3.068-8.019A12.161,12.161,0,0,0,0,114.636H0a25.873,25.873,0,0,0,4.708,14.137,1.269,1.269,0,0,0,1.041.537H8.294a1.276,1.276,0,0,0,1.276-1.276V126.48a12.036,12.036,0,0,0,2.552.278H18.5v1.276a1.276,1.276,0,0,0,1.276,1.276h2.8a1.276,1.276,0,0,0,1.248-1.009l.388-1.812A12.169,12.169,0,0,0,30.746,122.655Z" transform="translate(0 -61.179)"/></g></svg>