<svg xmlns="http://www.w3.org/2000/svg" xmlns:xlink="http://www.w3.org/1999/xlink" width="160" height="139" viewBox="0 0 160 139"><defs><style>.a{fill:url(#a);}.b{opacity:0.3;clip-path:url(#b);}.c{fill:url(#c);}</style><linearGradient id="a" y1="0.528" x2="1.403" y2="0.53" gradientUnits="objectBoundingBox"><stop offset="0" stop-color="#00dc99"/><stop offset="1" stop-color="#006e4d"/></linearGradient><clipPath id="b"><rect class="a" width="160" height="139" rx="20" transform="translate(1526 -309)"/></clipPath><linearGradient id="c" x1="0.5" x2="0.5" y2="1" gradientUnits="objectBoundingBox"><stop offset="0" stop-color="#9d98ec"/><stop offset="1" stop-color="#00dc99"/></linearGradient></defs><g class="b" transform="translate(-1526 309)"><path class="c" d="M426-72.3l-29.445-29.209h0l-.231-.226h0a58.353,58.353,0,0,0,16.559-40.724A58.9,58.9,0,0,0,354.077-201.1H331.813a29.737,29.737,0,0,0-11.14,2.2,29.732,29.732,0,0,0-10.293,6.922l-.176.182c-.507.54-.909,1.156-1.377,1.724a29.568,29.568,0,0,0-6.647,16.3c-.039.573-.072,1.156-.077,2.285v95.027a25.78,25.78,0,0,0,1.553,8.712,25.832,25.832,0,0,0,2.83,5.766l.2.292a25.972,25.972,0,0,0,2.8,3.387,26.231,26.231,0,0,0,18.905,8.073H416.2a13.239,13.239,0,0,0,13.222-13.134A13.194,13.194,0,0,0,426-72.3ZM331.818-190.081h22.237a47.877,47.877,0,0,1,47.817,47.635,47.37,47.37,0,0,1-13.349,32.97h0L350.779-146.9l-24.732-24.528-.149-.138a18.876,18.876,0,0,1-2.787-3.221c-.2-.292-.342-.611-.529-.914a19.238,19.238,0,0,1-1.47-2.787c-.171-.413-.281-.837-.419-1.261a18.837,18.837,0,0,1-.738-2.781c-.083-.474-.121-.947-.171-1.426-.055-.562-.044-1.129-.05-1.7A18.855,18.855,0,0,1,331.818-190.081ZM313.117-76.44V-169.9c.121.2.281.385.413.584.38.589.793,1.145,1.217,1.707.342.457.672.92,1.035,1.355a29.035,29.035,0,0,0,2.539,2.665l61.617,61.1.028.028h0c-.088.055-.182.088-.264.143a48.644,48.644,0,0,1-5.749,3.111c-.127.055-.237.138-.363.193l-8.806,3.938L313.706-72.244A15.12,15.12,0,0,1,313.117-76.44Zm103.029,15.2H328.4a15.334,15.334,0,0,1-7.693-2.06l49.739-22.242,7.633-3.409.1-.055a58.864,58.864,0,0,0,6.322-3.37c.567-.347,1.123-.7,1.68-1.068.578-.38,1.19-.71,1.751-1.107v-.006l.149.149,29.825,29.572a2.192,2.192,0,0,1,.5,1.4A2.462,2.462,0,0,1,416.146-61.236Z" transform="translate(1752.762 155.31) rotate(-90)"/></g></svg>