<svg xmlns="http://www.w3.org/2000/svg" width="60.119" height="73.601" viewBox="0 0 60.119 73.601"><defs><style>.a{fill:#9d98ec;}.b{fill:#00dc99;mix-blend-mode:multiply;isolation:isolate;}.c{fill:#2a286a;}</style></defs><g transform="translate(0 0)"><path class="a" d="M421.959-110.093l-17.326-17.5a27.566,27.566,0,0,1-6.5,4.142l-33.475,15.234a10.724,10.724,0,0,0,8.979,4.887h45.335A4.062,4.062,0,0,0,421.959-110.093Z" transform="translate(-362.875 176.927)"/><path class="b" d="M370.549-165.609l34.215,34.553a28.1,28.1,0,0,0,9.81-21.367h0a27.812,27.812,0,0,0-27.649-27.971H375.549a12.437,12.437,0,0,0-9.135,4A13.2,13.2,0,0,0,370.549-165.609Z" transform="translate(-363.005 180.394)"/><path class="c" d="M404.486-130.775l-34.215-34.553a13.2,13.2,0,0,1-4.135-10.787,12.709,12.709,0,0,0-3.366,7.683c-.017.25-.034.5-.037.756,0,.085-.007.168-.007.252V-117.4a10.928,10.928,0,0,0,1.788,6.006l33.475-15.235A27.569,27.569,0,0,0,404.486-130.775Z" transform="translate(-362.727 180.113)"/></g></svg>