<svg xmlns="http://www.w3.org/2000/svg" width="129.786" height="30.601" viewBox="0 0 129.786 30.601"><defs><style>.a{fill:#9d98ec;}.b{fill:#00dc99;mix-blend-mode:multiply;isolation:isolate;}.c{fill:#2a286a;}.d{fill:#04004d;}</style></defs><path class="a" d="M389.381-120.315l-7.474-7.274a11.958,11.958,0,0,1-2.8,1.722l-14.441,6.334a4.671,4.671,0,0,0,3.874,2.032h19.557A1.682,1.682,0,0,0,389.381-120.315Z" transform="translate(-363.892 148.102)"/><path class="b" d="M368.17-174.247l14.76,14.366a11.513,11.513,0,0,0,4.232-8.884h0a11.782,11.782,0,0,0-11.928-11.63h-4.907a5.459,5.459,0,0,0-3.941,1.662A5.384,5.384,0,0,0,368.17-174.247Z" transform="translate(-364.916 180.394)"/><path class="c" d="M380.742-157.264l-14.76-14.366a5.384,5.384,0,0,1-1.784-4.485,5.2,5.2,0,0,0-1.452,3.194c-.008.1-.015.209-.016.314,0,.035,0,.07,0,.1v20.8a4.426,4.426,0,0,0,.771,2.5l14.441-6.334A11.958,11.958,0,0,0,380.742-157.264Z" transform="translate(-362.727 177.777)"/><g transform="translate(34.836 7.381)"><path class="d" d="M285.845-62.52l-3.052-5.845h-1.581v5.845H278.16V-77.7h6.082a4.936,4.936,0,0,1,3.6,1.327,4.47,4.47,0,0,1,1.361,3.34,4.318,4.318,0,0,1-.889,2.73,4.5,4.5,0,0,1-2.426,1.574l3.338,6.209Zm-4.633-8.393h2.46a2.6,2.6,0,0,0,1.79-.578,1.941,1.941,0,0,0,.648-1.52,1.966,1.966,0,0,0-.648-1.541,2.594,2.594,0,0,0-1.79-.578h-2.46Z" transform="translate(-278.16 78.021)"/><path class="d" d="M317.3-59.438l2.438.707a4.539,4.539,0,0,1-1.724,2.4,5.252,5.252,0,0,1-3.195.942,5.551,5.551,0,0,1-3.953-1.531,5.364,5.364,0,0,1-1.625-4.1,5.355,5.355,0,0,1,1.581-3.993,5.154,5.154,0,0,1,3.734-1.552,5.216,5.216,0,0,1,3.919,1.456,5.5,5.5,0,0,1,1.416,4c0,.115,0,.243-.011.386s-.011.257-.011.342l-.022.15h-7.73a2.313,2.313,0,0,0,.835,1.713,2.786,2.786,0,0,0,1.888.685A2.367,2.367,0,0,0,317.3-59.438Zm-5.116-2.741h4.831a2.163,2.163,0,0,0-.648-1.477,2.406,2.406,0,0,0-1.767-.6,2.35,2.35,0,0,0-1.713.642A2.139,2.139,0,0,0,312.186-62.178Z" transform="translate(-296.859 71.213)"/><path class="d" d="M344.681-61.7v6.059H341.76V-66.179h2.833v1.306a2.985,2.985,0,0,1,1.317-1.177,4.152,4.152,0,0,1,1.8-.407,3.62,3.62,0,0,1,2.91,1.167,4.465,4.465,0,0,1,1,3.008v6.637H348.7v-6.144a2.258,2.258,0,0,0-.494-1.52,1.869,1.869,0,0,0-1.5-.578,1.866,1.866,0,0,0-1.471.621A2.271,2.271,0,0,0,344.681-61.7Z" transform="translate(-316.42 71.146)"/><path class="d" d="M375.658-73.843V-70.7h2.174v2.527h-2.174v4.41a1.224,1.224,0,0,0,.307.942,1.411,1.411,0,0,0,.967.279,3.553,3.553,0,0,0,.9-.086v2.355a4.463,4.463,0,0,1-1.647.257,3.506,3.506,0,0,1-2.5-.867,3.116,3.116,0,0,1-.922-2.387v-4.9H370.8V-70.7h.549a1.61,1.61,0,0,0,1.24-.46,1.7,1.7,0,0,0,.429-1.21v-1.477Z" transform="translate(-333.892 75.663)"/><path class="d" d="M395.054-77.7h5.6a5.017,5.017,0,0,1,3.48,1.135,3.785,3.785,0,0,1,1.263,2.954,3.422,3.422,0,0,1-.637,2.045,3.171,3.171,0,0,1-1.625,1.209A3.477,3.477,0,0,1,405.1-69.1a3.636,3.636,0,0,1,.779,2.344,3.922,3.922,0,0,1-1.318,3.051,5.014,5.014,0,0,1-3.491,1.188h-6.017Zm2.986,6.273h2.152a2.4,2.4,0,0,0,1.625-.514,1.746,1.746,0,0,0,.593-1.392,1.731,1.731,0,0,0-.582-1.381,2.461,2.461,0,0,0-1.658-.5h-2.13Zm0,6.444h2.46a2.6,2.6,0,0,0,1.724-.524,1.784,1.784,0,0,0,.626-1.445,1.914,1.914,0,0,0-.6-1.477,2.42,2.42,0,0,0-1.7-.557h-2.5Z" transform="translate(-348.479 78.021)"/><path class="d" d="M426.414-58.581a2.774,2.774,0,0,1,.9-2.163,4.339,4.339,0,0,1,2.328-1.028l2.657-.385q.812-.107.812-.75a1.217,1.217,0,0,0-.472-.985,2.089,2.089,0,0,0-1.351-.385,2.078,2.078,0,0,0-1.46.493,1.824,1.824,0,0,0-.6,1.22l-2.591-.535a3.68,3.68,0,0,1,1.384-2.419,4.837,4.837,0,0,1,3.25-1.049,4.9,4.9,0,0,1,3.557,1.124,3.868,3.868,0,0,1,1.142,2.879v5.181a9.469,9.469,0,0,0,.132,1.67h-2.679a5.78,5.78,0,0,1-.11-1.263,3.547,3.547,0,0,1-3.184,1.563,3.81,3.81,0,0,1-2.69-.942A2.935,2.935,0,0,1,426.414-58.581Zm4.326,1.049a2.541,2.541,0,0,0,1.7-.568,2.331,2.331,0,0,0,.669-1.873v-.471l-2.437.364q-1.34.193-1.34,1.327a1.145,1.145,0,0,0,.373.867A1.439,1.439,0,0,0,430.74-57.532Z" transform="translate(-367.345 71.213)"/><path class="d" d="M460.693-61.7v6.059h-2.921V-66.179H460.6v1.306a2.986,2.986,0,0,1,1.318-1.177,4.151,4.151,0,0,1,1.8-.407,3.619,3.619,0,0,1,2.909,1.167,4.463,4.463,0,0,1,1,3.008v6.637h-2.921v-6.144a2.258,2.258,0,0,0-.494-1.52,1.869,1.869,0,0,0-1.5-.578,1.865,1.865,0,0,0-1.471.621A2.271,2.271,0,0,0,460.693-61.7Z" transform="translate(-386.209 71.146)"/><path class="d" d="M500.433-73.56l-4.326,4.432,4.414,6.1h-3.579l-2.855-4.025L492.88-65.81v2.783h-2.921v-15.5h2.921v8.885l3.733-3.918Z" transform="translate(-405.571 78.527)"/></g></svg>