<svg xmlns="http://www.w3.org/2000/svg" xmlns:xlink="http://www.w3.org/1999/xlink" width="432.804" height="283.881" viewBox="0 0 432.804 283.881"><defs><style>.a{fill:rgba(0,0,0,0.35);opacity:0.339;}.b{fill:url(#a);}.c,.d,.f,.g,.h,.j,.n,.o,.q{fill:#fff;}.c,.q{font-size:12px;}.c{font-family:Poppins-Regular, Poppins;}.d{font-size:25px;font-family:Helvetica-Bold, Helvetica;}.d,.n{font-weight:700;}.e{font-family:Poppins-Medium, Circular Std;}.g{font-size:10px;}.g,.i,.j{font-family:Poppins-Medium, Circular Std;}.h,.j{font-size:16px;}.h{font-family:Helvetica;}.k{opacity:0.532;}.l{fill:url(#b);}.m,.s{fill:none;}.m{stroke:#2a286a;stroke-width:10.5px;opacity:0.142;}.n{font-size:18px;font-family:Poppins-Bold, Poppins;}.o{font-size:9px;}.o,.q{font-family:Poppins-Medium, Poppins Medium;font-weight:500;}.p{fill:#00dc99;}.r{stroke:none;}</style><linearGradient id="a" x1="0.5" x2="0.5" y2="1" gradientUnits="objectBoundingBox"><stop offset="0" stop-color="#9d98ec"/><stop offset="1" stop-color="#2a286a"/></linearGradient><radialGradient id="b" cx="0.266" cy="0.187" r="0.5" gradientUnits="objectBoundingBox"><stop offset="0" stop-color="#6e6bc4"/><stop offset="1" stop-color="#2a286a"/></radialGradient></defs><g transform="translate(8.902 -105.098)"><rect class="a" width="359" height="152" rx="12" transform="translate(28 142)"/><path class="b" d="M15,0H365a15,15,0,0,1,15,15V127a15,15,0,0,1-15,15H15A15,15,0,0,1,0,127V15A15,15,0,0,1,15,0Z" transform="translate(16 142)"/><g transform="translate(0 -4)"><text class="c" transform="translate(46 176)"><tspan x="0" y="0">Monthly Repayment</tspan></text><text class="d" transform="translate(46 205)"><tspan x="0" y="0">₦</tspan><tspan class="e" y="0">275,000.00</tspan></text></g><path class="f" d="M0,0H380a0,0,0,0,1,0,0V51a15,15,0,0,1-15,15H15A15,15,0,0,1,0,51V0A0,0,0,0,1,0,0Z" transform="translate(16 218)"/><text class="g" transform="translate(46 241)"><tspan x="0" y="0">Amount Borrowed</tspan></text><text class="g" transform="translate(326 185)"><tspan x="0" y="0">Due date</tspan></text><text class="h" transform="translate(46 260)"><tspan x="0" y="0">₦</tspan><tspan class="i" y="0">1,000,000.00</tspan></text><text class="j" transform="translate(280 204)"><tspan x="0" y="0">Feb 16, 2021</tspan></text><g transform="translate(10 3)"><ellipse class="k" cx="43" cy="43.5" rx="43" ry="43.5" transform="translate(153.077 248)"/><circle class="l" cx="48.72" cy="48.72" r="48.72" transform="translate(147 235)"/><g class="m" transform="translate(147 235)"><circle class="r" cx="48.72" cy="48.72" r="48.72"/><circle class="s" cx="48.72" cy="48.72" r="43.47"/></g><g transform="translate(173.415 267.075)"><text class="n" transform="translate(8.662 18.925)"><tspan x="0" y="0">0%</tspan></text><text class="o" transform="translate(-0.338 28.925)"><tspan x="0" y="0">achieved</tspan></text></g></g><g transform="translate(132 -99)"><rect class="p" width="85" height="30" rx="15" transform="translate(150 335)"/><text class="q" transform="translate(167 355)"><tspan x="0" y="0">Pay now</tspan></text></g></g></svg>