<svg xmlns="http://www.w3.org/2000/svg" width="86" height="86" viewBox="0 0 86 86"><defs><style>.a{fill:#d1f9ec;}.b{fill:#ffe700;}.c{fill:#e5cf01;}.d{fill:#2a286a;}.e{fill:#00dc99;}.f{fill:#9d98ec;}.g{fill:#8f89e6;}</style></defs><g transform="translate(0.093 0.093)"><g transform="translate(-0.093 -0.093)"><circle class="a" cx="43" cy="43" r="43"/></g><g transform="translate(24.969 31.778)"><path class="b" d="M184.736,220.352h-36V206.936a17.621,17.621,0,0,1,17.621-17.621h.755a17.621,17.621,0,0,1,17.621,17.621v13.416Z" transform="translate(-148.739 -189.315)"/></g><g transform="translate(42.988 31.778)"><path class="c" d="M274.1,206.937a17.621,17.621,0,0,0-17.621-17.621h-.357v31.037H274.1V206.937Z" transform="translate(-256.121 -189.316)"/></g><g transform="translate(33.264 11.032)"><circle class="b" cx="9.704" cy="9.704" r="9.704"/></g><g transform="translate(42.988 11.032)"><path class="c" d="M265.8,75.385a9.7,9.7,0,0,0-9.684-9.7V85.088a9.7,9.7,0,0,0,9.684-9.7Z" transform="translate(-256.121 -65.681)"/></g><g transform="translate(8.816 28.669)"><g transform="translate(46.79)"><g transform="translate(0 12.399)"><path class="d" d="M352.827,259.2H331.313v-3.983a10.531,10.531,0,0,1,10.532-10.532h.451a10.532,10.532,0,0,1,10.531,10.532Z" transform="translate(-331.313 -244.682)"/></g><g transform="translate(4.957)"><circle class="d" cx="5.8" cy="5.8" r="5.8"/></g></g><g transform="translate(0 12.399)"><path class="d" d="M73.987,259.2H52.473v-3.983A10.531,10.531,0,0,1,63,244.682h.451a10.532,10.532,0,0,1,10.531,10.532Z" transform="translate(-52.473 -244.682)"/></g><g transform="translate(4.957)"><circle class="d" cx="5.8" cy="5.8" r="5.8"/></g></g><g transform="translate(16.138 39.884)"><g transform="translate(0 1.315)"><g transform="translate(0 12.399)"><path class="e" d="M117.622,333.865H96.108v-3.983a10.532,10.532,0,0,1,10.532-10.532h.451a10.532,10.532,0,0,1,10.532,10.532v3.983Z" transform="translate(-96.108 -319.351)"/></g><g transform="translate(4.957)"><circle class="e" cx="5.8" cy="5.8" r="5.8"/></g></g><g transform="translate(32.146)"><g transform="translate(0 12.399)"><path class="e" d="M309.193,326.031H287.679v-3.983a10.531,10.531,0,0,1,10.531-10.532h.451a10.532,10.532,0,0,1,10.532,10.532v3.983Z" transform="translate(-287.679 -311.517)"/></g><g transform="translate(4.957)"><circle class="e" cx="5.8" cy="5.8" r="5.8"/></g></g></g><g transform="translate(32.211 44.577)"><g transform="translate(0 12.399)"><path class="f" d="M213.407,354H191.893v-3.983a10.532,10.532,0,0,1,10.532-10.532h.451a10.532,10.532,0,0,1,10.532,10.532Z" transform="translate(-191.893 -339.483)"/></g><g transform="translate(10.777 12.399)"><path class="g" d="M266.857,350.015a10.532,10.532,0,0,0-10.531-10.532h-.206V354h10.737v-3.983Z" transform="translate(-256.12 -339.483)"/></g><g transform="translate(4.957)"><circle class="f" cx="5.8" cy="5.8" r="5.8"/></g><g transform="translate(10.777 0)"><path class="g" d="M261.9,271.391a5.8,5.8,0,0,0-5.78-5.8v11.6A5.8,5.8,0,0,0,261.9,271.391Z" transform="translate(-256.12 -265.591)"/></g></g></g></svg>