<svg width="29" height="23" viewBox="0 0 29 23" fill="none" xmlns="http://www.w3.org/2000/svg">
<path d="M28.286 10.6382L14.841 0.201202C14.6843 0.0711769 14.4871 0 14.2835 0C14.0799 0 13.8827 0.0711769 13.726 0.201202L0.276982 10.6392C0.104575 10.8055 0.00506013 11.0333 0.000187684 11.2728C-0.00468476 11.5123 0.0854813 11.744 0.250981 11.9172C0.397225 12.0684 0.591383 12.1642 0.800359 12.1883C1.00933 12.2123 1.22019 12.1632 1.39698 12.0492L3.81699 10.1552V22.0862C3.82036 22.3274 3.9178 22.5577 4.08854 22.7281C4.25927 22.8984 4.48981 22.9954 4.73099 22.9982H23.867C24.1081 22.9946 24.3382 22.8968 24.5082 22.7259C24.6782 22.5549 24.7747 22.3243 24.777 22.0832V10.1832L27.202 12.0832C27.4006 12.2304 27.6491 12.2936 27.8939 12.2594C28.1387 12.2252 28.3603 12.0962 28.511 11.9002C28.6238 11.6959 28.663 11.4591 28.6221 11.2293C28.5811 10.9996 28.4625 10.7909 28.286 10.6382V10.6382ZM22.922 8.7692V21.2022H5.61597V8.7692L14.271 2.0392L22.922 8.7692Z" fill="#BFBFBF"/>
<path d="M13.0934 5.24219L9.3334 8.55618C9.14825 8.72694 8.99964 8.93345 8.89651 9.16324C8.79339 9.39303 8.73789 9.64136 8.7334 9.89319L8.75443 17.4142C8.76065 17.8836 8.95001 18.332 9.28217 18.6638C9.61432 18.9956 10.063 19.1845 10.5324 19.1902H18.0734C18.543 19.1842 18.9917 18.995 19.3237 18.6628C19.6557 18.3306 19.8447 17.8818 19.8504 17.4122L19.8274 9.86418C19.8232 9.61201 19.7678 9.36332 19.6647 9.13316C19.5616 8.90301 19.4128 8.69617 19.2274 8.52518L15.4404 5.24518C15.1128 4.96707 14.6972 4.81415 14.2675 4.8136C13.8377 4.81305 13.4217 4.96491 13.0934 5.24219V5.24219ZM10.3514 9.85718L10.4634 9.83418L14.2074 6.53418C14.2253 6.52078 14.2471 6.51374 14.2694 6.51418V6.51418C14.2866 6.51394 14.3036 6.51844 14.3184 6.52718L18.0704 9.82718C18.079 9.83536 18.0858 9.84524 18.0904 9.85619L18.1114 17.4042C18.1114 17.4133 18.1096 17.4224 18.106 17.4308C18.1025 17.4393 18.0974 17.4469 18.0909 17.4533C18.0843 17.4597 18.0766 17.4648 18.0681 17.4682C18.0596 17.4716 18.0506 17.4733 18.0414 17.4732H10.5284C10.5194 17.4733 10.5104 17.4716 10.502 17.4682C10.4936 17.4648 10.486 17.4597 10.4796 17.4532C10.4733 17.4468 10.4683 17.4391 10.465 17.4307C10.4617 17.4222 10.4601 17.4132 10.4604 17.4042L10.4394 9.85018L10.3514 9.85718Z" fill="#BFBFBF"/>
<path d="M14.2671 9.91521C14.5489 9.91468 14.819 9.80252 15.0182 9.60329C15.2174 9.40405 15.3296 9.13397 15.3301 8.8522C15.3298 8.57027 15.2178 8.29995 15.0185 8.10049C14.8193 7.90104 14.5491 7.78874 14.2671 7.78821C13.9853 7.78926 13.7154 7.90174 13.5163 8.10107C13.3171 8.30041 13.2049 8.57043 13.2041 8.8522C13.2044 9.13405 13.3165 9.40428 13.5157 9.60358C13.715 9.80287 13.9853 9.91494 14.2671 9.91521V9.91521Z" fill="#BFBFBF"/>
</svg>
