<svg xmlns="http://www.w3.org/2000/svg" width="24" height="24" viewBox="0 0 24 24"><defs><style>.a{fill:#9d98ec;}</style></defs><path class="a" d="M20.405,35.487A11.9,11.9,0,0,0,1.687,49.839L0,56l6.305-1.655a11.857,11.857,0,0,0,5.684,1.446h.005a11.817,11.817,0,0,0,8.411-20.3Zm-8.411,18.3a9.867,9.867,0,0,1-5.036-1.377L6.6,52.2l-3.739.98,1-3.648-.236-.375A9.9,9.9,0,1,1,21.991,43.9,10,10,0,0,1,11.995,53.787Zm5.421-7.4c-.295-.15-1.757-.868-2.03-.964s-.471-.15-.67.15-.766.964-.943,1.168-.348.225-.643.075a8.089,8.089,0,0,1-4.045-3.536c-.305-.525.305-.488.873-1.623a.551.551,0,0,0-.027-.52c-.075-.15-.67-1.612-.916-2.207-.241-.579-.488-.5-.67-.509s-.37-.011-.568-.011a1.1,1.1,0,0,0-.793.37,3.339,3.339,0,0,0-1.039,2.48,5.822,5.822,0,0,0,1.211,3.075,13.279,13.279,0,0,0,5.079,4.489c1.886.814,2.625.884,3.568.745a3.044,3.044,0,0,0,2-1.414,2.485,2.485,0,0,0,.171-1.414C17.909,46.6,17.711,46.529,17.416,46.384Z" transform="translate(0 -32)"/></svg>