<svg xmlns="http://www.w3.org/2000/svg" width="16.54" height="16.54" viewBox="0 0 16.54 16.54"><defs><style>.a{fill:#9d98ec;}</style></defs><path class="a" d="M8.283,7.946a.775.775,0,0,0-.775.775,23.622,23.622,0,0,1-.895,6.834.775.775,0,1,0,1.493.419,25,25,0,0,0,.952-7.253.775.775,0,0,0-.775-.775Zm-.028-2.64A3.231,3.231,0,0,0,4.923,8.571a21.194,21.194,0,0,1-.432,4.6.775.775,0,1,0,1.518.314,22.743,22.743,0,0,0,.464-4.943A1.683,1.683,0,0,1,8.232,6.856a1.87,1.87,0,0,1,1.861,1.792,25.971,25.971,0,0,1-.343,4.637.775.775,0,1,0,1.529.252,27.555,27.555,0,0,0,.364-4.914A3.432,3.432,0,0,0,8.255,5.305ZM4.679,4.666a.776.776,0,0,0-1.091.112A5.6,5.6,0,0,0,2.337,8.4a18.761,18.761,0,0,1-.294,3.62.776.776,0,1,0,1.526.276,20.319,20.319,0,0,0,.319-3.919,3.992,3.992,0,0,1,.9-2.616A.776.776,0,0,0,4.679,4.666ZM8.216,2.653a5.774,5.774,0,0,0-1.479.161.775.775,0,0,0,.357,1.509,4.636,4.636,0,0,1,1.1-.119,4.522,4.522,0,0,1,4.486,4.347,28.462,28.462,0,0,1-.18,3.671.775.775,0,1,0,1.541.177,30.013,30.013,0,0,0,.19-3.872A6.084,6.084,0,0,0,8.216,2.653Zm8.143,3.923a.775.775,0,1,0-1.514.334A8.056,8.056,0,0,1,15,8.9a.775.775,0,0,0,.769.782h.006a.775.775,0,0,0,.775-.769,9.6,9.6,0,0,0-.188-2.337Zm-1.3-2.931A8.593,8.593,0,0,0,8.176,0,8.092,8.092,0,0,0,2.285,2.356,7.7,7.7,0,0,0,.014,7.968l0,.694a.775.775,0,0,0,.752.8H.785a.776.776,0,0,0,.774-.753l.005-.764a6.163,6.163,0,0,1,1.818-4.49,6.547,6.547,0,0,1,4.771-1.9,7.038,7.038,0,0,1,5.641,2.985.775.775,0,1,0,1.268-.891Z" transform="translate(-0.009 0)"/></svg>