<svg xmlns="http://www.w3.org/2000/svg" width="154.856" height="164.84" viewBox="0 0 154.856 164.84"><defs><style>.a{fill:#fff;}.a,.b,.c,.d{fill-rule:evenodd;}.b{fill:#edf3f4;}.c{fill:#b5c4cf;}.d{fill:#d7e7ec;}.e{fill:#9aafb7;}.f{fill:#00dc99;}.g{fill:#f5f5f5;}.h{fill:rgba(0,0,0,0.12);}.i{fill:#efe9f1;}</style></defs><g transform="translate(-4709.791 -4041.178)"><g transform="translate(4709.791 4070.038)"><g transform="translate(7.023 0)"><path class="a" d="M188.814,70.294v59.986a1.756,1.756,0,0,0,1.744,1.754h99.252a1.756,1.756,0,0,0,1.744-1.754V23.434H273.833c-1.707,0-5.251.243-5.251-3.629L268.544,2.5H190.558a1.748,1.748,0,0,0-1.744,1.745V70.294Z" transform="translate(-188.814 -2.5)"/></g><g transform="translate(7.023 0)"><path class="b" d="M291.555,102.1V23.164c0-.5-.215-.588-.989-1.343L271.436,3.573c-.9-.858-1.054-1.073-1.586-1.073H190.558a1.748,1.748,0,0,0-1.744,1.745V130.279a1.756,1.756,0,0,0,1.744,1.754h99.252a1.756,1.756,0,0,0,1.744-1.754Z" transform="translate(-188.814 -2.5)"/></g><g transform="translate(0 16.718)"><path class="c" d="M173.745,55.088l-7.023,1.2V172.6a1.75,1.75,0,0,0,1.744,1.754h44.408l26.284-4.506,11.314-1.94H175.49a1.756,1.756,0,0,1-1.744-1.754V55.088Z" transform="translate(-166.722 -55.088)"/></g><g transform="translate(67.342 0)"><path class="d" d="M420.98,102.1V23.434c0-.942-.308-.951-.989-1.614L400.861,3.573c-.9-.858-1.054-1.073-1.586-1.073H378.559c23.72,31.756,25.072,89,7.471,124.729-.812,1.661-1.66,3.256-2.546,4.8h35.752a1.756,1.756,0,0,0,1.744-1.754Z" transform="translate(-378.559 -2.5)"/></g><g transform="translate(86.753)"><path class="a" d="M439.654,19.8c0,3.871,3.544,3.629,5.251,3.629h17.722v-.271c0-.5-.215-.588-.989-1.343L442.509,3.572c-.9-.858-1.054-1.073-1.586-1.073h-1.306Z" transform="translate(-439.617 -2.499)"/></g><g transform="translate(86.753 0)"><path class="c" d="M461.639,21.82,442.509,3.573c-.9-.858-1.054-1.073-1.586-1.073h-1.306l.037,17.305c0,3.871,3.544,3.629,5.251,3.629h17.722v-.271C462.628,22.66,462.413,22.576,461.639,21.82Z" transform="translate(-439.617 -2.5)"/></g><g transform="translate(21.319 33.236)"><path class="e" d="M306.466,111.962H236.24a2.457,2.457,0,0,1,0-4.914h70.225a2.457,2.457,0,0,1,0,4.914Z" transform="translate(-233.784 -107.048)"/></g><g transform="translate(21.319 50.691)"><path class="e" d="M306.466,166.867H236.24a2.457,2.457,0,0,1,0-4.914h70.225a2.457,2.457,0,0,1,0,4.914Z" transform="translate(-233.784 -161.953)"/></g><g transform="translate(21.319 68.145)"><path class="e" d="M306.466,221.773H236.24a2.457,2.457,0,0,1,0-4.914h70.225a2.457,2.457,0,0,1,0,4.914Z" transform="translate(-233.784 -216.859)"/></g><g transform="translate(21.319 85.6)"><path class="e" d="M306.466,276.679H236.24a2.457,2.457,0,0,1,0-4.914h70.225a2.457,2.457,0,0,1,0,4.914Z" transform="translate(-233.784 -271.765)"/></g><g transform="translate(21.319 103.054)"><path class="e" d="M306.466,331.585H236.24a2.457,2.457,0,0,1,0-4.914h70.225a2.457,2.457,0,0,1,0,4.914Z" transform="translate(-233.784 -326.671)"/></g></g><g transform="translate(4764.161 4041.178)"><g transform="translate(0 0)"><path class="f" d="M19.265,22.747A21.512,21.512,0,0,0,23,20.668c4.056-2.952,6.845-8.707,11.718-10.29,4.7-1.526,10.319,1.441,15.53,1.441s10.828-2.967,15.53-1.441c4.873,1.582,7.662,7.338,11.718,10.29,4.1,2.981,10.421,3.876,13.4,7.972,2.952,4.056,1.867,10.333,3.449,15.205,1.526,4.7,6.144,9.119,6.144,14.329S95.868,67.8,94.342,72.5c-1.582,4.873-.5,11.15-3.449,15.206-2.981,4.1-9.306,4.991-13.4,7.972-4.056,2.952-6.845,8.707-11.718,10.29-4.7,1.526-10.319-1.441-15.53-1.441s-10.828,2.967-15.53,1.441c-4.873-1.582-7.662-7.338-11.718-10.29-4.1-2.981-10.421-3.876-13.4-7.972C6.642,83.653,7.726,77.376,6.144,72.5,4.617,67.8,0,63.385,0,58.175s4.617-9.628,6.144-14.329c1.582-4.873.5-11.15,3.449-15.205a11.365,11.365,0,0,1,3.645-3.087" transform="translate(0 -9.942)"/></g><g transform="translate(9.514 9.133)"><path class="g" d="M128.513,94.213c0,4.224-3.743,7.8-4.98,11.616-1.283,3.95-.4,9.038-2.8,12.326-2.417,3.321-7.544,4.046-10.865,6.463-3.288,2.393-5.549,7.059-9.5,8.341-3.811,1.238-8.365-1.168-12.589-1.168S79.007,134.2,75.2,132.959c-3.95-1.282-6.211-5.948-9.5-8.341-3.321-2.417-8.448-3.142-10.865-6.463-2.393-3.288-1.514-8.376-2.8-12.326-1.238-3.811-4.98-7.392-4.98-11.616s3.743-7.8,4.98-11.616c1.282-3.95.4-9.038,2.8-12.326,2.417-3.321,7.544-4.046,10.865-6.463,3.288-2.393,5.549-7.059,9.5-8.341,3.811-1.238,8.365,1.168,12.589,1.168s8.778-2.405,12.589-1.168c3.95,1.282,6.211,5.948,9.5,8.341,3.321,2.417,8.448,3.142,10.865,6.463,2.393,3.288,1.514,8.376,2.8,12.326C124.77,86.408,128.513,89.989,128.513,94.213Z" transform="translate(-47.055 -55.113)"/></g><g transform="translate(59.408 0)"><path class="h" d="M328.766,43.847c-1.582-4.873-.5-11.15-3.449-15.205-2.981-4.1-9.306-4.991-13.4-7.972-4.056-2.952-6.845-8.707-11.718-10.29a13.074,13.074,0,0,0-6.364-.088c.1.028.2.055.3.088,4.873,1.582,7.662,7.338,11.718,10.29,4.1,2.981,10.421,3.876,13.4,7.972,2.952,4.056,1.867,10.333,3.449,15.205,1.526,4.7,6.144,9.119,6.144,14.329S324.227,67.8,322.7,72.506c-1.582,4.873-.5,11.15-3.449,15.206-2.981,4.1-9.306,4.991-13.4,7.972-4.056,2.952-6.845,8.707-11.718,10.29-.1.032-.2.059-.3.088a13.075,13.075,0,0,0,6.364-.088c4.873-1.582,7.662-7.338,11.718-10.29,4.1-2.981,10.421-3.876,13.4-7.972,2.952-4.056,1.867-10.333,3.449-15.206,1.526-4.7,6.144-9.119,6.144-14.329S330.292,48.549,328.766,43.847Z" transform="translate(-293.832 -9.944)"/></g><g transform="translate(56.954 9.133)"><path class="i" d="M310.729,82.6c-1.282-3.95-.4-9.038-2.8-12.326-2.417-3.321-7.544-4.046-10.865-6.462-3.288-2.393-5.549-7.059-9.5-8.341a11.628,11.628,0,0,0-5.878.067c3.834,1.367,6.076,5.92,9.312,8.275,3.321,2.417,8.448,3.142,10.865,6.462,2.393,3.288,1.514,8.376,2.8,12.326,1.238,3.811,4.98,7.392,4.98,11.616s-3.743,7.8-4.98,11.616c-1.283,3.95-.4,9.038-2.8,12.326-2.417,3.321-7.544,4.046-10.865,6.463-3.235,2.354-5.477,6.907-9.312,8.275a11.63,11.63,0,0,0,5.878.067c3.95-1.283,6.211-5.948,9.5-8.341,3.321-2.417,8.448-3.142,10.865-6.463,2.393-3.288,1.514-8.376,2.8-12.326,1.237-3.811,4.98-7.392,4.98-11.616S311.967,86.409,310.729,82.6Z" transform="translate(-281.691 -55.114)"/></g><g transform="translate(31.626 34.369)"><path class="f" d="M164.694,210.091l-7.528-9.058a3.219,3.219,0,0,1,.418-4.532l2.11-1.754a3.219,3.219,0,0,1,4.532.418l3.793,4.563a2.37,2.37,0,0,0,3.539.12l19.389-18.917a3.218,3.218,0,0,1,4.55-.11l1.987,1.893a3.218,3.218,0,0,1,.11,4.55l-23.419,23.148A6.35,6.35,0,0,1,164.694,210.091Z" transform="translate(-156.423 -179.932)"/></g><g transform="translate(41.747 34.369)"><path class="h" d="M237.419,182.713l-1.987-1.893a3.218,3.218,0,0,0-4.55.11l-.691.674,1.163,1.108a3.218,3.218,0,0,1,.11,4.55l-23.419,23.148a6.349,6.349,0,0,1-1.567,1.2,6.353,6.353,0,0,0,7.632-1.2l23.42-23.148A3.218,3.218,0,0,0,237.419,182.713Z" transform="translate(-206.478 -179.932)"/></g></g></g></svg>