<svg xmlns="http://www.w3.org/2000/svg" width="82.273" height="81.469" viewBox="0 0 82.273 81.469"><defs><style>.a{fill:#fff;}.a,.b,.c,.d,.e{fill-rule:evenodd;}.b{fill:#b5c4cf;}.c{fill:#d7e7ec;}.d{fill:#edf3f4;}.e,.f{fill:#9aafb7;}</style></defs><g transform="translate(0 -2.499)"><g transform="translate(0 8.971)"><path class="a" d="M10.878,89.864.049,59.75a.855.855,0,0,1,.514-1.084c14.238-5.121,30.282-9.884,44-15.736.613-.387,1.094,0,1.358.726L62.933,87.515l4.62,12.85a.851.851,0,0,1-.509,1.085l-32.56,11.709-12.692,4.565a.848.848,0,0,1-1.084-.509Z" transform="translate(0 -42.777)"/></g><g transform="translate(14.487 5.691)"><path class="a" d="M95.573,62.74,90.165,31.2a.85.85,0,0,1,.688-.981l37.241-6.385,8.529-1.405c.467-.2,1.226.033,1.4,1.075l9.212,46,2.306,13.458a.852.852,0,0,1-.688.981l-34.1,5.847-13.3,2.282a.859.859,0,0,1-.981-.693Z" transform="translate(-90.153 -22.365)"/></g><g transform="translate(30.34 2.499)"><path class="a" d="M188.814,36.768V67.089a.887.887,0,0,0,.882.887h50.169a.887.887,0,0,0,.882-.887V13.082h-8.958c-.863,0-2.654.123-2.654-1.834L229.115,2.5H189.7a.883.883,0,0,0-.882.882V36.768Z" transform="translate(-188.814 -2.5)"/></g><g transform="translate(0 19.758)"><path class="b" d="M15.395,109.9c-5.045,1.7-10.042,3.381-14.832,5.1a.855.855,0,0,0-.514,1.084l10.83,30.113,9.83,27.35a.848.848,0,0,0,1.084.509L34.485,169.5,63.4,159.1Z" transform="translate(0 -109.905)"/></g><g transform="translate(14.487 10.949)"><path class="c" d="M106.007,55.088l-15.153,2.6a.85.85,0,0,0-.688.981l.9,5.229L95.573,90.2l4.908,28.647a.859.859,0,0,0,.981.693l13.3-2.282,24.314-4.169,5.719-.981H141.8Z" transform="translate(-90.153 -55.088)"/></g><g transform="translate(30.34 2.499)"><path class="d" d="M240.746,52.843v-39.9c0-.255-.108-.3-.5-.679l-9.67-9.224c-.457-.434-.533-.542-.8-.542H189.7a.883.883,0,0,0-.882.882V67.089a.887.887,0,0,0,.882.887h50.169a.887.887,0,0,0,.882-.887Z" transform="translate(-188.814 -2.5)"/></g><g transform="translate(26.79 10.949)"><path class="b" d="M170.272,55.088l-3.55.608v58.788a.884.884,0,0,0,.882.887H190.05l13.286-2.278,5.719-.981h-37.9a.887.887,0,0,1-.882-.887V55.088Z" transform="translate(-166.722 -55.088)"/></g><g transform="translate(11.746 19.758)"><path class="e" d="M81.256,136.213,76.744,109.9q-1.832.615-3.649,1.231l.561,3.268,4.512,26.308,4.913,28.647a.852.852,0,0,0,.976.693l13.3-2.282,6.308-1.08,19-6.837-.226-.354-10.966,1.882-11.028,1.891-13.3,2.282a.859.859,0,0,1-.981-.693Z" transform="translate(-73.095 -109.905)"/></g><g transform="translate(60.83 2.499)"><path class="c" d="M400,52.843V13.082c0-.476-.156-.481-.5-.816l-9.67-9.224c-.457-.434-.533-.542-.8-.542H378.559c11.99,16.052,12.673,44.986,3.777,63.047-.41.839-.839,1.646-1.287,2.428H399.12a.887.887,0,0,0,.882-.887Z" transform="translate(-378.559 -2.5)"/></g><g transform="translate(70.642 2.499)"><path class="a" d="M439.636,11.246c0,1.957,1.792,1.834,2.654,1.834h8.958v-.137c0-.255-.108-.3-.5-.679l-9.67-9.224c-.457-.434-.533-.542-.8-.542h-.66Z" transform="translate(-439.617 -2.499)"/></g><g transform="translate(70.642 2.499)"><path class="b" d="M450.748,12.266l-9.67-9.224c-.457-.434-.533-.542-.8-.542h-.66l.019,8.747c0,1.957,1.792,1.834,2.654,1.834h8.958v-.137C451.248,12.69,451.14,12.648,450.748,12.266Z" transform="translate(-439.617 -2.5)"/></g><g transform="translate(37.566 19.299)"><path class="f" d="M270.522,109.532h-35.5a1.242,1.242,0,0,1,0-2.484h35.5a1.242,1.242,0,0,1,0,2.484Z" transform="translate(-233.784 -107.048)"/></g><g transform="translate(37.566 28.121)"><path class="f" d="M270.522,164.437h-35.5a1.242,1.242,0,0,1,0-2.484h35.5a1.242,1.242,0,0,1,0,2.484Z" transform="translate(-233.784 -161.953)"/></g><g transform="translate(37.566 36.944)"><path class="f" d="M270.522,219.343h-35.5a1.242,1.242,0,0,1,0-2.484h35.5a1.242,1.242,0,0,1,0,2.484Z" transform="translate(-233.784 -216.859)"/></g><g transform="translate(37.566 45.767)"><path class="f" d="M270.522,274.249h-35.5a1.242,1.242,0,0,1,0-2.484h35.5a1.242,1.242,0,0,1,0,2.484Z" transform="translate(-233.784 -271.765)"/></g><g transform="translate(37.566 54.59)"><path class="f" d="M270.522,329.155h-35.5a1.242,1.242,0,0,1,0-2.484h35.5a1.242,1.242,0,0,1,0,2.484Z" transform="translate(-233.784 -326.671)"/></g></g></svg>