<svg xmlns="http://www.w3.org/2000/svg" width="23.904" height="19.124" viewBox="0 0 23.904 19.124"><defs><style>.a{fill:#d6d6d6;}</style></defs><path class="a" d="M11.954,14.937A5.358,5.358,0,0,1,6.616,9.965L2.7,6.937A12.449,12.449,0,0,0,1.327,9.013a1.208,1.208,0,0,0,0,1.09A11.98,11.98,0,0,0,11.954,16.73a11.6,11.6,0,0,0,2.909-.391l-1.938-1.5a5.384,5.384,0,0,1-.971.1Zm11.721,2.17-4.129-3.191A12.372,12.372,0,0,0,22.58,10.1a1.208,1.208,0,0,0,0-1.09A11.98,11.98,0,0,0,11.954,2.387,11.509,11.509,0,0,0,6.451,3.8L1.7.123a.6.6,0,0,0-.839.1l-.733.944a.6.6,0,0,0,.1.839L22.208,18.994a.6.6,0,0,0,.839-.1l.734-.944A.6.6,0,0,0,23.675,17.107Zm-6.862-5.3-1.468-1.135a3.539,3.539,0,0,0-4.337-4.554,1.78,1.78,0,0,1,.348,1.054,1.742,1.742,0,0,1-.058.374L8.549,5.417a5.315,5.315,0,0,1,3.4-1.237,5.375,5.375,0,0,1,5.378,5.378,5.251,5.251,0,0,1-.519,2.245Z" transform="translate(-0.001 0.003)"/></svg>