<svg xmlns="http://www.w3.org/2000/svg" width="22.965" height="23" viewBox="0 0 22.965 23"><defs><style>.a{fill:#bfbfbf;fill-rule:evenodd;}</style></defs><g transform="translate(533.9 294)"><path class="a" d="M-515.117-291.909a2.1,2.1,0,0,0-2.091,2.091,2.075,2.075,0,0,0,.209.941,2.068,2.068,0,0,0,1.882,1.15,2.1,2.1,0,0,0,2.091-2.091A2.1,2.1,0,0,0-515.117-291.909Zm-4.182,2.091A4.194,4.194,0,0,1-515.117-294a4.194,4.194,0,0,1,4.182,4.182,4.194,4.194,0,0,1-4.182,4.182,4.164,4.164,0,0,1-3.136-1.429l-7.388,3.694a3.721,3.721,0,0,1,.1.871,3.724,3.724,0,0,1-.1.871l7.388,3.694a4.164,4.164,0,0,1,3.136-1.429,4.194,4.194,0,0,1,4.182,4.182A4.194,4.194,0,0,1-515.117-271a4.194,4.194,0,0,1-4.182-4.182,3.513,3.513,0,0,1,.1-.871l-7.388-3.694a4.164,4.164,0,0,1-3.136,1.429A4.194,4.194,0,0,1-533.9-282.5a4.194,4.194,0,0,1,4.182-4.182,4.165,4.165,0,0,1,3.136,1.429l7.388-3.694A3.513,3.513,0,0,1-519.3-289.818Zm-10.455,5.227a2.1,2.1,0,0,0-2.091,2.091,2.1,2.1,0,0,0,2.091,2.091,2.107,2.107,0,0,0,1.882-1.15,2.075,2.075,0,0,0,.209-.941,2.075,2.075,0,0,0-.209-.941A2.068,2.068,0,0,0-529.753-284.591Zm14.636,7.318a2.107,2.107,0,0,0-1.882,1.15,2.075,2.075,0,0,0-.209.941,2.1,2.1,0,0,0,2.091,2.091,2.1,2.1,0,0,0,2.091-2.091A2.1,2.1,0,0,0-515.117-277.273Z"/></g></svg>