<svg xmlns="http://www.w3.org/2000/svg" xmlns:xlink="http://www.w3.org/1999/xlink" width="312.624" height="344.027" viewBox="0 0 312.624 344.027"><defs><style>.a{fill:none;}.b,.x{fill:#fff;}.b{stroke:#707070;}.c{clip-path:url(#a);}.d{fill:url(#b);}.e{fill:url(#c);}.f{fill:url(#d);}.g{fill:url(#e);}.h{fill:url(#f);}.i{fill:url(#g);}.j{fill:url(#h);}.k{fill:url(#i);}.l{fill:url(#j);}.m{fill:url(#k);}.n{fill:url(#l);}.o{fill:url(#m);}.p{fill:url(#n);}.q{fill:url(#o);}.r{clip-path:url(#p);}.s{fill:url(#q);}.t{fill:url(#r);}.u{fill:url(#s);}.v{fill:url(#t);}.w{fill:#d90368;opacity:0.338;mix-blend-mode:multiply;}.aj,.am,.ap,.at,.bd,.bg,.bj,.bn,.bx,.ca,.cd,.ch,.w{isolation:isolate;}.y{clip-path:url(#u);}.z{opacity:0.2;}.aa{fill:url(#v);}.ab{fill:url(#w);}.ac{fill:url(#x);}.ad{fill:url(#y);}.ae{fill:url(#z);}.af{fill:url(#aa);}.ag{fill:url(#ab);}.ah{fill:url(#ac);}.ai{fill:url(#ad);}.aj,.am,.ap,.at,.bd,.bg,.bj,.bn,.bx,.ca,.cd,.ch{mix-blend-mode:color-dodge;}.aj{fill:url(#ae);}.ak{fill:url(#af);}.al{fill:url(#ag);}.am{fill:url(#ah);}.an{fill:url(#ai);}.ao{fill:url(#aj);}.ap{fill:url(#ak);}.aq{fill:url(#al);}.ar{fill:url(#am);}.as{fill:url(#an);}.at{fill:url(#ao);}.au{fill:url(#ap);}.av{fill:url(#aq);}.aw{fill:url(#ar);}.ax{fill:url(#as);}.ay{fill:url(#at);}.az{fill:url(#au);}.ba{fill:url(#av);}.bb{fill:url(#aw);}.bc{fill:url(#ax);}.bd{fill:url(#ay);}.be{fill:url(#az);}.bf{fill:url(#ba);}.bg{fill:url(#bb);}.bh{fill:url(#bc);}.bi{fill:url(#bd);}.bj{fill:url(#be);}.bk{fill:url(#bf);}.bl{fill:url(#bg);}.bm{fill:url(#bh);}.bn{fill:url(#bi);}.bo{fill:url(#bj);}.bp{fill:url(#bk);}.bq{fill:url(#bl);}.br{fill:url(#bm);}.bs{fill:url(#bn);}.bt{fill:url(#bo);}.bu{fill:url(#bp);}.bv{fill:url(#bq);}.bw{fill:url(#br);}.bx{fill:url(#bs);}.by{fill:url(#bt);}.bz{fill:url(#bu);}.ca{fill:url(#bv);}.cb{fill:url(#bw);}.cc{fill:url(#bx);}.cd{fill:url(#by);}.ce{fill:url(#bz);}.cf{fill:url(#ca);}.cg{fill:url(#cb);}.ch{fill:url(#cc);}</style><clipPath id="a"><ellipse class="a" cx="36.265" cy="36.265" rx="36.265" ry="36.265" transform="translate(0 29.114) rotate(-23.666)"/></clipPath><linearGradient id="b" x1="-0.841" y1="0.5" x2="0.159" y2="0.5" gradientUnits="objectBoundingBox"><stop offset="0" stop-color="#00ebf9"/><stop offset="1" stop-color="#12a1ff"/></linearGradient><radialGradient id="c" cx="0.5" cy="0.5" r="0.5" gradientTransform="translate(0.309 0.254) rotate(45)" gradientUnits="objectBoundingBox"><stop offset="0.526" stop-color="#00ebf9" stop-opacity="0"/><stop offset="0.66" stop-color="#00ebf9" stop-opacity="0.008"/><stop offset="0.725" stop-color="#00ebf9" stop-opacity="0.039"/><stop offset="0.776" stop-color="#00ebf9" stop-opacity="0.09"/><stop offset="0.819" stop-color="#00ebf9" stop-opacity="0.169"/><stop offset="0.858" stop-color="#00ebf9" stop-opacity="0.263"/><stop offset="0.893" stop-color="#00ebf9" stop-opacity="0.384"/><stop offset="0.925" stop-color="#00ebf9" stop-opacity="0.525"/><stop offset="0.956" stop-color="#00ebf9" stop-opacity="0.694"/><stop offset="0.983" stop-color="#00ebf9" stop-opacity="0.875"/><stop offset="1" stop-color="#00ebf9"/></radialGradient><radialGradient id="d" cx="0.5" cy="0.5" r="0.5" gradientTransform="matrix(0, 1, -1, 0, -0.079, 8.277)" gradientUnits="objectBoundingBox"><stop offset="0" stop-color="#12a1ff"/><stop offset="0.122" stop-color="#12a1ff" stop-opacity="0.843"/><stop offset="0.367" stop-color="#12a1ff" stop-opacity="0.545"/><stop offset="0.586" stop-color="#12a1ff" stop-opacity="0.31"/><stop offset="0.771" stop-color="#12a1ff" stop-opacity="0.141"/><stop offset="0.915" stop-color="#12a1ff" stop-opacity="0.039"/><stop offset="1" stop-color="#12a1ff" stop-opacity="0"/></radialGradient><radialGradient id="e" cx="0.5" cy="0.5" r="0.5" gradientTransform="matrix(0.707, 0.707, -0.707, 0.707, 0.259, 0.375)" gradientUnits="objectBoundingBox"><stop offset="0" stop-color="aqua"/><stop offset="1" stop-color="aqua" stop-opacity="0"/></radialGradient><linearGradient id="f" x1="0.184" y1="0.187" x2="0.652" y2="0.714" gradientUnits="objectBoundingBox"><stop offset="0" stop-color="#b029ff"/><stop offset="0.829" stop-color="#691ec1"/><stop offset="1" stop-color="#9024e3"/></linearGradient><linearGradient id="g" y1="0.5" x2="1" y2="0.5" gradientUnits="objectBoundingBox"><stop offset="0" stop-color="#9024e3"/><stop offset="0.292" stop-color="#b84aff"/><stop offset="1" stop-color="#691ec1"/></linearGradient><linearGradient id="h" x1="0.201" y1="0.177" x2="0.799" y2="0.823" gradientUnits="objectBoundingBox"><stop offset="0.177" stop-color="#c263ff"/><stop offset="1" stop-color="#8629d5"/></linearGradient><linearGradient id="i" x1="1.824" y1="1.893" x2="1.824" y2="1.598" gradientUnits="objectBoundingBox"><stop offset="0" stop-color="#d18e00"/><stop offset="0.691" stop-color="#ffc100"/><stop offset="1" stop-color="#f2b300"/></linearGradient><linearGradient id="j" x1="13.212" y1="6.639" x2="14.12" y2="6.04" gradientUnits="objectBoundingBox"><stop offset="0.009" stop-color="#ffe700"/><stop offset="1" stop-color="#fffce5"/></linearGradient><linearGradient id="k" x1="14.47" y1="4.229" x2="14.47" y2="3.172" xlink:href="#i"/><linearGradient id="l" x1="20.735" y1="10.003" x2="20.735" y2="8.946" gradientUnits="objectBoundingBox"><stop offset="0" stop-color="#d18e00"/><stop offset="1" stop-color="#ffc100"/></linearGradient><linearGradient id="m" x1="-4.358" y1="33.845" x2="-4.744" y2="34.767" gradientUnits="objectBoundingBox"><stop offset="0" stop-color="#12a1ff"/><stop offset="0.094" stop-color="#1ca6ff"/><stop offset="0.259" stop-color="#3ab3ff"/><stop offset="0.476" stop-color="#69c9ff"/><stop offset="0.733" stop-color="#aae6ff"/><stop offset="0.742" stop-color="#ade8ff"/><stop offset="0.798" stop-color="#a2e2ff"/><stop offset="0.896" stop-color="#84d2ff"/><stop offset="1" stop-color="#5fbfff"/></linearGradient><linearGradient id="n" x1="-7.083" y1="45.461" x2="-7.686" y2="45.648" gradientUnits="objectBoundingBox"><stop offset="0" stop-color="#12a1ff"/><stop offset="0.105" stop-color="#1ca5ff"/><stop offset="0.29" stop-color="#3ab0ff"/><stop offset="0.482" stop-color="#5fbfff"/><stop offset="1" stop-color="#5fbfff"/></linearGradient><linearGradient id="o" x1="-4.371" y1="35.298" x2="-4.499" y2="34.292" gradientUnits="objectBoundingBox"><stop offset="0" stop-color="#12a1ff"/><stop offset="0.238" stop-color="#0f96ff"/><stop offset="0.654" stop-color="#0779ff"/><stop offset="1" stop-color="#005cff"/></linearGradient><clipPath id="p"><ellipse class="a" cx="22.772" cy="22.772" rx="22.772" ry="22.772" transform="translate(0 13.887) rotate(-17.753)"/></clipPath><linearGradient id="q" x1="-1.565" y1="0.854" x2="-0.858" y2="0.146" xlink:href="#l"/><radialGradient id="r" cx="0.5" cy="0.5" r="0.5" gradientTransform="matrix(0.925, 0.38, -0.38, 0.925, 0.107, 0.456)" gradientUnits="objectBoundingBox"><stop offset="0.526" stop-color="#fed6cf" stop-opacity="0"/><stop offset="0.659" stop-color="#fed6ce" stop-opacity="0.008"/><stop offset="0.724" stop-color="#fed6cb" stop-opacity="0.039"/><stop offset="0.775" stop-color="#fed6c7" stop-opacity="0.09"/><stop offset="0.818" stop-color="#fed7c2" stop-opacity="0.165"/><stop offset="0.856" stop-color="#fed8ba" stop-opacity="0.259"/><stop offset="0.891" stop-color="#fed9b1" stop-opacity="0.376"/><stop offset="0.923" stop-color="#fedba6" stop-opacity="0.514"/><stop offset="0.953" stop-color="#fedc99" stop-opacity="0.675"/><stop offset="0.98" stop-color="#fede8b" stop-opacity="0.855"/><stop offset="1" stop-color="#ffe080"/></radialGradient><radialGradient id="s" cx="0.5" cy="0.5" r="0.5" gradientTransform="matrix(0, 1, -1, 0, -3.92, 22.429)" gradientUnits="objectBoundingBox"><stop offset="0" stop-color="#d18e00" stop-opacity="0.969"/><stop offset="0.045" stop-color="#d18e00" stop-opacity="0.91"/><stop offset="0.303" stop-color="#d18e00" stop-opacity="0.588"/><stop offset="0.537" stop-color="#d18e00" stop-opacity="0.337"/><stop offset="0.739" stop-color="#d18e00" stop-opacity="0.153"/><stop offset="0.9" stop-color="#d18e00" stop-opacity="0.039"/><stop offset="1" stop-color="#d18e00" stop-opacity="0"/></radialGradient><radialGradient id="t" cx="0.5" cy="0.5" r="0.5" gradientTransform="matrix(0.707, 0.707, -0.707, 0.707, -0.092, 1.222)" gradientUnits="objectBoundingBox"><stop offset="0" stop-color="#ffe080"/><stop offset="1" stop-color="#ffe080" stop-opacity="0"/></radialGradient><clipPath id="u"><circle class="b" cx="91" cy="91" r="91" transform="translate(0)"/></clipPath><linearGradient id="v" x1="0.285" y1="0.532" x2="3.111" y2="0.113" gradientUnits="objectBoundingBox"><stop offset="0.035" stop-color="#9f19ab"/><stop offset="0.244" stop-color="#ae24b0"/><stop offset="0.645" stop-color="#d643bf"/><stop offset="1" stop-color="#ff63ce"/></linearGradient><linearGradient id="w" x1="-1.315" y1="0.703" x2="2.394" y2="0.289" xlink:href="#v"/><linearGradient id="x" x1="1.022" y1="-1.198" x2="0.46" y2="0.629" xlink:href="#v"/><linearGradient id="y" x1="0.03" y1="0.517" x2="6.209" y2="0.296" gradientUnits="objectBoundingBox"><stop offset="0.035" stop-color="#138bbd"/><stop offset="0.226" stop-color="#169ac6"/><stop offset="0.595" stop-color="#1ec2df"/><stop offset="1" stop-color="#2af6ff"/></linearGradient><linearGradient id="z" x1="0.684" y1="-0.102" x2="0.473" y2="0.585" xlink:href="#y"/><linearGradient id="aa" x1="786.401" y1="0.616" x2="795.546" y2="0.379" xlink:href="#y"/><linearGradient id="ab" x1="119.003" y1="-0.096" x2="118.794" y2="0.585" xlink:href="#y"/><linearGradient id="ac" x1="0.418" y1="0.374" x2="0.878" y2="1.08" xlink:href="#y"/><linearGradient id="ad" x1="0.248" y1="0.961" x2="0.894" y2="-0.203" gradientUnits="objectBoundingBox"><stop offset="0.035" stop-color="#1bb0d4"/><stop offset="0.203" stop-color="#1ebfdd"/><stop offset="0.527" stop-color="#26e7f6"/><stop offset="0.631" stop-color="#2af6ff"/><stop offset="0.874" stop-color="#1bb0d4"/></linearGradient><radialGradient id="ae" cx="0.72" cy="0.193" r="0.554" gradientTransform="translate(-0.397) scale(0.835 1)" gradientUnits="objectBoundingBox"><stop offset="0" stop-color="#fff"/><stop offset="1"/></radialGradient><linearGradient id="af" x1="255.875" y1="0.374" x2="256.336" y2="1.08" xlink:href="#y"/><linearGradient id="ag" x1="257.698" y1="0.961" x2="258.344" y2="-0.203" xlink:href="#ad"/><radialGradient id="ah" cx="0.28" cy="0.193" r="0.554" gradientTransform="matrix(-0.835, 0, 0, 1, 672.243, 0)" xlink:href="#ae"/><linearGradient id="ai" x1="245.033" y1="0.059" x2="245.145" y2="1.089" xlink:href="#y"/><linearGradient id="aj" x1="245.244" y1="-0.017" x2="244.855" y2="1.039" xlink:href="#ad"/><radialGradient id="ak" cx="0.674" cy="0.301" r="0.79" gradientTransform="matrix(-0.501, 0, 0, 1, 478.989, 0)" xlink:href="#ae"/><linearGradient id="al" x1="0.5" y1="1.482" x2="0.5" y2="0.035" xlink:href="#y"/><linearGradient id="am" x1="0.454" y1="0.059" x2="0.566" y2="1.089" xlink:href="#y"/><linearGradient id="an" x1="0.665" y1="-0.017" x2="0.275" y2="1.039" xlink:href="#ad"/><radialGradient id="ao" cx="0.326" cy="0.301" r="0.79" gradientTransform="translate(-1.219) scale(0.501 1)" xlink:href="#ae"/><linearGradient id="ap" x1="0.305" y1="0.538" x2="2.868" y2="0.033" gradientUnits="objectBoundingBox"><stop offset="0.035" stop-color="#6b24d6"/><stop offset="0.294" stop-color="#7733dc"/><stop offset="0.794" stop-color="#965bec"/><stop offset="1" stop-color="#a56ef4"/></linearGradient><linearGradient id="aq" x1="-1.146" y1="0.744" x2="2.217" y2="0.246" xlink:href="#ap"/><linearGradient id="ar" x1="1.022" y1="-1.198" x2="0.46" y2="0.629" xlink:href="#ap"/><linearGradient id="as" x1="0.139" y1="0.519" x2="4.887" y2="0.268" gradientUnits="objectBoundingBox"><stop offset="0.035" stop-color="#ffa98c"/><stop offset="0.317" stop-color="#feb892"/><stop offset="0.86" stop-color="#fee0a3"/><stop offset="1" stop-color="#feeca8"/></linearGradient><linearGradient id="at" x1="0.684" y1="-0.102" x2="0.473" y2="0.585" xlink:href="#as"/><linearGradient id="au" x1="985.269" y1="0.635" x2="992.458" y2="0.359" xlink:href="#as"/><linearGradient id="av" x1="148.844" y1="-0.096" x2="148.635" y2="0.585" xlink:href="#as"/><linearGradient id="aw" x1="0.417" y1="0.374" x2="0.878" y2="1.08" xlink:href="#as"/><linearGradient id="ax" x1="0.248" y1="0.961" x2="0.894" y2="-0.203" gradientUnits="objectBoundingBox"><stop offset="0.035" stop-color="#f7aa90"/><stop offset="0.232" stop-color="#f9b996"/><stop offset="0.61" stop-color="#fee1a6"/><stop offset="0.631" stop-color="#ffe4a7"/><stop offset="0.874" stop-color="#f7aa90"/></linearGradient><radialGradient id="ay" cx="0.72" cy="0.193" r="0.555" gradientTransform="translate(-0.526) scale(0.835 1)" xlink:href="#ae"/><linearGradient id="az" x1="320.076" y1="0.374" x2="320.536" y2="1.08" xlink:href="#as"/><linearGradient id="ba" x1="322.407" y1="0.961" x2="323.053" y2="-0.203" xlink:href="#ax"/><radialGradient id="bb" cx="0.28" cy="0.193" r="0.555" gradientTransform="matrix(-0.835, 0, 0, 1, 840.703, 0)" xlink:href="#ae"/><linearGradient id="bc" x1="306.935" y1="0.06" x2="307.047" y2="1.089" xlink:href="#as"/><linearGradient id="bd" x1="307.146" y1="-0.017" x2="306.757" y2="1.039" xlink:href="#ax"/><radialGradient id="be" cx="0.674" cy="0.301" r="0.79" gradientTransform="matrix(-0.501, 0, 0, 1, 599.968, 0)" xlink:href="#ae"/><linearGradient id="bf" x1="0.5" y1="1.482" x2="0.5" y2="0.035" xlink:href="#as"/><linearGradient id="bg" x1="0.454" y1="0.06" x2="0.566" y2="1.089" xlink:href="#as"/><linearGradient id="bh" x1="0.665" y1="-0.017" x2="0.275" y2="1.039" xlink:href="#ax"/><radialGradient id="bi" cx="0.326" cy="0.301" r="0.79" gradientTransform="translate(-1.564) scale(0.501 1)" xlink:href="#ae"/><linearGradient id="bj" x1="0.318" y1="0.545" x2="2.712" y2="-0.052" xlink:href="#y"/><linearGradient id="bk" x1="-1.037" y1="0.788" x2="2.103" y2="0.199" xlink:href="#y"/><linearGradient id="bl" x1="1.022" y1="-1.198" x2="0.46" y2="0.629" xlink:href="#y"/><linearGradient id="bm" x1="0.209" y1="0.522" x2="4.038" y2="0.23" xlink:href="#v"/><linearGradient id="bn" x1="0.684" y1="-0.102" x2="0.473" y2="0.585" xlink:href="#v"/><linearGradient id="bo" x1="1022.086" y1="0.662" x2="1028.019" y2="0.331" xlink:href="#v"/><linearGradient id="bp" x1="154.303" y1="-0.096" x2="154.094" y2="0.585" xlink:href="#v"/><linearGradient id="bq" x1="0.417" y1="0.374" x2="0.878" y2="1.08" xlink:href="#v"/><linearGradient id="br" x1="0.248" y1="0.961" x2="0.894" y2="-0.203" gradientUnits="objectBoundingBox"><stop offset="0.035" stop-color="#9f19ab"/><stop offset="0.164" stop-color="#ae24b0"/><stop offset="0.412" stop-color="#d643bf"/><stop offset="0.631" stop-color="#ff63ce"/><stop offset="0.874" stop-color="#dc48c1"/></linearGradient><radialGradient id="bs" cx="0.72" cy="0.193" r="0.555" gradientTransform="translate(-0.552) scale(0.835 1)" xlink:href="#ae"/><linearGradient id="bt" x1="331.83" y1="0.374" x2="332.29" y2="1.08" xlink:href="#v"/><linearGradient id="bu" x1="334.257" y1="0.961" x2="334.903" y2="-0.203" xlink:href="#br"/><radialGradient id="bv" cx="0.28" cy="0.193" r="0.555" gradientTransform="matrix(-0.835, 0, 0, 1, 871.541, 0)" xlink:href="#ae"/><linearGradient id="bw" x1="318.262" y1="0.06" x2="318.374" y2="1.089" xlink:href="#v"/><linearGradient id="bx" x1="318.473" y1="-0.017" x2="318.084" y2="1.039" xlink:href="#br"/><radialGradient id="by" cx="0.674" cy="0.301" r="0.79" gradientTransform="matrix(-0.501, 0, 0, 1, 622.118, 0)" xlink:href="#ae"/><linearGradient id="bz" x1="0.5" y1="1.482" x2="0.5" y2="0.035" xlink:href="#v"/><linearGradient id="ca" x1="0.454" y1="0.06" x2="0.566" y2="1.089" xlink:href="#v"/><linearGradient id="cb" x1="0.665" y1="-0.017" x2="0.275" y2="1.039" xlink:href="#br"/><radialGradient id="cc" cx="0.326" cy="0.301" r="0.79" gradientTransform="translate(-1.633) scale(0.501 1)" xlink:href="#ae"/></defs><g transform="translate(-49.688 -73.284)"><g transform="translate(63.32 117.69)"><g class="c" transform="translate(0 0)"><ellipse class="d" cx="36.265" cy="36.265" rx="36.265" ry="36.265" transform="translate(0 29.114) rotate(-23.666)"/><circle class="e" cx="46.726" cy="46.726" r="46.726" transform="translate(-25.647 41.747) rotate(-45)"/><ellipse class="f" cx="31.405" cy="25.378" rx="31.405" ry="25.378" transform="translate(17.44 54.223) rotate(-35.545)"/><circle class="g" cx="37.063" cy="37.063" r="37.063" transform="translate(-14.974 33.406) rotate(-45)"/></g></g><g transform="translate(283.704 177.282)"><g transform="translate(4.58 10.606)"><path class="h" d="M438.409,99.748c-.041.1-.075.2-.114.293-.128.32-.25.639-.358.96-.05.147-.093.295-.139.442-.085.274-.165.548-.235.821-.041.158-.078.314-.114.471-.062.271-.115.543-.163.814-.026.149-.054.3-.076.446-.045.3-.077.607-.1.909-.01.11-.025.221-.032.33-.026.394-.039.785-.034,1.172,0,.016,0,.032,0,.048,0,.066.007.13.009.195q.015.492.064.976c.012.122.028.243.044.364s.026.255.046.38c.031.2.07.39.109.583.008.038.013.076.021.113.057.264.12.527.192.785.019.064.046.125.064.188.068.228.149.451.23.674.047.129.082.263.133.39.021.054.05.1.073.158.076.18.161.354.246.53.066.138.121.28.192.416.031.057.069.111.1.168.085.155.178.3.27.455.076.125.142.254.223.376s.174.257.265.383l3.861,5.341c-.177-.245-.332-.5-.488-.758-.092-.151-.185-.3-.27-.454-.1-.191-.2-.388-.293-.584-.084-.176-.17-.35-.245-.529s-.14-.365-.206-.549c-.081-.223-.161-.446-.229-.673-.1-.321-.187-.644-.257-.974-.008-.037-.013-.075-.021-.113-.064-.317-.113-.639-.154-.962-.016-.122-.032-.243-.044-.365q-.048-.483-.063-.974c0-.066-.008-.131-.01-.2-.006-.4,0-.81.031-1.219.007-.11.023-.221.032-.331.027-.3.059-.6.1-.908.022-.149.05-.3.076-.448.048-.271.1-.542.163-.813.035-.156.073-.314.114-.471.07-.273.15-.546.234-.819.046-.149.089-.3.14-.444.108-.319.229-.637.357-.955.039-.1.073-.2.115-.3q.261-.622.574-1.239c.052-.1.112-.205.166-.307.165-.314.336-.626.521-.936.068-.113.138-.226.208-.338q.276-.445.58-.884c.074-.107.145-.215.222-.321.13-.181.273-.358.409-.536.223-.291.449-.581.689-.866.282-.334.566-.666.872-.991.17-.181.345-.356.52-.531q.483-.481.987-.932c.064-.057.129-.112.193-.168q.442-.386.9-.747c.058-.046.115-.093.173-.138q.509-.4,1.034-.759c.078-.055.158-.108.237-.161.344-.233.691-.459,1.043-.672l.08-.051c.392-.235.791-.455,1.192-.666l.232-.122q.639-.327,1.288-.611l.21-.089q.749-.319,1.508-.582l.276-.093q.356-.118.713-.223c.1-.03.2-.06.3-.088.332-.093.664-.179,1-.255l.112-.023c.256-.057.512-.111.768-.158.1-.019.2-.033.3-.05.192-.032.384-.065.576-.092.118-.016.235-.028.352-.042.175-.021.349-.043.524-.06.124-.012.247-.019.371-.028.167-.013.334-.026.5-.033.127-.006.253-.009.38-.012.161-.005.324-.01.485-.01.128,0,.255,0,.383,0,.158,0,.316.007.473.014.128.006.255.014.383.023.155.01.309.022.463.037.127.012.254.026.381.041q.229.027.454.06c.126.019.251.039.376.06.15.026.3.054.447.084.123.024.246.05.369.078.147.033.293.07.439.107.12.032.24.062.359.1.145.041.289.087.433.132.116.037.233.073.348.113.144.05.286.1.428.16.111.042.223.084.333.129.144.06.286.124.428.189.1.047.209.093.311.142.145.071.288.148.431.224.1.051.192.1.286.152.156.089.309.184.462.279.076.047.154.091.228.14.226.147.448.3.665.463a11.846,11.846,0,0,1,2.533,2.56l-3.861-5.342a11.856,11.856,0,0,0-2.532-2.56q-.325-.242-.664-.462c-.076-.049-.154-.093-.231-.141-.152-.095-.3-.19-.461-.278-.093-.053-.19-.1-.284-.151-.143-.077-.286-.153-.432-.224-.1-.05-.208-.1-.313-.143-.141-.064-.282-.129-.425-.188-.111-.046-.223-.087-.334-.13-.142-.055-.284-.109-.428-.159-.115-.04-.232-.077-.348-.114-.143-.046-.286-.091-.431-.132-.12-.034-.241-.066-.362-.1-.145-.037-.291-.073-.437-.107q-.183-.041-.369-.078c-.149-.03-.3-.058-.448-.084-.124-.021-.25-.041-.375-.06q-.226-.033-.453-.06-.191-.023-.383-.042c-.153-.014-.307-.026-.461-.037-.129-.008-.257-.017-.385-.023-.157-.008-.315-.011-.472-.014-.128,0-.256-.005-.385-.005-.16,0-.32.005-.481.01-.128,0-.255.006-.384.012-.165.008-.331.021-.5.033-.125.01-.249.017-.374.029-.173.016-.347.038-.52.059-.119.014-.238.026-.357.043-.19.026-.38.059-.57.091-.1.017-.2.032-.307.05-.256.048-.512.1-.769.158-.036.008-.072.014-.108.022h0c-.332.076-.664.163-1,.255-.1.028-.2.059-.3.088q-.356.105-.712.222c-.06.021-.121.037-.181.057-.032.011-.063.025-.1.037q-.758.261-1.508.582c-.037.015-.074.026-.111.042s-.065.032-.1.046q-.649.285-1.288.612c-.034.017-.068.03-.1.047s-.087.051-.132.074c-.4.211-.8.43-1.192.666l-.018.01c-.022.013-.042.028-.064.041-.352.213-.7.438-1.041.671-.047.032-.1.059-.141.091s-.064.048-.1.07q-.524.365-1.034.759c-.018.014-.037.026-.055.04-.041.032-.08.068-.12.1q-.454.36-.895.744c-.044.038-.089.072-.133.111-.021.019-.041.041-.063.06q-.5.449-.985.931c-.028.028-.059.054-.087.082q-.219.221-.434.448-.365.388-.707.784c-.059.068-.107.138-.165.206-.241.286-.466.575-.689.866-.094.124-.2.243-.292.368-.041.056-.077.113-.118.17-.076.105-.147.212-.221.319q-.3.439-.581.886c-.07.112-.14.223-.206.336-.041.067-.085.133-.124.2-.142.245-.269.493-.4.74-.053.1-.112.2-.163.3Q438.672,99.124,438.409,99.748Z" transform="translate(-423.743 -79.972)"/><path class="i" d="M480.789,116.2c.351-.539.682-1.081,1-1.626.044-.075.095-.149.138-.224.076-.131.147-.264.221-.395.086-.152.172-.3.255-.457.154-.279.3-.56.448-.84.069-.134.141-.268.209-.4q.3-.588.572-1.178c.01-.022.021-.043.031-.064.192-.416.374-.832.549-1.249.055-.131.105-.262.159-.392.118-.289.233-.578.343-.867.059-.154.115-.309.17-.463q.148-.405.285-.811c.053-.157.105-.313.156-.47.091-.282.176-.564.26-.846.041-.139.084-.279.124-.417q.158-.56.3-1.119c.011-.046.024-.093.036-.138.1-.418.192-.836.277-1.253.026-.127.047-.253.071-.379.056-.293.109-.585.157-.877.024-.152.046-.3.069-.455q.06-.405.109-.809.029-.232.054-.461c.03-.277.054-.554.076-.83.011-.138.024-.277.033-.416.023-.351.039-.7.05-1.05,0-.06.006-.12.008-.179q.014-.564.007-1.124c0-.022,0-.043,0-.064-.009-.585-.039-1.165-.084-1.741-.011-.138-.024-.275-.037-.412-.049-.537-.111-1.071-.192-1.6-.006-.04-.008-.081-.014-.121,0-.013-.005-.025-.007-.038q-.112-.7-.26-1.388c-.027-.127-.06-.251-.089-.376-.077-.333-.157-.664-.247-.992-.016-.059-.028-.119-.044-.178-.035-.123-.077-.244-.114-.367-.068-.227-.136-.453-.211-.678-.061-.187-.127-.372-.192-.556-.079-.221-.16-.442-.245-.66-.033-.083-.06-.169-.093-.251-.044-.109-.095-.215-.14-.323-.077-.183-.155-.365-.236-.545s-.179-.388-.272-.581-.173-.356-.264-.533c-.039-.076-.073-.154-.113-.23-.064-.12-.134-.237-.2-.356-.086-.157-.173-.314-.263-.469-.115-.2-.234-.392-.354-.586-.093-.149-.184-.3-.28-.446-.031-.048-.059-.1-.091-.145q-.258-.388-.531-.767l-3.861-5.341c.216.3.421.6.623.912.1.147.187.3.279.444.121.2.241.39.356.589.089.154.175.309.261.465.107.195.212.39.314.588.091.176.178.354.264.532s.184.386.271.581.159.363.236.545.158.382.233.575c.085.218.166.439.244.659.066.185.132.37.193.557.074.224.143.45.21.676.054.182.109.363.159.547.089.327.17.659.247.991.029.126.062.25.089.376q.148.688.26,1.388c.008.053.013.107.022.16.08.528.143,1.063.192,1.6.013.137.026.273.037.411.044.576.075,1.156.084,1.741q.01.591,0,1.187c0,.063-.006.126-.008.189q-.016.518-.05,1.039c-.01.14-.023.28-.034.421-.022.275-.046.549-.075.825-.017.155-.035.311-.054.466q-.049.4-.109.8c-.023.154-.045.307-.07.461-.048.29-.1.581-.156.872-.024.127-.046.255-.072.382q-.126.626-.277,1.254c-.01.043-.023.086-.033.129q-.139.562-.3,1.127c-.039.138-.082.277-.123.415-.083.283-.169.566-.26.848-.05.156-.1.313-.156.469q-.137.406-.285.811c-.056.154-.112.309-.171.464-.109.288-.224.576-.341.864-.054.132-.105.264-.161.4q-.262.624-.549,1.247l-.033.07q-.274.589-.57,1.173c-.068.134-.14.268-.209.4-.146.28-.294.561-.448.841-.084.153-.17.306-.256.458-.117.206-.237.412-.358.617-.321.545-.653,1.088-1,1.627l-.062.1c-.37.566-.763,1.127-1.166,1.685q-.184.254-.372.506-.312.419-.636.834c-.143.183-.287.366-.434.548-.226.281-.459.56-.694.838-.142.168-.282.336-.428.5-.418.48-.845.958-1.29,1.429-.382.405-.773.8-1.167,1.189q-.225.222-.452.441-.437.423-.884.831c-.145.133-.289.268-.436.4q-.589.527-1.19,1.032c-.044.037-.086.075-.13.111q-.67.558-1.356,1.086c-.133.1-.268.2-.4.3q-.5.379-1.009.745c-.153.11-.306.219-.461.327q-.523.366-1.052.716c-.131.086-.26.175-.39.26q-.718.465-1.445.9c-.1.063-.211.122-.316.183q-.588.346-1.182.677c-.174.1-.349.188-.524.282q-.488.262-.981.513-.332.168-.665.329-.46.225-.924.438-.335.154-.671.3c-.285.126-.571.246-.856.366s-.582.242-.874.357c-.275.109-.551.214-.828.316-.293.109-.587.217-.881.32-.239.084-.479.163-.719.242q-.714.236-1.431.447c-.2.059-.4.121-.6.177-.666.186-1.332.36-2,.512-.069.015-.138.028-.206.043-.52.116-1.039.224-1.558.32-.2.037-.408.066-.611.1-.385.065-.769.131-1.153.184-.236.033-.471.057-.708.086-.35.042-.7.086-1.048.119-.25.024-.5.039-.749.058-.333.025-.666.051-1,.068-.256.012-.511.017-.765.024-.323.01-.647.019-.969.019-.258,0-.515-.005-.772-.01-.316-.006-.632-.014-.946-.028-.258-.012-.515-.029-.771-.046-.31-.021-.619-.044-.927-.073-.256-.024-.511-.053-.765-.083q-.457-.054-.911-.12-.378-.055-.754-.12c-.3-.051-.6-.107-.9-.167-.248-.05-.494-.1-.74-.157-.3-.066-.588-.14-.88-.215-.241-.062-.483-.125-.722-.193-.291-.083-.579-.173-.866-.264-.234-.075-.468-.148-.7-.228-.288-.1-.572-.209-.855-.318-.224-.086-.449-.169-.67-.261-.287-.118-.569-.248-.85-.376-.211-.1-.424-.188-.632-.289-.292-.142-.577-.3-.863-.448-.19-.1-.384-.2-.572-.3-.315-.178-.621-.369-.927-.559-.152-.094-.309-.182-.459-.28q-.68-.442-1.333-.927a23.772,23.772,0,0,1-5.079-5.134l3.86,5.341a23.779,23.779,0,0,0,5.079,5.135q.652.486,1.333.927c.151.1.306.186.459.28.307.19.613.381.927.559.188.105.381.2.572.3.286.152.571.306.863.448.208.1.421.193.632.289.282.128.563.257.85.376.221.091.446.175.67.26.284.109.567.218.855.318.232.08.466.154.7.228.287.091.575.182.866.264.239.068.48.131.722.193.292.076.585.149.881.215.245.055.491.107.739.156q.446.09.9.167.374.064.751.12.454.067.914.12c.253.03.507.058.762.082.308.03.617.053.928.074.257.017.513.034.771.046.315.014.631.022.947.028.256,0,.512.011.769.01.323,0,.649-.01.974-.019.253-.007.506-.012.761-.024.334-.017.669-.042,1-.068.248-.019.5-.034.744-.057.35-.033.7-.077,1.052-.12.235-.028.47-.052.7-.085.384-.054.768-.12,1.153-.185.2-.034.407-.062.611-.1.528-.1,1.057-.207,1.586-.326.057-.013.115-.022.172-.035h.006c.667-.152,1.333-.327,2-.513.2-.056.4-.118.6-.177q.717-.211,1.431-.446c.122-.041.244-.073.365-.114s.237-.088.357-.129c.293-.1.585-.21.878-.319.277-.1.554-.208.83-.316.292-.116.583-.236.873-.358.167-.07.335-.133.5-.2.118-.051.236-.109.354-.161.224-.1.448-.2.671-.3q.463-.213.924-.437c.223-.109.444-.218.665-.33.122-.062.246-.119.369-.183.206-.107.409-.221.614-.33.174-.093.349-.185.522-.281.4-.22.794-.448,1.188-.68.1-.061.207-.118.31-.18l.057-.033c.466-.28.928-.572,1.388-.87.132-.086.262-.175.394-.262.239-.158.479-.314.716-.477.111-.077.22-.158.331-.235.155-.109.31-.219.464-.33q.507-.364,1-.742c.134-.1.269-.2.4-.3.057-.044.115-.086.171-.13q.6-.467,1.185-.957c.044-.036.086-.075.129-.111.331-.278.661-.558.985-.846.069-.061.136-.125.2-.187.147-.131.291-.266.436-.4q.447-.409.884-.831c.151-.146.3-.292.451-.44.1-.1.2-.192.3-.291q.439-.443.869-.9c.444-.471.872-.948,1.29-1.429.042-.048.087-.095.129-.143.1-.119.2-.241.3-.361.235-.278.468-.556.694-.837.147-.183.291-.367.435-.551q.324-.414.635-.831c.077-.1.159-.2.235-.308.048-.066.091-.134.139-.2.4-.558.8-1.118,1.166-1.684C480.749,116.268,480.768,116.235,480.789,116.2Z" transform="translate(-416.367 -76.667)"/></g><path class="j" d="M420.5,75.013c14.359-15.226,36.922-19.418,50.4-9.364s12.765,30.544-1.594,45.771-36.925,19.416-50.4,9.364S406.145,90.235,420.5,75.013Zm36.568,27.278c7.163-7.595,7.518-17.81.8-22.822s-17.971-2.925-25.134,4.67-7.513,17.806-.79,22.821,17.967,2.922,25.125-4.668" transform="translate(-409.247 -60.177)"/></g><g transform="translate(248.353 73.284)"><path class="k" d="M673.538,226.525,601.91,196.646l4.563-11L678.1,215.527Z" transform="translate(-600.473 -185.514)"/><path class="l" d="M606.331,192.291c-1.26,3.037-3.6,4.953-5.218,4.28s-1.915-3.68-.655-6.718,3.6-4.953,5.218-4.281S607.59,189.254,606.331,192.291Z" transform="translate(-599.676 -185.439)"/><path class="m" d="M717.692,238.745c-1.259,3.037-3.6,4.953-5.218,4.281s-1.915-3.68-.655-6.718,3.6-4.953,5.218-4.281S718.952,235.708,717.692,238.745Z" transform="translate(-639.409 -202.014)"/><path class="n" d="M606.026,192.957c-.82,1.976-2.34,3.223-3.4,2.785s-1.246-2.395-.426-4.371,2.34-3.223,3.4-2.785S606.845,190.981,606.026,192.957Z" transform="translate(-600.396 -186.531)"/></g><g transform="translate(253.712 87.224)"><path class="o" d="M641.52,253.366l5.784-3.691a19.59,19.59,0,0,1-5.632,2.481,20.286,20.286,0,0,1-6.859.578,23.326,23.326,0,0,1-19.747-30.6,20.267,20.267,0,0,1,3.354-6.011A19.59,19.59,0,0,1,623,212.009l-5.783,3.691c-9.7,6.26-12.125,19.766-5.414,30.167S631.819,259.626,641.52,253.366Z" transform="translate(-608.008 -208.858)"/><path class="p" d="M652.03,226.537a22.89,22.89,0,0,1,2.521,20.047l.1.153c7.961-5.137,9.95-16.221,4.443-24.757s-16.427-11.291-24.388-6.154l.1.153A22.887,22.887,0,0,1,652.03,226.537Z" transform="translate(-617.533 -209.297)"/><path class="q" d="M638.028,250.986a20.286,20.286,0,0,0,6.859-.578,19.59,19.59,0,0,0,5.632-2.481c9.7-6.26,12.125-19.766,5.414-30.167s-20.016-13.759-29.717-7.5a19.591,19.591,0,0,0-4.581,4.109,20.268,20.268,0,0,0-3.354,6.011,23.326,23.326,0,0,0,19.747,30.6Zm-9.806-37.223c.091.006.181.021.271.028l-.1-.153c7.962-5.137,18.88-2.381,24.388,6.154s3.518,19.62-4.443,24.757l-.1-.153c-.031.086-.055.174-.087.259a16.556,16.556,0,0,1-12.963,1.934,19.342,19.342,0,0,1-14.074-21.812A16.557,16.557,0,0,1,628.223,213.763Z" transform="translate(-611.224 -207.11)"/></g><g transform="translate(57.864 88.872)"><g class="r" transform="translate(0 0)"><ellipse class="s" cx="22.772" cy="22.772" rx="22.772" ry="22.772" transform="translate(0 13.887) rotate(-17.753)"/><ellipse class="t" cx="29.34" cy="29.34" rx="29.34" ry="29.34" transform="matrix(0.925, -0.38, 0.38, 0.925, -14.264, 8.851)"/><ellipse class="u" cx="19.72" cy="15.936" rx="19.72" ry="15.936" transform="translate(9.585 32.681) rotate(-35.545)"/><circle class="v" cx="23.273" cy="23.273" r="23.273" transform="translate(-10.769 19.61) rotate(-45)"/></g></g><circle class="w" cx="77" cy="77" r="77" transform="translate(129 184)"/><g transform="translate(0 44)"><circle class="x" cx="91" cy="91" r="91" transform="translate(115 95)"/><g class="y" transform="translate(115 95)"><g transform="translate(10.165 20.283)"><g transform="translate(27.422 0)"><path class="z" d="M0,32.785,56,65.627,112,32.67,55.874,0Z" transform="translate(0 66.137)"/><path class="aa" d="M0,29.229V100.35L49.723,71.556V0Z" transform="translate(54.809 29.157)"/><path class="ab" d="M49.98,29.311v71.121L0,71.556V0Z" transform="translate(4.892 29.075)"/><path class="ac" d="M0,29.075,49.98,58.386,99.64,29.157,49.551,0Z" transform="translate(4.892)"/><path class="ad" d="M0,5.442V76.549l9.138-5.007V0Z" transform="translate(75.732 40.794)"/><path class="ae" d="M0,5.288l50.392,29.47,9.076-5.442L8.967,0Z" transform="translate(25.403 11.479)"/><path class="af" d="M8.863,5.3V76.411L0,71.542V0Z" transform="translate(25.126 41.07)"/><path class="ag" d="M58.78,5.151,8.8,34.462,0,29.157,50.089,0Z" transform="translate(25.126 11.913)"/><g transform="translate(53.776 9.387)"><path class="ah" d="M8.071,20.557,0,15.908S8.134,4.416,15.692.777c4.535-2.183,9.762.585,11.391,3.967.979,2.029-1.264,5.476-3.8,7.013C16.514,15.854,8.071,20.557,8.071,20.557Z" transform="translate(0 0)"/><path class="ai" d="M23.328,5.557A7.862,7.862,0,0,1,27.1,4.795C25.5,1.39,20.25-1.417,15.693.777,8.134,4.415,0,15.908,0,15.908l7.831,4.511C9.052,18.743,16.42,8.883,23.328,5.557Z" transform="translate(0 0)"/><path class="aj" d="M19.02.007a7.851,7.851,0,0,0-3.756.761C8.355,4.094,0,16.1,0,16.1,1.221,14.42,8.588,4.56,15.5,1.234A7.862,7.862,0,0,1,19.273.472C19.2.315,19.111.161,19.02.007Z" transform="translate(7.832 4.323)"/></g><g transform="translate(28.647 9.731)"><path class="ak" d="M19.246,20.557l8.071-4.649S19.183,4.415,11.625.777C7.09-1.406,1.864,1.361.234,4.743c-.978,2.03,1.263,5.477,3.8,7.013C10.8,15.854,19.246,20.557,19.246,20.557Z" transform="translate(0 0)"/><path class="al" d="M3.776,5.557A7.862,7.862,0,0,0,0,4.795C1.6,1.389,6.855-1.417,11.412.777,18.971,4.415,27.1,15.908,27.1,15.908l-7.831,4.511C18.053,18.743,10.685,8.882,3.776,5.557Z" transform="translate(0.212 0)"/><path class="am" d="M.253.007A7.865,7.865,0,0,1,4.009.769C10.918,4.095,19.273,16.1,19.273,16.1,18.053,14.42,10.685,4.56,3.776,1.235A7.862,7.862,0,0,0,0,.473C.074.315.164.162.253.007Z" transform="translate(0.212 4.322)"/></g><g transform="translate(52.554 27.701)"><path class="an" d="M7.4.53s6.628-1.31,11.92.187C26.075,2.626,30.546,9.191,27.193,11.8s-6.8,5.029-10.476,3.026S0,5.327,0,5.327Z" transform="translate(0 0)"/><path class="ao" d="M12.293,5.327C7,3.83.372,5.141.372,5.141l-.327.212L0,5.327,7.4.53s6.628-1.31,11.92.187C26.075,2.626,30.546,9.191,27.193,11.8c-2.02,1.571-4.077,3.069-6.2,3.577C22.459,12.368,18.279,7.019,12.293,5.327Z" transform="translate(0 0)"/><path class="ap" d="M.653.658.7.685S7.653-.838,12.945.658c5.987,1.693,10.166,7.04,8.7,10.05.37-.088-.063.138-.652.28,1.463-3.009-2.717-8.358-8.7-10.05C7-.559.372.752.372.752L.045.964,0,.938Z" transform="translate(0 4.389)"/></g><path class="aq" d="M8.852,2.643,6.693.8A3.313,3.313,0,0,0,2.3.871L0,2.979,4.185,6.006Z" transform="translate(50.507 25.864)"/><g transform="translate(28.302 27.701)"><path class="ar" d="M20.929.53S14.3-.779,9.008.717C2.257,2.626-2.213,9.191,1.139,11.8s6.8,5.029,10.477,3.026,16.715-9.5,16.715-9.5Z" transform="translate(0 0)"/><path class="as" d="M16.04,5.327c5.291-1.5,11.92-.187,11.92-.187l.327.212.045-.025-7.4-4.8S14.3-.779,9.008.717C2.257,2.626-2.213,9.191,1.139,11.8c2.022,1.571,4.077,3.069,6.2,3.577C5.874,12.368,10.053,7.019,16.04,5.327Z" transform="translate(0 0)"/><path class="at" d="M21.289.658l-.045.026S14.288-.838,9,.658C3.01,2.351-1.169,7.7.293,10.708c-.369-.088.063.138.653.28C-.518,7.979,3.662,2.63,9.649.938c5.291-1.5,11.92-.187,11.92-.187L21.9.964l.045-.025Z" transform="translate(6.391 4.389)"/></g></g><g transform="translate(0 72.316)"><path class="z" d="M0,26.467,45.21,52.981,90.416,26.374,45.107,0Z" transform="translate(0 33.37)"/><path class="au" d="M0,23.6V60.991L40.141,37.746V0Z" transform="translate(44.247 23.538)"/><path class="av" d="M40.349,23.663V61.057L0,37.746V0Z" transform="translate(3.949 23.473)"/><path class="aw" d="M0,23.473,40.349,47.135l40.091-23.6L40,0Z" transform="translate(3.949)"/><path class="ax" d="M0,4.394V41.776l7.377-4.042V0Z" transform="translate(61.138 32.933)"/><path class="ay" d="M0,4.269,40.681,28.06l7.327-4.394L7.239,0Z" transform="translate(20.508 9.267)"/><path class="az" d="M7.155,4.282V41.665L0,37.734V0Z" transform="translate(20.284 33.156)"/><path class="ba" d="M47.453,4.158,7.1,27.821,0,23.538,40.437,0Z" transform="translate(20.284 9.617)"/><g transform="translate(43.414 7.578)"><path class="bb" d="M6.515,16.6,0,12.842S6.566,3.564,12.668.627a7.228,7.228,0,0,1,9.2,3.2c.79,1.638-1.02,4.421-3.069,5.662C13.333,12.8,6.515,16.6,6.515,16.6Z" transform="translate(0 0)"/><path class="bc" d="M18.833,4.486a6.355,6.355,0,0,1,3.049-.615A7.223,7.223,0,0,0,12.668.627C6.566,3.564,0,12.842,0,12.842l6.322,3.642C7.307,15.131,13.256,7.171,18.833,4.486Z" transform="translate(0 0)"/><path class="bd" d="M15.355.006A6.341,6.341,0,0,0,12.323.62C6.746,3.3,0,12.994,0,12.994.985,11.641,6.934,3.681,12.511,1A6.355,6.355,0,0,1,15.56.38C15.5.254,15.428.13,15.355.006Z" transform="translate(6.322 3.49)"/></g><g transform="translate(23.126 7.856)"><path class="be" d="M15.537,16.6l6.516-3.753S15.487,3.564,9.385.627a7.228,7.228,0,0,0-9.2,3.2C-.6,5.468,1.209,8.251,3.258,9.491,8.721,12.8,15.537,16.6,15.537,16.6Z" transform="translate(0 0)"/><path class="bf" d="M3.049,4.486A6.341,6.341,0,0,0,0,3.872,7.222,7.222,0,0,1,9.214.627c6.1,2.937,12.668,12.215,12.668,12.215l-6.323,3.642C14.574,15.131,8.626,7.171,3.049,4.486Z" transform="translate(0.172 0)"/><path class="bg" d="M.2.006A6.343,6.343,0,0,1,3.237.62C8.814,3.3,15.558,12.994,15.558,12.994c-.984-1.354-6.933-9.314-12.51-12A6.341,6.341,0,0,0,0,.381C.059.254.132.13.2.006Z" transform="translate(0.172 3.49)"/></g><g transform="translate(42.427 22.363)"><path class="bh" d="M5.977.429S11.327-.629,15.6.579c5.451,1.541,9.059,6.842,6.353,8.947s-5.488,4.06-8.458,2.443S0,4.3,0,4.3Z" transform="translate(0 0)"/><path class="bi" d="M9.924,4.3C5.652,3.093.3,4.15.3,4.15l-.265.171L0,4.3,5.977.429S11.329-.629,15.6.579c5.451,1.541,9.059,6.842,6.353,8.947a14.3,14.3,0,0,1-5,2.887C18.131,9.984,14.756,5.667,9.924,4.3Z" transform="translate(0 0)"/><path class="bj" d="M.526.532.563.553S6.178-.677,10.451.532c4.832,1.367,8.206,5.684,7.025,8.113.3-.071-.051.112-.526.225C18.131,6.441,14.756,2.124,9.924.757,5.652-.45.3.606.3.606L.036.778,0,.757Z" transform="translate(0 3.543)"/></g><path class="bk" d="M7.147,2.134,5.4.642A2.676,2.676,0,0,0,1.858.7L0,2.405,3.379,4.849Z" transform="translate(40.775 20.881)"/><g transform="translate(22.848 22.363)"><path class="bl" d="M16.9.429S11.545-.629,7.273.579C1.822,2.121-1.787,7.421.92,9.526s5.488,4.06,8.458,2.443S22.873,4.3,22.873,4.3Z" transform="translate(0 0)"/><path class="bm" d="M12.949,4.3c4.273-1.207,9.623-.151,9.623-.151l.265.171.036-.021L16.9.429S11.545-.629,7.273.579C1.822,2.121-1.787,7.421.92,9.526a14.306,14.306,0,0,0,5,2.887C4.741,9.984,8.117,5.667,12.949,4.3Z" transform="translate(0 0)"/><path class="bn" d="M17.187.532l-.036.021S11.536-.677,7.263.532C2.431,1.9-.944,6.215.237,8.644c-.3-.071.051.112.526.225C-.418,6.441,2.957,2.124,7.789.757,12.062-.45,17.413.606,17.413.606l.265.171.036-.021Z" transform="translate(5.159 3.543)"/></g></g><g transform="translate(77.034 95.423)"><path class="z" d="M0,24.985,42.679,50.014,85.353,24.9,42.582,0Z" transform="translate(0 19.366)"/><path class="bo" d="M0,22.276V45.44L37.894,23.5V0Z" transform="translate(41.77 22.22)"/><path class="bp" d="M38.089,22.338V45.5L0,23.5V0Z" transform="translate(3.728 22.158)"/><path class="bq" d="M0,22.158,38.089,44.5,75.935,22.22,37.763,0Z" transform="translate(3.728 0)"/><path class="br" d="M0,4.148V27.3l6.964-3.816V0Z" transform="translate(57.715 31.089)"/><path class="bs" d="M0,4.03,38.4,26.489l6.917-4.148L6.834,0Z" transform="translate(19.359 8.748)"/><path class="bt" d="M6.754,4.043V27.2L0,23.485V0Z" transform="translate(19.148 31.299)"/><path class="bu" d="M44.8,3.925,6.707,26.263,0,22.22,38.172,0Z" transform="translate(19.148 9.079)"/><g transform="translate(40.983 7.153)"><path class="bv" d="M6.15,15.667,0,12.124S6.2,3.365,11.958.592a6.824,6.824,0,0,1,8.681,3.024c.746,1.547-.962,4.174-2.9,5.344C12.586,12.083,6.15,15.667,6.15,15.667Z" transform="translate(0 0)"/><path class="bw" d="M17.778,4.235a5.988,5.988,0,0,1,2.878-.58,6.817,6.817,0,0,0-8.7-3.063C6.2,3.365,0,12.124,0,12.124l5.968,3.438C6.9,14.284,12.513,6.77,17.778,4.235Z" transform="translate(0 0)"/><path class="bx" d="M14.495.005a5.984,5.984,0,0,0-2.863.58C6.367,3.12,0,12.267,0,12.267.929,10.989,6.545,3.475,11.81.94A5.988,5.988,0,0,1,14.687.36C14.631.239,14.563.123,14.495.005Z" transform="translate(5.968 3.295)"/></g><g transform="translate(21.831 7.416)"><path class="by" d="M14.667,15.667l6.15-3.543S14.62,3.365,8.86.592A6.824,6.824,0,0,0,.179,3.615c-.746,1.547.962,4.173,2.9,5.344C8.232,12.082,14.667,15.667,14.667,15.667Z" transform="translate(0 0)"/><path class="bz" d="M2.878,4.235A6,6,0,0,0,0,3.654,6.818,6.818,0,0,1,8.7.592c5.76,2.773,11.958,11.532,11.958,11.532l-5.968,3.438C13.758,14.284,8.142,6.77,2.878,4.235Z" transform="translate(0.162 0)"/><path class="ca" d="M.192.005a5.977,5.977,0,0,1,2.862.58C8.32,3.12,14.687,12.267,14.687,12.267,13.758,10.989,8.142,3.475,2.878.94A6,6,0,0,0,0,.359C.056.239.124.123.192.005Z" transform="translate(0.162 3.295)"/></g><g transform="translate(40.052 21.11)"><path class="cb" d="M5.642.4s5.052-1,9.085.142c5.145,1.456,8.551,6.459,6,8.446s-5.18,3.833-7.984,2.307S0,4.06,0,4.06Z" transform="translate(0 0)"/><path class="cc" d="M9.369,4.06C5.335,2.92.283,3.918.283,3.918L.034,4.08,0,4.06,5.642.4s5.052-1,9.085.142c5.145,1.456,8.551,6.459,6,8.446A13.507,13.507,0,0,1,16,11.719C17.115,9.426,13.93,5.35,9.369,4.06Z" transform="translate(0 0)"/><path class="cd" d="M.5.5l.034.02S5.832-.639,9.865.5c4.562,1.29,7.747,5.366,6.633,7.659.281-.067-.048.105-.5.213C17.115,6.081,13.93,2,9.369.715,5.335-.426.283.573.283.573L.034.735,0,.715Z" transform="translate(0 3.345)"/></g><path class="ce" d="M6.746,2.014,5.1.606A2.524,2.524,0,0,0,1.753.663L0,2.271,3.19,4.577Z" transform="translate(38.492 19.711)"/><g transform="translate(21.569 21.11)"><path class="cf" d="M15.949.4s-5.051-1-9.084.142C1.72,2-1.687,7.006.869,8.992s5.18,3.833,7.984,2.307S21.592,4.06,21.592,4.06Z" transform="translate(0 0)"/><path class="cg" d="M12.224,4.06c4.033-1.14,9.084-.142,9.084-.142l.249.162.035-.02L15.949.4s-5.051-1-9.084.142C1.72,2-1.687,7.006.869,8.992a13.513,13.513,0,0,0,4.722,2.727C4.476,9.426,7.662,5.35,12.224,4.06Z" transform="translate(0 0)"/><path class="ch" d="M16.224.5l-.034.02S10.889-.639,6.856.5C2.294,1.792-.891,5.868.224,8.161c-.281-.067.047.105.5.213C-.395,6.081,2.791,2,7.353.715c4.033-1.14,9.084-.142,9.084-.142l.249.162.035-.02Z" transform="translate(4.87 3.345)"/></g></g></g></g></g></g></svg>