<svg xmlns="http://www.w3.org/2000/svg" width="15.9" height="17.5" viewBox="0 0 15.9 17.5"><defs><style>.a{fill:none;stroke:#9d98ec;stroke-linecap:round;stroke-linejoin:round;stroke-width:1.5px;}</style></defs><g transform="translate(-3.75 -2.25)"><path class="a" d="M27.3,5.4A2.4,2.4,0,1,1,24.9,3a2.4,2.4,0,0,1,2.4,2.4Z" transform="translate(-8.4 0)"/><path class="a" d="M9.3,15.9a2.4,2.4,0,1,1-2.4-2.4A2.4,2.4,0,0,1,9.3,15.9Z" transform="translate(0 -4.9)"/><path class="a" d="M27.3,26.4A2.4,2.4,0,1,1,24.9,24,2.4,2.4,0,0,1,27.3,26.4Z" transform="translate(-8.4 -9.8)"/><path class="a" d="M12.885,20.265l5.464,3.184" transform="translate(-3.913 -8.057)"/><path class="a" d="M18.341,9.765l-5.456,3.184" transform="translate(-3.913 -3.157)"/></g></svg>