<svg xmlns="http://www.w3.org/2000/svg" width="184.124" height="152.297" viewBox="0 0 184.124 152.297"><defs><style>.a{fill:#04a550;}.b{fill:#0cc166;}.c{fill:#29e088;}.d{fill:#efe;}.e{fill:#c2ffc2;}.f{fill:#79ff79;}.g{fill:#ffe059;}.h{fill:#ffaf40;}.i{fill:#ff993a;}.j{fill:#fff370;}.k{fill:#ffc751;}.l{fill:#fff7c7;}.m{fill:#e86300;}.n{fill:#f97c15;}.o{fill:#d84d00;}.p{fill:#5cceff;}.q{fill:#73e1ff;}.r{fill:#b6f0ff;}.s{fill:#27b2ff;}.t{fill:#008cff;}.u{fill:#706c64;}.v{fill:#8f8b81;}.w{fill:#e8e4d8;}.x{fill:#f1eee0;}.y{fill:#f9f8f2;}</style></defs><g transform="translate(0 -44.251)"><g transform="translate(0 44.251)"><g transform="translate(50.171 0)"><g transform="translate(0 0.002)"><path class="a" d="M269.976,181.173H143a3.488,3.488,0,0,1-3.488-3.488V112.377A3.488,3.488,0,0,1,143,108.889H269.976a3.488,3.488,0,0,1,3.488,3.488v65.308A3.488,3.488,0,0,1,269.976,181.173Z" transform="translate(-139.512 -85.646)"/><path class="b" d="M269.976,160.712H143a3.488,3.488,0,0,1-3.488-3.488V91.916A3.488,3.488,0,0,1,143,88.428H269.976a3.488,3.488,0,0,1,3.488,3.488v65.308A3.488,3.488,0,0,1,269.976,160.712Z" transform="translate(-139.512 -72.543)"/><path class="a" d="M269.976,140.251H143a3.488,3.488,0,0,1-3.488-3.488V71.455A3.488,3.488,0,0,1,143,67.967H269.976a3.488,3.488,0,0,1,3.488,3.488v65.308A3.488,3.488,0,0,1,269.976,140.251Z" transform="translate(-139.512 -59.44)"/><path class="c" d="M269.976,116.54H143a3.488,3.488,0,0,1-3.488-3.488V47.744A3.488,3.488,0,0,1,143,44.256H269.976a3.488,3.488,0,0,1,3.488,3.488v65.308A3.488,3.488,0,0,1,269.976,116.54Z" transform="translate(-139.512 -44.256)"/><path class="b" d="M417.267,47.744v65.306a3.487,3.487,0,0,1-3.488,3.488H364.068A69.469,69.469,0,0,0,410.625,50.96c0-2.26-.108-4.5-.321-6.7h3.474A3.49,3.49,0,0,1,417.267,47.744Z" transform="translate(-283.314 -44.256)"/><path class="d" d="M158.912,118.5V67.144a3.488,3.488,0,0,1,3.488-3.488H275.423a3.488,3.488,0,0,1,3.488,3.488V118.5a3.488,3.488,0,0,1-3.488,3.488H162.4A3.488,3.488,0,0,1,158.912,118.5Z" transform="translate(-151.935 -56.679)"/><path class="e" d="M415.806,67.143V118.5a3.487,3.487,0,0,1-3.488,3.488H372.681a63.066,63.066,0,0,0,37.82-57.8c0-.178,0-.356,0-.534h1.821A3.49,3.49,0,0,1,415.806,67.143Z" transform="translate(-288.829 -56.679)"/><path class="b" d="M461.256,78.224H447.144a3.488,3.488,0,0,1-3.488-3.488V63.656h14.112a3.488,3.488,0,0,1,3.488,3.488Z" transform="translate(-334.281 -56.679)"/><path class="b" d="M176.512,199.919H162.4a3.488,3.488,0,0,1-3.488-3.488V185.351h14.112a3.488,3.488,0,0,1,3.488,3.488Z" transform="translate(-151.935 -134.611)"/><path class="a" d="M179.7,188.843v11.079h-14.11a3.453,3.453,0,0,1-1.7-.443,14.51,14.51,0,0,0,11.2-14.124h1.12A3.487,3.487,0,0,1,179.7,188.843Z" transform="translate(-155.119 -134.613)"/></g><g transform="translate(26.461 28.601)"><circle class="a" cx="7.543" cy="7.543" r="7.543"/><circle class="b" cx="5.235" cy="5.235" r="5.235" transform="translate(0 2.308)"/><g transform="translate(65.945)"><circle class="a" cx="7.543" cy="7.543" r="7.543"/><circle class="b" cx="5.235" cy="5.235" r="5.235" transform="translate(0 2.308)"/></g></g><g transform="translate(47.061 12.258)"><ellipse class="b" cx="19.916" cy="23.886" rx="19.916" ry="23.886"/><path class="a" d="M318.6,106.845c0,13.189-8.916,23.884-19.914,23.884-6.09,0-11.546-3.283-15.2-8.452a17.249,17.249,0,0,0,9.031,2.588c11,0,19.914-10.7,19.914-23.887a26.77,26.77,0,0,0-4.709-15.425c6.457,3.952,10.876,12,10.876,21.292Z" transform="translate(-278.775 -82.958)"/><path class="f" d="M310.6,114.536H309.53v-5.653H314.5a2.14,2.14,0,0,0,0-4.279H309.53v-1.558a2.14,2.14,0,0,0-4.279,0V104.6h-1.067a7.106,7.106,0,1,0,0,14.212h1.067v5.652h-4.974a2.14,2.14,0,1,0,0,4.279h4.974v1.559a2.14,2.14,0,0,0,4.279,0v-1.559H310.6a7.106,7.106,0,0,0,0-14.212Zm-6.414,0a2.826,2.826,0,1,1,0-5.653h1.067v5.653Zm6.414,9.932H309.53v-5.652H310.6a2.826,2.826,0,1,1,0,5.652Z" transform="translate(-287.475 -92.79)"/><g transform="translate(17.776 16.093)"><path class="c" d="M319.8,150.708h4.28v3.815H319.8Z" transform="translate(-319.804 -140.776)"/><path class="c" d="M319.8,123.089h4.28V126.5H319.8Z" transform="translate(-319.804 -123.089)"/></g><path class="e" d="M305.206,134.134a2.824,2.824,0,0,1-2.5-1.5,2.138,2.138,0,0,0-3.8,1.955,7.1,7.1,0,0,0,6.3,3.83h6.414a2.828,2.828,0,0,1,2.474,1.461,2.114,2.114,0,0,0,1.853,1.079,2.141,2.141,0,0,0,1.853-3.205,7.1,7.1,0,0,0-6.179-3.614Z" transform="translate(-288.498 -112.388)"/></g><path class="b" d="M418.347,205.6v3.8a3.487,3.487,0,0,1-3.488,3.488h-38.21v-3.8a3.489,3.489,0,0,1,3.488-3.488Z" transform="translate(-291.371 -147.578)"/><path class="b" d="M197.125,70.94H158.916v-3.8a3.488,3.488,0,0,1,3.488-3.488h38.209v3.8A3.488,3.488,0,0,1,197.125,70.94Z" transform="translate(-151.938 -56.678)"/><path class="f" d="M235.931,44.251H190.777a3.49,3.49,0,1,0,0,6.98H236.05a3.49,3.49,0,0,0,3.483-3.722,3.57,3.57,0,0,0-3.6-3.258Z" transform="translate(-170.106 -44.251)"/><path class="e" d="M219.975,44.251H209.862a3.49,3.49,0,1,0,0,6.98h10.113a3.49,3.49,0,1,0,0-6.98Z" transform="translate(-182.328 -44.251)"/><path class="a" d="M469.792,67.149V78.228H456.983a16.625,16.625,0,0,0,8.6-14.567h.722A3.487,3.487,0,0,1,469.792,67.149Z" transform="translate(-342.815 -56.681)"/><g transform="translate(12.121 17.855)"><g transform="translate(94.523 31.1)"><path class="c" d="M448.509,185.857H438.8a2.738,2.738,0,1,1,0-5.477h9.711a2.738,2.738,0,0,1,0,5.477Z" transform="translate(-436.06 -180.38)"/><path class="f" d="M448.538,180.381h-1.775a2.738,2.738,0,1,0,0,5.477h1.775a2.738,2.738,0,0,0,0-5.477Z" transform="translate(-441.16 -180.381)"/></g><path class="f" d="M185.666,99.377h-9.711a2.738,2.738,0,0,1,0-5.477h9.711a2.738,2.738,0,0,1,0,5.477Z" transform="translate(-173.217 -93.9)"/><path class="e" d="M185.695,93.9h-1.775a2.738,2.738,0,0,0,0,5.477h1.775a2.738,2.738,0,1,0,0-5.477Z" transform="translate(-178.317 -93.901)"/></g><path class="a" d="M435.894,205.6v3.8a3.487,3.487,0,0,1-3.488,3.488H404.05a69.82,69.82,0,0,0,9.512-7.283Z" transform="translate(-308.918 -147.578)"/></g><g transform="translate(0 23.224)"><circle class="g" cx="35.007" cy="35.007" r="35.007" transform="translate(0.001)"/><circle class="h" cx="24.474" cy="24.474" r="24.474" transform="translate(10.534 10.533)"/><path class="i" d="M79.693,165.138a24.476,24.476,0,0,1-48.131,6.285,21.714,21.714,0,0,0,31.916-29.33,24.483,24.483,0,0,1,16.215,23.045Z" transform="translate(-20.212 -130.132)"/><path class="j" d="M33.632,173.945a5.124,5.124,0,0,0-4.038-4.98,24.479,24.479,0,0,1,0-47.743,5.124,5.124,0,0,0,4.038-4.98v-.361a5.1,5.1,0,0,0-6.216-4.966,35.013,35.013,0,0,0,0,68.357,5.1,5.1,0,0,0,6.216-4.966Z" transform="translate(0 -110.087)"/><path class="k" d="M123.393,211.3a5.2,5.2,0,0,0-6.716,3.711,24.473,24.473,0,0,1-21.554,18.644,5.265,5.265,0,0,0,1.035,10.479,35,35,0,0,0,30.772-26.7,5.2,5.2,0,0,0-3.434-6.1Z" transform="translate(-57.877 -174.275)"/><path class="l" d="M11.931,185.562a5.175,5.175,0,0,0,1.045-5.906,24.509,24.509,0,0,1,1.19-23.5,5.229,5.229,0,0,0-.726-6.448l-.074-.075a5.225,5.225,0,0,0-8.144.963A35.03,35.03,0,0,0,3.5,184.26a5.208,5.208,0,0,0,8.354,1.379Z" transform="translate(0 -133.981)"/><path class="m" d="M80,171.854h-.823v-5.527h5.133a2.715,2.715,0,0,0,0-5.43H79.173v-1.365a2.715,2.715,0,1,0-5.429,0V160.9h-.822a8.193,8.193,0,1,0,0,16.386h.823v5.527H68.611a2.715,2.715,0,0,0,0,5.43h5.132V189.6a2.715,2.715,0,1,0,5.429,0V188.24H80a8.193,8.193,0,1,0,0-16.386Zm-7.075,0a2.763,2.763,0,0,1,0-5.527h.823v5.527h-.823ZM80,182.81h-.823v-5.527H80a2.763,2.763,0,0,1,0,5.527Z" transform="translate(-41.451 -139.561)"/><g transform="translate(24.18 29.832)"><path class="n" d="M75.351,194.247h-.823a2.761,2.761,0,0,1-2.283-1.209,2.756,2.756,0,0,0-2.261-1.252,2.722,2.722,0,0,0-2.309,4.182,8.189,8.189,0,0,0,6.852,3.708H81.6a2.762,2.762,0,0,1,2.367,1.341,2.95,2.95,0,0,0,2.546,1.369,2.6,2.6,0,0,0,2.3-3.826,8.2,8.2,0,0,0-7.214-4.313H75.351Z" transform="translate(-67.237 -191.786)"/><path class="n" d="M79.825,231.81a2.715,2.715,0,0,0,2.715,2.715h5.843a2.715,2.715,0,0,0,0-5.43H82.54A2.715,2.715,0,0,0,79.825,231.81Z" transform="translate(-75.298 -215.678)"/></g><g transform="translate(32.293 26.766)"><path class="o" d="M89.8,183.26h5.429v3.414H89.8Z" transform="translate(-89.798 -183.26)"/><path class="o" d="M89.8,213.726h5.429V217.3H89.8Z" transform="translate(-89.798 -202.77)"/></g></g></g><g transform="translate(24.688 124.002)"><g transform="translate(0 0)"><path class="p" d="M179.979,338.563H73.471a4.819,4.819,0,0,1-4.819-4.819V270.836a4.819,4.819,0,0,1,4.819-4.819H179.979a4.819,4.819,0,0,1,4.819,4.819v62.908A4.819,4.819,0,0,1,179.979,338.563Z" transform="translate(-68.652 -266.017)"/><path class="q" d="M136.15,266.017H95.386a5.587,5.587,0,0,0,0,11.174H136.15a5.587,5.587,0,1,0,0-11.174Z" transform="translate(-82.194 -266.017)"/><path class="r" d="M135.095,266.017H123.371a5.587,5.587,0,0,0,0,11.174h11.724a5.587,5.587,0,0,0,0-11.174Z" transform="translate(-100.115 -266.017)"/><path class="s" d="M286.679,270.837v62.907a4.818,4.818,0,0,1-4.819,4.819H227.746A70.469,70.469,0,0,0,281,270.235q0-2.125-.125-4.217h.981A4.818,4.818,0,0,1,286.679,270.837Z" transform="translate(-170.533 -266.018)"/><path class="t" d="M331.2,412.514v15.043a4.818,4.818,0,0,1-4.819,4.819H297.265A70.366,70.366,0,0,0,331.2,412.514Z" transform="translate(-215.052 -359.831)"/><g transform="translate(92.722 47.596)"><path class="k" d="M342.759,403.893a8.391,8.391,0,1,0-7.766,11.261,2.719,2.719,0,0,1,1.828.685l.746.655a.908.908,0,0,0,1.5-.545l.15-.981a2.694,2.694,0,0,1,.948-1.69A8.392,8.392,0,0,0,342.759,403.893Z" transform="translate(-326.486 -398.369)"/><path class="h" d="M347.038,404.546a8.392,8.392,0,0,1-2.6,9.384,2.7,2.7,0,0,0-.947,1.691l-.151.981a.908.908,0,0,1-1.5.545l-.746-.655a2.711,2.711,0,0,0-1.828-.686,8.415,8.415,0,0,1-6.1-2.506,8.529,8.529,0,0,0,8.434-13.911A8.377,8.377,0,0,1,347.038,404.546Z" transform="translate(-330.765 -399.022)"/><path class="g" d="M331.546,414.219a2.011,2.011,0,0,0-.206-2.031,4.33,4.33,0,0,1-.59-1.134,4.422,4.422,0,0,1,1.247-4.69,2.016,2.016,0,0,0-2.7-3,8.391,8.391,0,0,0-1.2,11.218,2,2,0,0,0,3.432-.328Z" transform="translate(-326.487 -401.24)"/></g><g transform="translate(11.4 38.226)"><path class="u" d="M114.442,378.513H103.451a3.1,3.1,0,1,1,0-6.2h10.992a3.1,3.1,0,1,1,0,6.2Z" transform="translate(-100.351 -372.314)"/><path class="v" d="M114.474,372.313h-2.01a3.1,3.1,0,1,0,0,6.2h2.01a3.1,3.1,0,1,0,0-6.2Z" transform="translate(-106.123 -372.313)"/><g transform="translate(22.252)"><path class="u" d="M176.32,378.513H165.329a3.1,3.1,0,1,1,0-6.2H176.32a3.1,3.1,0,1,1,0,6.2Z" transform="translate(-162.229 -372.314)"/><path class="v" d="M176.353,372.313h-2.01a3.1,3.1,0,1,0,0,6.2h2.01a3.1,3.1,0,1,0,0-6.2Z" transform="translate(-168.002 -372.313)"/></g><g transform="translate(44.373)"><path class="u" d="M237.832,378.513H226.841a3.1,3.1,0,0,1,0-6.2h10.992a3.1,3.1,0,1,1,0,6.2Z" transform="translate(-223.741 -372.314)"/><path class="v" d="M237.865,372.313h-2.01a3.1,3.1,0,0,0,0,6.2h2.01a3.1,3.1,0,0,0,0-6.2Z" transform="translate(-229.514 -372.313)"/></g><g transform="translate(66.626)"><path class="u" d="M299.711,378.513H288.72a3.1,3.1,0,0,1,0-6.2h10.992a3.1,3.1,0,1,1,0,6.2Z" transform="translate(-285.62 -372.314)"/><path class="v" d="M299.744,372.313h-2.01a3.1,3.1,0,1,0,0,6.2h2.01a3.1,3.1,0,0,0,0-6.2Z" transform="translate(-291.393 -372.313)"/></g></g><g transform="translate(11.399 55.189)"><path class="w" d="M146.482,425.544h-43.1a3.031,3.031,0,0,1,0-6.061h43.1a3.031,3.031,0,0,1,0,6.061Z" transform="translate(-100.35 -419.483)"/><path class="x" d="M144.432,419.484h-20.1a3.03,3.03,0,0,0,0,6.06h20.1a3.03,3.03,0,0,0,0-6.06Z" transform="translate(-113.767 -419.484)"/><path class="y" d="M144.561,419.484h-4.573a3.031,3.031,0,1,0,0,6.061h4.573a3.031,3.031,0,0,0,0-6.061Z" transform="translate(-123.793 -419.484)"/></g><g transform="translate(11.4 11.174)"><path class="k" d="M116.983,315.623H103.966a3.614,3.614,0,0,1-3.615-3.615V300.7a3.615,3.615,0,0,1,3.615-3.615h13.017A3.615,3.615,0,0,1,120.6,300.7v11.3A3.614,3.614,0,0,1,116.983,315.623Z" transform="translate(-100.351 -297.089)"/><path class="g" d="M107.495,312.261v-3.626a3.571,3.571,0,1,0-7.143,0v3.626a3.571,3.571,0,1,0,7.143,0Z" transform="translate(-100.352 -302.196)"/><path class="h" d="M130.911,321.892v6a3.616,3.616,0,0,1-3.615,3.615H116.455A21.923,21.923,0,0,0,130.911,321.892Z" transform="translate(-110.664 -312.972)"/></g><path class="x" d="M291.456,297.7H260.75a2.41,2.41,0,0,1-2.41-2.41v-8.117a2.41,2.41,0,0,1,2.41-2.41h30.706a2.41,2.41,0,0,1,2.41,2.41v8.117A2.41,2.41,0,0,1,291.456,297.7Z" transform="translate(-190.125 -278.02)"/><path class="y" d="M270.062,287.906a3.144,3.144,0,0,0,3.144,3.144h13.472a3.144,3.144,0,0,0,0-6.288H273.206A3.144,3.144,0,0,0,270.062,287.906Z" transform="translate(-197.632 -278.021)"/><path class="w" d="M327.246,287.169v8.118a2.411,2.411,0,0,1-2.41,2.41H310.465a21.575,21.575,0,0,0,11.709-12.938h2.663A2.41,2.41,0,0,1,327.246,287.169Z" transform="translate(-223.505 -278.02)"/></g></g></g></svg>