<svg xmlns="http://www.w3.org/2000/svg" xmlns:xlink="http://www.w3.org/1999/xlink" width="195.804" height="276.804" viewBox="0 0 195.804 276.804"><defs><style>.a{fill:#fff;stroke:#f1f0ff;}.b{fill:none;}.c{fill:#9d98ec;opacity:0.339;}.d{fill:#2a286a;font-size:15px;font-family:Poppins-Regular, Poppins;}.e{fill:#adadad;font-size:10px;font-family:CircularStd-Book, Circular Std;}.f{clip-path:url(#a);}.g{clip-path:url(#b);}.h{fill:url(#c);}.i{fill:url(#d);}.j{fill:url(#e);}.k{fill:url(#f);}.l{fill:#3c58bf;}.m{stroke:none;}</style><clipPath id="a"><rect class="a" width="142" height="196" rx="15" transform="translate(115 166.143)"/></clipPath><clipPath id="b"><circle class="b" cx="48.387" cy="48.387" r="48.387" transform="matrix(0.842, -0.539, 0.539, 0.842, 0, 52.205)"/></clipPath><linearGradient id="c" x1="-3.529" y1="0.5" x2="-2.529" y2="0.5" gradientUnits="objectBoundingBox"><stop offset="0" stop-color="#00ebf9"/><stop offset="1" stop-color="#12a1ff"/></linearGradient><radialGradient id="d" cx="0.5" cy="0.5" r="0.5" gradientTransform="matrix(0.996, 0.094, -0.094, 0.996, 0.037, 0.212)" gradientUnits="objectBoundingBox"><stop offset="0.526" stop-color="#00ebf9" stop-opacity="0"/><stop offset="0.66" stop-color="#00ebf9" stop-opacity="0.008"/><stop offset="0.725" stop-color="#00ebf9" stop-opacity="0.039"/><stop offset="0.776" stop-color="#00ebf9" stop-opacity="0.09"/><stop offset="0.819" stop-color="#00ebf9" stop-opacity="0.169"/><stop offset="0.858" stop-color="#00ebf9" stop-opacity="0.263"/><stop offset="0.893" stop-color="#00ebf9" stop-opacity="0.384"/><stop offset="0.925" stop-color="#00ebf9" stop-opacity="0.525"/><stop offset="0.956" stop-color="#00ebf9" stop-opacity="0.694"/><stop offset="0.983" stop-color="#00ebf9" stop-opacity="0.875"/><stop offset="1" stop-color="#00ebf9"/></radialGradient><radialGradient id="e" cx="0.5" cy="0.5" r="0.5" gradientTransform="matrix(0, 1, -1, 0, 5.915, 36.087)" gradientUnits="objectBoundingBox"><stop offset="0" stop-color="#12a1ff"/><stop offset="0.122" stop-color="#12a1ff" stop-opacity="0.843"/><stop offset="0.367" stop-color="#12a1ff" stop-opacity="0.545"/><stop offset="0.586" stop-color="#12a1ff" stop-opacity="0.31"/><stop offset="0.771" stop-color="#12a1ff" stop-opacity="0.141"/><stop offset="0.915" stop-color="#12a1ff" stop-opacity="0.039"/><stop offset="1" stop-color="#12a1ff" stop-opacity="0"/></radialGradient><radialGradient id="f" cx="0.5" cy="0.5" r="0.5" gradientTransform="translate(0)" gradientUnits="objectBoundingBox"><stop offset="0" stop-color="aqua"/><stop offset="1" stop-color="aqua" stop-opacity="0"/></radialGradient></defs><g transform="translate(-89.098 -138.098)"><rect class="c" width="122" height="203" rx="12" transform="translate(126 175)"/><g class="a" transform="translate(115 166)"><rect class="m" width="143" height="198" rx="15"/><rect class="b" x="0.5" y="0.5" width="142" height="197" rx="14.5"/></g><text class="d" transform="translate(132 198)"><tspan x="0" y="0">****2345</tspan></text><text class="e" transform="translate(205 333)"><tspan x="0" y="0">EXPIRES</tspan><tspan x="0" y="13">12/2022</tspan></text><g class="f" transform="translate(0 1.857)"><g transform="translate(-93.746 -102.813)"><g class="g" transform="translate(260.746 291.381)"><circle class="h" cx="48.387" cy="48.387" r="48.387" transform="matrix(0.842, -0.539, 0.539, 0.842, 0, 52.205)"/><circle class="i" cx="62.344" cy="62.344" r="62.344" transform="matrix(0.996, -0.094, 0.094, 0.996, -10.866, 2.586)"/><ellipse class="j" cx="41.903" cy="33.861" rx="41.903" ry="33.861" transform="matrix(0.814, -0.581, 0.581, 0.814, 26.375, 75.451)"/><circle class="k" cx="49.452" cy="49.452" r="49.452" transform="translate(3.609 -1.775)"/></g></g></g><g transform="translate(-5972 -1824.343)"><path class="l" d="M184.8,195.883l2.753-15.483h4.3l-2.667,15.483Z" transform="translate(5939.07 1972.116)"/><path class="l" d="M261.16,176.288a10.91,10.91,0,0,0-3.957-.688c-4.3,0-7.4,2.15-7.4,5.247,0,2.322,2.15,3.527,3.871,4.3s2.236,1.29,2.236,1.978c0,1.032-1.376,1.548-2.58,1.548a9.35,9.35,0,0,1-4.129-.86l-.6-.258-.6,3.527a13.947,13.947,0,0,0,4.9.86c4.559,0,7.569-2.15,7.569-5.419,0-1.806-1.118-3.183-3.7-4.3-1.548-.774-2.494-1.2-2.494-1.978,0-.688.774-1.376,2.494-1.376a7.89,7.89,0,0,1,3.269.6l.43.172.688-3.355Z" transform="translate(5882.665 1976.4)"/><path class="l" d="M367.088,180.4c-1.032,0-1.806.086-2.236,1.118L358.4,195.883h4.645l.86-2.58h5.505l.516,2.58h4.129L370.442,180.4Zm-1.978,10.322c.258-.774,1.72-4.559,1.72-4.559s.344-.946.6-1.548l.258,1.462s.86,3.871,1.032,4.731h-3.613Z" transform="translate(5784.135 1972.116)"/><path class="l" d="M9.376,15.569,5.56,2A18.3,18.3,0,0,0,.774.172L0,0H8c.946,0,1.72.258,1.978,1.29L11.526,8.6l.43,2.236L16.343.086h4.645L14.021,15.569Z" transform="translate(6104 2152.516)"/></g></g></svg>