<svg xmlns="http://www.w3.org/2000/svg" xmlns:xlink="http://www.w3.org/1999/xlink" width="432.804" height="231.804" viewBox="0 0 432.804 231.804"><defs><style>.a{fill:rgba(0,0,0,0.35);opacity:0.339;}.b,.s{fill:#fff;}.b{stroke:#ffbfdd;}.c{fill:#adadad;font-size:12px;font-family:CircularStd-Book, Circular Std;letter-spacing:-0.012em;}.d{fill:#2a286a;font-size:20px;}.d,.t{font-family:Poppins-Bold, Poppins;font-weight:700;}.e{fill:url(#a);}.f{fill:url(#b);}.g{fill:url(#c);}.h{fill:url(#d);}.i{fill:url(#e);}.j{fill:#465969;}.k{fill:#334350;}.l{fill:#faa515;}.m{fill:#fad207;}.n{fill:#f8c201;fill-rule:evenodd;}.o{fill:#f5f5f5;}.p{fill:#e0a446;}.q,.r{fill:#d90368;}.q{opacity:0.378;}.s{font-size:13px;font-family:Poppins-Regular, Poppins;}.u{stroke:none;}.v{fill:none;}</style><linearGradient id="a" x1="-0.031" y1="0.5" x2="1.032" y2="0.5" gradientUnits="objectBoundingBox"><stop offset="0" stop-color="#f8f6f7"/><stop offset="0.179" stop-color="#f8f6f7"/><stop offset="1" stop-color="#e7e6f5"/></linearGradient><linearGradient id="b" x1="-0.129" y1="0.5" x2="1.18" y2="0.5" gradientUnits="objectBoundingBox"><stop offset="0" stop-color="#fff9df"/><stop offset="0.593" stop-color="#ffe177"/><stop offset="1" stop-color="#feb137"/></linearGradient><linearGradient id="c" x1="-0.129" y1="0.5" x2="1.18" y2="0.5" gradientUnits="objectBoundingBox"><stop offset="0" stop-color="#ffe177"/><stop offset="1" stop-color="#feb137"/></linearGradient><linearGradient id="d" x1="-0.092" y1="0.5" x2="0.887" y2="0.5" gradientUnits="objectBoundingBox"><stop offset="0" stop-color="#f8f6f7"/><stop offset="1" stop-color="#d1ceeb"/></linearGradient><linearGradient id="e" x1="0.363" y1="0.5" x2="0.761" y2="0.5" gradientUnits="objectBoundingBox"><stop offset="0" stop-color="#fe99a0"/><stop offset="0.593" stop-color="#fe646f"/><stop offset="1" stop-color="#e41f2d"/></linearGradient></defs><g transform="translate(9.902 -410.098)"><rect class="a" width="359" height="158" rx="12" transform="translate(27 447)"/><g class="b" transform="translate(16 447)"><rect class="u" width="380" height="149" rx="15"/><rect class="v" x="0.5" y="0.5" width="379" height="148" rx="14.5"/></g><text class="c" transform="translate(108 511)"><tspan x="0" y="0">Earn discounts when you pay your rent in advance</tspan></text><text class="d" transform="translate(108 490)"><tspan x="0" y="0">Get Discount on your rent</tspan></text><g transform="translate(-1 187)"><g transform="translate(41.351 281.913)"><path class="e" d="M126.336,169.277v19.028H85.192V169.277l12.6-14.812a10.465,10.465,0,0,1,15.94,0Z" transform="translate(-79.94 -146.639)"/><g transform="translate(17.828 23.59)"><path class="f" d="M204.992,329.388H189V313.964a2.652,2.652,0,0,1,2.652-2.652h10.687a2.652,2.652,0,0,1,2.652,2.652Z" transform="translate(-189 -311.312)"/><path class="g" d="M277.127,311.312H274.1a2.652,2.652,0,0,1,2.652,2.652v15.424h3.03V313.964A2.652,2.652,0,0,0,277.127,311.312Z" transform="translate(-263.788 -311.312)"/></g><path class="h" d="M126.334,169.282v19.029h-4.848V176.864a11.417,11.417,0,0,0-2.722-7.4l-8.338-9.8a6.125,6.125,0,0,0-9.328,0L89.542,173.248a4.485,4.485,0,0,1-3.418,1.58H85.19v-5.546l12.6-14.813a10.464,10.464,0,0,1,15.941,0Z" transform="translate(-79.938 -146.644)"/><path class="i" d="M75.044,126.581a6.125,6.125,0,0,1,9.33,0l11.555,13.583a4.487,4.487,0,0,0,3.418,1.579h2.738a1.784,1.784,0,0,0,1.359-2.94L87.68,120.274a10.466,10.466,0,0,0-15.942,0L55.974,138.8a1.784,1.784,0,0,0,1.359,2.94h2.738a4.487,4.487,0,0,0,3.418-1.579Z" transform="translate(-53.885 -116.59)"/><g transform="translate(0 40.392)"><path class="j" d="M89.851,457.269H45.471a3.634,3.634,0,0,1,0-7.269H89.851a3.634,3.634,0,0,1,0,7.269Z" transform="translate(-41.837 -450)"/><path class="k" d="M402.991,450h-4.848a3.634,3.634,0,0,1,0,7.269h4.848a3.634,3.634,0,0,0,0-7.269Z" transform="translate(-354.978 -450)"/></g></g><g transform="matrix(0.819, 0.574, -0.574, 0.819, 78.841, 299.406)"><path class="l" d="M12.437,0,7.46,2.424a2.154,2.154,0,0,0-1,1.057L.247,19.047a2.879,2.879,0,0,0,1.462,3.8l6.176,2.737h4.587Z" transform="translate(0 7.122)"/><path class="m" d="M18.673,21.535v3A3.1,3.1,0,0,1,15.606,27.6H3a3.04,3.04,0,0,1-3-3.067V6.883A2.206,2.206,0,0,1,.484,5.451L4.275.858A2.247,2.247,0,0,1,6,0h6.611A2.247,2.247,0,0,1,14.33.858l3.791,4.593a2.272,2.272,0,0,1,.553,1.432V21.535Z" transform="translate(7.599 6.781)"/><g transform="translate(11.909 17.596)"><path class="n" d="M3.965.752h0L3.948.734,3.92.705,3.215,0l-.1.2A2.205,2.205,0,0,0,2.368.07H2.3A2.214,2.214,0,0,0,.207,3.007L0,3.113l.73.732.009.009.01.01h0A2.207,2.207,0,0,0,2.3,4.5h.068A2.213,2.213,0,0,0,3.965.752Zm-1.6,2.725H2.3a1.193,1.193,0,0,1,0-2.385h.068a1.193,1.193,0,0,1,0,2.385Z" transform="translate(0 0.394)"/><path class="n" d="M10.128.682,9.446,0,0,9.446l.681.682a.511.511,0,0,0,.723,0L10.128,1.4A.511.511,0,0,0,10.128.682Z" transform="translate(0.235 0)"/><path class="n" d="M3.8.572h0L3.233,0,3.27.232a2.2,2.2,0,0,0-.923-.2H2.279A2.214,2.214,0,0,0,.25,3.132L0,3.1l.678.677q.036.038.074.074l.016.016h0a2.207,2.207,0,0,0,1.511.6h.068A2.213,2.213,0,0,0,3.8.572ZM2.347,3.437H2.279a1.193,1.193,0,0,1,0-2.385h.068a1.193,1.193,0,1,1,0,2.385Z" transform="translate(6.7 5.818)"/></g><g transform="translate(11.313 17.378)"><path class="o" d="M.511,9.745A.511.511,0,0,1,.15,8.873L8.873.15A.511.511,0,0,1,9.6.873L.873,9.6A.509.509,0,0,1,.511,9.745Z" transform="translate(0.681 0.068)"/><path class="o" d="M2.283,4.43H2.215a2.215,2.215,0,1,1,0-4.43h.068a2.215,2.215,0,0,1,0,4.43ZM2.215,1.022a1.193,1.193,0,1,0,0,2.385h.068a1.193,1.193,0,1,0,0-2.385Z" transform="translate(0 0)"/><path class="o" d="M2.283,4.43H2.215a2.215,2.215,0,1,1,0-4.43h.068a2.215,2.215,0,0,1,0,4.43ZM2.215,1.022a1.193,1.193,0,0,0,0,2.385h.068a1.193,1.193,0,1,0,0-2.385Z" transform="translate(6.679 5.384)"/></g><path class="p" d="M.511,10.938a.511.511,0,0,1-.142-1c.058-.017.116-.035.173-.055A3.85,3.85,0,0,0,3.148,6.236V.511a.511.511,0,1,1,1.022,0V6.236a4.872,4.872,0,0,1-3.3,4.612c-.072.025-.146.048-.22.069A.509.509,0,0,1,.511,10.938Z" transform="translate(17.501 0)"/><path class="o" d="M1.6,3.2A1.6,1.6,0,1,1,3.2,1.6,1.6,1.6,0,0,1,1.6,3.2Z" transform="translate(15.334 8.996)"/></g></g><g transform="translate(0 4)"><rect class="q" width="325" height="34" rx="17" transform="translate(44 543)"/><rect class="r" width="339" height="36" rx="18" transform="translate(37 536)"/></g><text class="s" transform="translate(97 563)"><tspan x="0" y="0">Pay now and get </tspan><tspan class="t" y="0">5%</tspan><tspan y="0" xml:space="preserve"> of your rent</tspan></text></g></svg>