<svg xmlns="http://www.w3.org/2000/svg" width="13.583" height="13.583" viewBox="0 0 13.583 13.583"><defs><style>.a{fill:#9d98ec;}</style></defs><path class="a" d="M8.513,5.961a.639.639,0,0,1,.637-.637h.424a.639.639,0,0,1,.637.637v.424a.639.639,0,0,1-.637.637H9.15a.639.639,0,0,1-.637-.637Zm2.547,6.155h-3.4v-.849h.849V8.72H7.664V7.871h2.547v3.4h.849ZM9.362,1.928A6.792,6.792,0,1,0,16.154,8.72,6.792,6.792,0,0,0,9.362,1.928Zm0,12.31A5.518,5.518,0,1,1,14.881,8.72,5.518,5.518,0,0,1,9.362,14.238Z" transform="translate(-2.571 -1.928)"/></svg>