<svg xmlns="http://www.w3.org/2000/svg" width="45" height="45" viewBox="0 0 45 45"><defs><style>.a{fill:#00dc99;}.b{fill:#fff;}</style></defs><g transform="translate(-51 -179)"><circle class="a" cx="22.5" cy="22.5" r="22.5" transform="translate(51 179)"/><path class="b" d="M13.215,37.591H8.641V33.017A1.017,1.017,0,0,0,7.624,32H6.607a1.017,1.017,0,0,0-1.017,1.017v4.574H1.017A1.017,1.017,0,0,0,0,38.607v1.017a1.017,1.017,0,0,0,1.017,1.017H5.591v4.574a1.017,1.017,0,0,0,1.017,1.017H7.624a1.017,1.017,0,0,0,1.017-1.017V40.641h4.574a1.017,1.017,0,0,0,1.017-1.017V38.607A1.017,1.017,0,0,0,13.215,37.591Z" transform="translate(66.884 162.884)"/></g></svg>