<svg xmlns="http://www.w3.org/2000/svg" width="17.357" height="13.5" viewBox="0 0 17.357 13.5"><defs><style>.a{fill:#9d98ec;}</style></defs><path class="a" d="M15.908,32H1.449A1.447,1.447,0,0,0,0,33.446V44.054A1.447,1.447,0,0,0,1.449,45.5H15.908a1.447,1.447,0,0,0,1.449-1.446V33.446A1.447,1.447,0,0,0,15.908,32ZM1.63,33.446h14.1a.181.181,0,0,1,.181.181v1.266H1.449V33.627A.181.181,0,0,1,1.63,33.446Zm14.1,10.607H1.63a.181.181,0,0,1-.181-.181V38.75H15.908v5.123A.181.181,0,0,1,15.727,44.054ZM5.786,41.04v1.205a.363.363,0,0,1-.362.362H3.254a.363.363,0,0,1-.362-.362V41.04a.363.363,0,0,1,.362-.362h2.17A.363.363,0,0,1,5.786,41.04Zm5.786,0v1.205a.363.363,0,0,1-.362.362h-4.1a.363.363,0,0,1-.362-.362V41.04a.363.363,0,0,1,.362-.362h4.1A.363.363,0,0,1,11.571,41.04Z" transform="translate(0 -32)"/></svg>