<svg xmlns="http://www.w3.org/2000/svg" width="14.082" height="14.082" viewBox="0 0 14.082 14.082"><defs><style>.a{fill:#d6d6d6;}</style></defs><path class="a" d="M15.041,8a7.041,7.041,0,1,0,7.041,7.041A7.04,7.04,0,0,0,15.041,8Zm0,12.719a5.678,5.678,0,1,1,5.678-5.678A5.677,5.677,0,0,1,15.041,20.719Zm2.89-7.444-1.766,1.766,1.766,1.766a.341.341,0,0,1,0,.483l-.642.642a.341.341,0,0,1-.483,0l-1.766-1.766-1.766,1.766a.341.341,0,0,1-.483,0l-.642-.642a.341.341,0,0,1,0-.483l1.766-1.766-1.766-1.766a.341.341,0,0,1,0-.483l.642-.642a.341.341,0,0,1,.483,0l1.766,1.766,1.766-1.766a.341.341,0,0,1,.483,0l.642.642a.341.341,0,0,1,0,.483Z" transform="translate(-8 -8)"/></svg>