<svg xmlns="http://www.w3.org/2000/svg" width="81.111" height="60.833" viewBox="0 0 81.111 60.833"><defs><style>.a{fill:#fb8b24;}.b{fill:#fed5af;}.c{fill:#e3f8fa;}</style></defs><path class="a" d="M199.819,160H137.292A9.3,9.3,0,0,0,128,169.292v42.244a9.3,9.3,0,0,0,9.292,9.3h62.521a9.3,9.3,0,0,0,9.3-9.292V169.3A9.3,9.3,0,0,0,199.819,160Zm0,0" transform="translate(-128 -160)"/><g transform="translate(47.313 15.208)"><path class="b" d="M298.452,298.4h-18.59a2.535,2.535,0,0,1,0-5.07h18.59a2.535,2.535,0,0,1,0,5.07Zm0,0" transform="translate(-277.328 -266.293)"/><path class="b" d="M298.452,255.741h-18.59a2.535,2.535,0,0,1,0-5.069h18.59a2.535,2.535,0,0,1,0,5.069Zm0,0" transform="translate(-277.328 -237.152)"/><path class="b" d="M298.452,213.069h-18.59a2.535,2.535,0,0,1,0-5.069h18.59a2.535,2.535,0,0,1,0,5.069Zm0,0" transform="translate(-277.328 -208)"/></g><path class="c" d="M198.23,211.107a8.451,8.451,0,1,1-8.451-8.451A8.451,8.451,0,0,1,198.23,211.107Zm0,0" transform="translate(-164.432 -189.141)"/><path class="c" d="M190.417,277.652a2.536,2.536,0,0,1-2.535,2.535H162.535A2.536,2.536,0,0,1,160,277.652v-1.688a9.3,9.3,0,0,1,9.292-9.292h11.827a9.3,9.3,0,0,1,9.292,9.292v1.688Zm0,0" transform="translate(-149.861 -232.874)"/></svg>