<svg xmlns="http://www.w3.org/2000/svg" width="17.29" height="10.374" viewBox="0 0 17.29 10.374"><defs><style>.a{fill:#9d98ec;}</style></defs><path class="a" d="M8.645,66.161a3.062,3.062,0,0,0,0,6.052,3.062,3.062,0,0,0,0-6.052ZM9.726,70.7a.216.216,0,0,1-.216.216H7.781a.216.216,0,0,1-.216-.216v-.432a.216.216,0,0,1,.216-.216h.432v-1.5l-.013.008a.216.216,0,0,1-.3-.06l-.24-.36a.216.216,0,0,1,.06-.3l.414-.276a.648.648,0,0,1,.36-.109h.367a.216.216,0,0,1,.216.216v2.377H9.51a.216.216,0,0,1,.216.216Zm6.7-6.7H.865A.865.865,0,0,0,0,64.865V73.51a.865.865,0,0,0,.865.865H16.426a.865.865,0,0,0,.865-.865V64.865A.865.865,0,0,0,16.426,64Zm-.432,7.348a1.729,1.729,0,0,0-1.729,1.729H3.026A1.729,1.729,0,0,0,1.3,71.348V67.026A1.729,1.729,0,0,0,3.026,65.3H14.264a1.729,1.729,0,0,0,1.729,1.729Z" transform="translate(0 -64)"/></svg>