<svg xmlns="http://www.w3.org/2000/svg" xmlns:xlink="http://www.w3.org/1999/xlink" width="187.959" height="188.959" viewBox="0 0 187.959 188.959"><defs><style>.a{opacity:0.532;}.b{fill:url(#a);}.c,.h{fill:none;}.c{stroke:#2a286a;stroke-width:10.5px;opacity:0.142;}.d{fill:#00dc99;}.e,.f{fill:#fff;}.e{font-size:18px;font-family:Poppins-Bold, Poppins;font-weight:700;}.f{font-size:9px;font-family:Poppins-Medium, Poppins Medium;font-weight:500;}.g{stroke:none;}</style><radialGradient id="a" cx="0.266" cy="0.187" r="0.5" gradientUnits="objectBoundingBox"><stop offset="0" stop-color="#6e6bc4"/><stop offset="1" stop-color="#2a286a"/></radialGradient></defs><g transform="translate(-102.097 -197.021)"><ellipse class="a" cx="43" cy="43.5" rx="43" ry="43.5" transform="translate(153.077 248)"/><circle class="b" cx="48.72" cy="48.72" r="48.72" transform="translate(147 235)"/><g class="c" transform="translate(147 235)"><circle class="g" cx="48.72" cy="48.72" r="48.72"/><circle class="h" cx="48.72" cy="48.72" r="43.47"/></g><path class="d" d="M315.461-99.279A48.775,48.775,0,0,1,266.743-148H277.3a38.2,38.2,0,0,0,38.161,38.165A38.21,38.21,0,0,0,353.626-148a38.209,38.209,0,0,0-38.165-38.161v-10.557A48.777,48.777,0,0,1,364.183-148,48.778,48.778,0,0,1,315.461-99.279Z" transform="translate(-119.743 431.719)"/><g transform="translate(173.415 267.075)"><text class="e" transform="translate(2.662 18.925)"><tspan x="0" y="0">75%</tspan></text><text class="f" transform="translate(-0.338 28.925)"><tspan x="0" y="0">achieved</tspan></text></g></g></svg>