<svg xmlns="http://www.w3.org/2000/svg" width="13.043" height="14.906" viewBox="0 0 13.043 14.906"><defs><style>.a{fill:#d6d6d6;}</style></defs><path class="a" d="M.932,13.509a1.4,1.4,0,0,0,1.4,1.4h8.385a1.4,1.4,0,0,0,1.4-1.4V3.726H.932ZM8.851,6.056a.466.466,0,0,1,.932,0v6.522a.466.466,0,0,1-.932,0Zm-2.795,0a.466.466,0,0,1,.932,0v6.522a.466.466,0,0,1-.932,0Zm-2.795,0a.466.466,0,0,1,.932,0v6.522a.466.466,0,0,1-.932,0ZM12.577.931H9.084L8.81.387A.7.7,0,0,0,8.184,0H4.856a.691.691,0,0,0-.623.387L3.96.931H.466A.466.466,0,0,0,0,1.4v.932a.466.466,0,0,0,.466.466H12.577a.466.466,0,0,0,.466-.466V1.4A.466.466,0,0,0,12.577.931Z" transform="translate(0 0)"/></svg>