<svg xmlns="http://www.w3.org/2000/svg" width="23" height="23" viewBox="0 0 23 23"><defs><style>.a{fill:#bfbfbf;}</style></defs><g transform="translate(-15.1 -15)"><g transform="translate(15.1 15)"><g transform="translate(0)"><path class="a" d="M26.584,38A11.5,11.5,0,1,1,38.1,26.516,11.473,11.473,0,0,1,26.584,38Zm0-21.059a9.542,9.542,0,1,0,9.542,9.542A9.549,9.549,0,0,0,26.584,16.941Z" transform="translate(-15.1 -15)"/><path class="a" d="M40.533,64.313a5.806,5.806,0,0,0-10.99,0L27.7,63.688a7.752,7.752,0,0,1,14.675,0Z" transform="translate(-23.554 -44.143)"/><path class="a" d="M41.412,38.223a4.212,4.212,0,1,1,4.212-4.212h0A4.22,4.22,0,0,1,41.412,38.223Zm0-6.482a2.27,2.27,0,1,0,2.27,2.27h0A2.275,2.275,0,0,0,41.412,31.741Z" transform="translate(-29.928 -24.93)"/></g></g></g></svg>