<svg xmlns="http://www.w3.org/2000/svg" width="58.402" height="58.402" viewBox="0 0 58.402 58.402"><defs><style>.a{opacity:0.094;}.b{fill:#fff;}.c{fill:#00dc99;}</style></defs><g transform="translate(-328.996 -155.299)"><circle class="a" cx="16.5" cy="16.5" r="16.5" transform="translate(341.698 168)"/><circle class="b" cx="16.5" cy="16.5" r="16.5" transform="translate(341.698 164)"/><path class="c" d="M11.186,36.733H7.314V32.86a.861.861,0,0,0-.86-.86h-.86a.861.861,0,0,0-.86.86v3.872H.86a.861.861,0,0,0-.86.86v.86a.861.861,0,0,0,.86.86H4.733v3.872a.861.861,0,0,0,.86.86h.86a.861.861,0,0,0,.86-.86V39.314h3.872a.861.861,0,0,0,.86-.86v-.86A.861.861,0,0,0,11.186,36.733Z" transform="translate(352.326 142.326)"/></g></svg>