<svg xmlns="http://www.w3.org/2000/svg" xmlns:xlink="http://www.w3.org/1999/xlink" width="61" height="61" viewBox="0 0 61 61"><defs><style>.a{stroke:rgba(255,255,255,0.1);fill:url(#a);}.b{fill:#fff;}.c{stroke:none;}.d{fill:none;}</style><linearGradient id="a" x1="-0.16" y1="-0.573" x2="0.78" y2="0.887" gradientUnits="objectBoundingBox"><stop offset="0" stop-color="#fff" stop-opacity="0.2"/><stop offset="1" stop-color="#fff" stop-opacity="0.082"/></linearGradient></defs><g transform="translate(-320 -538)"><g class="a" transform="translate(320 538)"><circle class="c" cx="30.5" cy="30.5" r="30.5"/><circle class="d" cx="30.5" cy="30.5" r="30"/></g><path class="b" d="M10.469,39.258l1.22-1.22a1.314,1.314,0,0,1,1.863,0L24.236,48.716a1.314,1.314,0,0,1,0,1.863L13.553,61.263a1.314,1.314,0,0,1-1.863,0l-1.22-1.22a1.32,1.32,0,0,1,.022-1.885l6.622-6.309H1.319A1.316,1.316,0,0,1,0,50.529V48.771a1.316,1.316,0,0,1,1.319-1.319H17.114l-6.622-6.309A1.311,1.311,0,0,1,10.469,39.258Z" transform="translate(338 519.35)"/></g></svg>