<svg xmlns="http://www.w3.org/2000/svg" width="21.817" height="41.496" viewBox="0 0 21.817 41.496"><defs><style>.a,.b{fill:#bfbfbf;}.a{font-size:10px;font-family:Poppins-Regular, Poppins;}</style></defs><g transform="translate(-278.592 -12.504)"><text class="a" transform="translate(280 50)"><tspan x="0" y="0">Bills</tspan></text><g transform="translate(275.592 10.504)"><path class="b" d="M23.978,2H3.839A.839.839,0,0,0,3,2.839V24.656a.839.839,0,0,0,1.376.646l4.5-3.751,4.54,3.751a.839.839,0,0,0,1.074,0l4.456-3.751,4.5,3.751a.839.839,0,0,0,1.376-.646V2.839A.839.839,0,0,0,23.978,2Zm-.839,20.86L19.48,19.814a.839.839,0,0,0-1.074,0l-4.5,3.751L9.377,19.814a.839.839,0,0,0-1.074,0L4.678,22.86V3.678h18.46ZM7.2,7.035A.839.839,0,0,1,8.035,6.2H19.782a.839.839,0,1,1,0,1.678H8.035A.839.839,0,0,1,7.2,7.035Zm0,4.2a.839.839,0,0,1,.839-.839H19.782a.839.839,0,1,1,0,1.678H8.035A.839.839,0,0,1,7.2,11.23Zm0,4.2a.839.839,0,0,1,.839-.839H19.782a.839.839,0,1,1,0,1.678H8.035A.839.839,0,0,1,7.2,15.426Z" transform="translate(0)"/></g></g></svg>