<svg xmlns="http://www.w3.org/2000/svg" width="14.976" height="17.115" viewBox="0 0 14.976 17.115"><defs><style>.a{fill:#ffe700;}</style></defs><path class="a" d="M14.575,5.349H.4a.4.4,0,0,1-.4-.4v-1.2a1.6,1.6,0,0,1,1.6-1.6h1.6V.4a.4.4,0,0,1,.4-.4H4.947a.4.4,0,0,1,.4.4V2.139H9.627V.4a.4.4,0,0,1,.4-.4h1.337a.4.4,0,0,1,.4.4V2.139h1.6a1.6,1.6,0,0,1,1.6,1.6v1.2A.4.4,0,0,1,14.575,5.349ZM.4,6.418H14.575a.4.4,0,0,1,.4.4v8.691a1.6,1.6,0,0,1-1.6,1.6H1.6a1.6,1.6,0,0,1-1.6-1.6V6.819A.4.4,0,0,1,.4,6.418ZM11.543,9.626,10.6,8.676a.4.4,0,0,0-.567,0L6.489,12.19,4.952,10.641a.4.4,0,0,0-.567,0l-.949.942a.4.4,0,0,0,0,.567l2.761,2.784a.4.4,0,0,0,.567,0l4.779-4.74a.4.4,0,0,0,0-.567Z"/></svg>