<svg xmlns="http://www.w3.org/2000/svg" width="20.45" height="23.372" viewBox="0 0 20.45 23.372"><defs><style>.a{fill:#adadad;}</style></defs><path class="a" d="M0,21.181a2.192,2.192,0,0,0,2.191,2.191H18.259a2.192,2.192,0,0,0,2.191-2.191V8.764H0Zm14.607-8.947a.549.549,0,0,1,.548-.548h1.826a.549.549,0,0,1,.548.548V14.06a.549.549,0,0,1-.548.548H15.155a.549.549,0,0,1-.548-.548Zm0,5.843a.549.549,0,0,1,.548-.548h1.826a.549.549,0,0,1,.548.548V19.9a.549.549,0,0,1-.548.548H15.155a.549.549,0,0,1-.548-.548ZM8.764,12.234a.549.549,0,0,1,.548-.548h1.826a.549.549,0,0,1,.548.548V14.06a.549.549,0,0,1-.548.548H9.312a.549.549,0,0,1-.548-.548Zm0,5.843a.549.549,0,0,1,.548-.548h1.826a.549.549,0,0,1,.548.548V19.9a.549.549,0,0,1-.548.548H9.312a.549.549,0,0,1-.548-.548ZM2.921,12.234a.549.549,0,0,1,.548-.548H5.3a.549.549,0,0,1,.548.548V14.06a.549.549,0,0,1-.548.548H3.469a.549.549,0,0,1-.548-.548Zm0,5.843a.549.549,0,0,1,.548-.548H5.3a.549.549,0,0,1,.548.548V19.9a.549.549,0,0,1-.548.548H3.469a.549.549,0,0,1-.548-.548ZM18.259,2.921H16.068V.73a.733.733,0,0,0-.73-.73H13.877a.733.733,0,0,0-.73.73V2.921H7.3V.73A.733.733,0,0,0,6.573,0H5.113a.733.733,0,0,0-.73.73V2.921H2.191A2.192,2.192,0,0,0,0,5.113V7.3H20.45V5.113A2.192,2.192,0,0,0,18.259,2.921Z"/></svg>