<svg xmlns="http://www.w3.org/2000/svg" width="12.75" height="17" viewBox="0 0 12.75 17"><defs><style>.a{fill:#9d98ec;}</style></defs><path class="a" d="M9.563,8.234v.93a.4.4,0,0,1-.4.4H3.586a.4.4,0,0,1-.4-.4v-.93a.4.4,0,0,1,.4-.4H9.164A.4.4,0,0,1,9.563,8.234Zm-.4,2.391H3.586a.4.4,0,0,0-.4.4v.93a.4.4,0,0,0,.4.4H9.164a.4.4,0,0,0,.4-.4v-.93A.4.4,0,0,0,9.164,10.625ZM12.75,4.379V15.406A1.594,1.594,0,0,1,11.156,17H1.594A1.594,1.594,0,0,1,0,15.406V1.594A1.594,1.594,0,0,1,1.594,0H8.371A1.594,1.594,0,0,1,9.5.468l2.786,2.786A1.588,1.588,0,0,1,12.75,4.379ZM8.5,1.723V4.25h2.527L8.5,1.723Zm2.656,13.683V5.844H7.7a.8.8,0,0,1-.8-.8V1.594H1.594V15.406Z"/></svg>