<svg xmlns="http://www.w3.org/2000/svg" width="38.503" height="38.504" viewBox="0 0 38.503 38.504"><defs><style>.a{fill:#fff;}</style></defs><path class="a" d="M19.269,18.5a1.8,1.8,0,0,0-1.8,1.8,54.99,54.99,0,0,1-2.083,15.909,1.8,1.8,0,1,0,3.475.975A58.2,58.2,0,0,0,21.074,20.3a1.8,1.8,0,0,0-1.8-1.8ZM19.2,12.351a7.522,7.522,0,0,0-7.758,7.6,49.339,49.339,0,0,1-1.005,10.72,1.8,1.8,0,1,0,3.535.731A52.945,52.945,0,0,0,15.057,19.9a3.918,3.918,0,0,1,4.095-3.936,4.353,4.353,0,0,1,4.333,4.171,60.459,60.459,0,0,1-.8,10.8,1.8,1.8,0,1,0,3.56.587,64.147,64.147,0,0,0,.848-11.439A7.99,7.99,0,0,0,19.2,12.351Zm-8.324-1.488a1.807,1.807,0,0,0-2.539.262,13.043,13.043,0,0,0-2.914,8.423,43.673,43.673,0,0,1-.685,8.426,1.805,1.805,0,1,0,3.553.641,47.3,47.3,0,0,0,.741-9.124A9.294,9.294,0,0,1,11.143,13.4,1.806,1.806,0,0,0,10.881,10.863Zm8.232-4.687a13.442,13.442,0,0,0-3.443.374,1.805,1.805,0,1,0,.832,3.513,10.793,10.793,0,0,1,2.557-.277A10.527,10.527,0,0,1,29.5,19.906a66.258,66.258,0,0,1-.42,8.545,1.8,1.8,0,1,0,3.586.411,69.869,69.869,0,0,0,.443-9.013,14.163,14.163,0,0,0-14-13.674Zm18.956,9.133a1.8,1.8,0,1,0-3.525.778,18.753,18.753,0,0,1,.353,4.632,1.8,1.8,0,0,0,1.79,1.82H36.7a1.8,1.8,0,0,0,1.8-1.79,22.348,22.348,0,0,0-.438-5.44ZM35.052,8.487A20,20,0,0,0,19.021,0,18.837,18.837,0,0,0,5.307,5.485,17.935,17.935,0,0,0,.019,18.549L.01,20.163A1.8,1.8,0,0,0,1.761,22.02c.017,0,.036,0,.054,0a1.806,1.806,0,0,0,1.8-1.752l.012-1.778A14.347,14.347,0,0,1,7.862,8.038,15.24,15.24,0,0,1,18.968,3.612,16.384,16.384,0,0,1,32.1,10.56a1.8,1.8,0,1,0,2.952-2.073Z" transform="translate(-0.009 0)"/></svg>