<svg xmlns="http://www.w3.org/2000/svg" width="24.279" height="28.706" viewBox="0 0 24.279 28.706"><defs><style>.a{fill:none;stroke:#eaeaea;stroke-linecap:round;stroke-linejoin:round;stroke-miterlimit:10;stroke-width:2px;}.b{fill:#eaeaea;}</style></defs><g transform="translate(1 1.011)"><path class="a" d="M44.087,54.381a2.8,2.8,0,0,1-2.8,2.8H24.612a2.8,2.8,0,0,1-2.8-2.8V43.109a2.8,2.8,0,0,1,2.8-2.8h16.67a2.8,2.8,0,0,1,2.8,2.8Z" transform="translate(-21.808 -30.491)"/><path class="a" d="M32.17,28.816V26.145s0-6.272,6.177-6.263c0,0,5.96-.532,6.148,6.169v2.765" transform="translate(-27.193 -19.872)"/><circle class="b" cx="1.804" cy="1.804" r="1.804" transform="translate(9.335 18.973)"/><line class="a" x1="0.016" y2="4.199" transform="translate(11.131 15.335)"/></g></svg>