<svg xmlns="http://www.w3.org/2000/svg" width="28.637" height="23" viewBox="0 0 28.637 23"><defs><style>.a{fill:#bfbfbf;}</style></defs><g transform="translate(-293.723 229.376)"><path class="a" d="M322.009-218.737l-13.445-10.437a.873.873,0,0,0-1.115,0L294-218.736a.906.906,0,0,0-.026,1.278.909.909,0,0,0,1.146.132l2.42-1.894v11.931a.925.925,0,0,0,.914.912H317.59a.924.924,0,0,0,.91-.915v-11.9l2.425,1.9a.943.943,0,0,0,1.309-.183A1.018,1.018,0,0,0,322.009-218.737Zm-5.364-1.869v12.433H299.339v-12.433l8.655-6.73Z" transform="translate(0)"/><path class="a" d="M307.742-223.622l-3.76,3.314a1.864,1.864,0,0,0-.6,1.337v8.169a1.8,1.8,0,0,0,1.778,1.776H312.7a1.8,1.8,0,0,0,1.777-1.778V-219a1.864,1.864,0,0,0-.6-1.339l-3.787-3.28A1.816,1.816,0,0,0,307.742-223.622ZM305-219.007l.112-.023,3.744-3.3a.1.1,0,0,1,.062-.02h0a.094.094,0,0,1,.049.013l3.752,3.3a.086.086,0,0,1,.02.029v8.2a.069.069,0,0,1-.07.069h-7.513a.067.067,0,0,1-.068-.069v-8.2Z" transform="translate(-0.926 -0.511)"/><path class="a" d="M309.39-218.634a1.065,1.065,0,0,0,1.063-1.063,1.065,1.065,0,0,0-1.063-1.064,1.067,1.067,0,0,0-1.063,1.064A1.064,1.064,0,0,0,309.39-218.634Z" transform="translate(-1.4 -0.826)"/></g></svg>