<svg xmlns="http://www.w3.org/2000/svg" width="85.744" height="80.744" viewBox="0 0 85.744 80.744"><defs><style>.a{fill:rgba(0,0,0,0.49);opacity:0.261;}.b{fill:#edecfc;}.c{fill:#9d98ec;}.d{fill:#cac7f5;}</style></defs><g transform="translate(21.372 7.372)"><rect class="a" width="31" height="26" transform="translate(6 20)"/><path class="b" d="M34.388,42.324H7.936A7.935,7.935,0,0,1,0,34.388V7.936A7.935,7.935,0,0,1,7.936,0H34.388a7.935,7.935,0,0,1,7.936,7.936V34.388A7.935,7.935,0,0,1,34.388,42.324Z"/><g transform="translate(9.486 9.487)"><path class="c" d="M30.622,16.757a.73.73,0,0,0,.73-.73V14.567a.729.729,0,0,0-.387-.644L20.019,8.086a.732.732,0,0,0-.686,0L8.387,13.924A.729.729,0,0,0,8,14.567v1.459a.73.73,0,0,0,.73.73h2.189V28.432H8.973A.972.972,0,0,0,8,29.406v.973a.972.972,0,0,0,.973.972H30.38a.972.972,0,0,0,.972-.973V29.4a.972.972,0,0,0-.973-.972H28.433V16.757ZM26.487,28.432H12.866V16.757H26.487Z" transform="translate(-8 -8.001)"/><g transform="translate(9.243 9.73)"><path class="d" d="M16.4,20.261h.74a.608.608,0,0,1,0,1.216H15.064a.73.73,0,1,0,0,1.459h.972v.73a.73.73,0,1,0,1.459,0V22.9a2.065,2.065,0,0,0-.359-4.1H16.4a.608.608,0,0,1,0-1.216h2.072a.73.73,0,0,0,0-1.459H17.5V15.4a.73.73,0,1,0-1.459,0v.766a2.065,2.065,0,0,0,.36,4.1Z" transform="translate(-14.333 -14.667)"/></g></g></g></svg>