<svg xmlns="http://www.w3.org/2000/svg" width="85.744" height="80.744" viewBox="0 0 85.744 80.744"><defs><style>.a{fill:rgba(0,0,0,0.49);opacity:0.225;}.b{fill:#d1f9ec;}.c{fill:#00dc99;}.d{fill:#8befd1;}</style></defs><g transform="translate(-209.628 -360.628)"><rect class="a" width="31" height="26" transform="translate(237 388)"/><g transform="translate(231 367)"><path class="b" d="M34.469,42.424H7.954A7.954,7.954,0,0,1,0,34.469V7.954A7.954,7.954,0,0,1,7.954,0H34.469a7.954,7.954,0,0,1,7.954,7.954V34.469A7.954,7.954,0,0,1,34.469,42.424Z"/></g><g transform="translate(239 377.2)"><g transform="translate(4.403)"><path class="c" d="M30.211,9.333H13.145a2.481,2.481,0,0,0-2.478,2.478v9.91A2.481,2.481,0,0,0,13.145,24.2H30.211a2.481,2.481,0,0,0,2.478-2.478v-9.91A2.481,2.481,0,0,0,30.211,9.333ZM16.448,14.288H14.8a.826.826,0,0,1,0-1.652h1.652a.826.826,0,0,1,0,1.652Zm5.229,5.781a3.3,3.3,0,1,1,3.3-3.3A3.307,3.307,0,0,1,21.677,20.069Zm6.883.826H26.908a.826.826,0,1,1,0-1.652H28.56a.826.826,0,1,1,0,1.652Z" transform="translate(-10.667 -9.333)"/></g><g transform="translate(0 4.389)"><path class="d" d="M30.3,24.118H13.23a2.481,2.481,0,0,1-2.478-2.478V11.99L8.082,21.95a2.5,2.5,0,0,0,1.752,3.034l17.027,4.56a2.478,2.478,0,0,0,3.021-1.752L30.9,24.037a2.476,2.476,0,0,1-.6.081Z" transform="translate(-8.001 -11.99)"/></g></g></g></svg>