<svg xmlns="http://www.w3.org/2000/svg" width="85.744" height="80.744" viewBox="0 0 85.744 80.744"><defs><style>.a{fill:rgba(0,0,0,0.49);opacity:0.225;}.b{fill:#d1f9ec;}.c{fill:#00dc99;}.d{fill:#8befd1;}</style></defs><g transform="translate(-33.628 -360.628)"><rect class="a" width="31" height="26" transform="translate(61 388)"/><g transform="translate(-2263.048 -1875.048)"><path class="b" d="M34.466,42.42H7.954A7.953,7.953,0,0,1,0,34.466V7.954A7.953,7.953,0,0,1,7.954,0H34.466A7.953,7.953,0,0,1,42.42,7.954V34.466A7.953,7.953,0,0,1,34.466,42.42Zm0,0" transform="translate(2318 2243.5)"/><g transform="translate(2326.692 2251.849)"><path class="c" d="M177.978,130.6a5.253,5.253,0,1,1-5.253-5.253A5.253,5.253,0,0,1,177.978,130.6Zm0,0" transform="translate(-163.27 -125.344)"/><path class="c" d="M11.667,9.458H.788A.789.789,0,0,1,0,8.669V4.993A5,5,0,0,1,4.991,0h8.931a4.774,4.774,0,0,1,.788.066,7.467,7.467,0,0,0-3.655,6.425,7.423,7.423,0,0,0,.612,2.966Z" transform="translate(0 12.605)"/><path class="d" d="M13.6,8a5.6,5.6,0,1,0,5.6,5.6A5.6,5.6,0,0,0,13.6,8Zm3.254,6.236a.272.272,0,0,1-.271.271H14.507v2.079a.272.272,0,0,1-.271.271H12.971a.272.272,0,0,1-.271-.271V14.507H10.621a.272.272,0,0,1-.271-.271V12.971a.272.272,0,0,1,.271-.271H12.7V10.621a.272.272,0,0,1,.271-.271h1.265a.272.272,0,0,1,.271.271V12.7h2.079a.272.272,0,0,1,.271.271Z" transform="translate(4.923 5.492)"/></g></g></g></svg>