<svg xmlns="http://www.w3.org/2000/svg" width="43" height="43" viewBox="0 0 43 43"><defs><style>.a{fill:#eaeaea;}.b{fill:#bfbfbf;}</style></defs><g transform="translate(-185 -797)"><circle class="a" cx="21.5" cy="21.5" r="21.5" transform="translate(185 797)"/><path class="b" d="M324.628-177.681l-5.353-5.31h0l-.042-.041h0a10.609,10.609,0,0,0,3.01-7.4A10.709,10.709,0,0,0,311.552-201.1H307.5a5.406,5.406,0,0,0-2.025.4,5.405,5.405,0,0,0-1.871,1.258l-.032.033c-.092.1-.165.21-.25.313a5.375,5.375,0,0,0-1.208,2.963c-.007.1-.013.21-.014.415v17.276a4.687,4.687,0,0,0,.282,1.584,4.7,4.7,0,0,0,.515,1.048l.036.053a4.723,4.723,0,0,0,.509.616,4.769,4.769,0,0,0,3.437,1.468h15.964a2.407,2.407,0,0,0,2.4-2.388A2.4,2.4,0,0,0,324.628-177.681Zm-17.123-21.412h4.043a8.7,8.7,0,0,1,8.693,8.66,8.612,8.612,0,0,1-2.427,5.994h0l-6.862-6.8-4.5-4.459-.027-.025a3.435,3.435,0,0,1-.507-.586c-.037-.053-.062-.111-.1-.166a3.5,3.5,0,0,1-.267-.507c-.031-.075-.051-.152-.076-.229a3.421,3.421,0,0,1-.134-.506c-.015-.086-.022-.172-.031-.259s-.008-.205-.009-.309A3.428,3.428,0,0,1,307.505-199.093Zm-3.4,20.66v-16.99c.022.037.051.07.075.106.069.107.144.208.221.31.062.083.122.167.188.246a5.279,5.279,0,0,0,.462.485l11.2,11.109.005.005h0c-.016.01-.033.016-.048.026a8.846,8.846,0,0,1-1.045.566c-.023.01-.043.025-.066.035l-1.6.716-9.286,4.15A2.749,2.749,0,0,1,304.105-178.433Zm18.73,2.764H306.883a2.788,2.788,0,0,1-1.4-.374l9.042-4.044,1.388-.62.019-.01a10.7,10.7,0,0,0,1.149-.613c.1-.063.2-.128.305-.194s.216-.129.318-.2h0l.027.027,5.422,5.376a.4.4,0,0,1,.091.255A.448.448,0,0,1,322.836-175.669Z" transform="translate(-107.103 1006.095)"/></g></svg>