<svg xmlns="http://www.w3.org/2000/svg" width="26.487" height="23.262" viewBox="0 0 26.487 23.262"><defs><style>.a{fill:#bfbfbf;}</style></defs><g transform="translate(-330.079 211.471)"><path class="a" d="M349.663-193.778c.049-.038.111-.091,0,0Z"/><path class="a" d="M351.012-195.1l.058-.072,0,0c-.053.065-.074.091-.072.09Z"/><path class="a" d="M355.669-202.6a.892.892,0,0,0-.891.89,5.659,5.659,0,0,1-.039.713,3.573,3.573,0,0,1-.169.636,2.674,2.674,0,0,1-.18.328l.055-.067c-.02.027-.041.05-.062.077l0,0c-.041.056-.094.114-.009.009a1.653,1.653,0,0,1-.135.142c-.014.013-.043.037-.071.06l-.064.044c-.044.028-.093.048-.139.072a7.822,7.822,0,0,0-2.739-4.811,11.816,11.816,0,0,0-3.193-1.925,5.384,5.384,0,0,0-1.264-3.2,5.191,5.191,0,0,0-2.972-1.734A5.279,5.279,0,0,0,337.788-208c-.055.147-.08.3-.121.449a7.158,7.158,0,0,0-.641-.545,1.529,1.529,0,0,0-1.71-.015,1.591,1.591,0,0,0-.709,1.332v2.3a8.617,8.617,0,0,0-2.132,2.789h-.032a2.579,2.579,0,0,0-1.164.256,2.257,2.257,0,0,0-1.2,2.039v1.374a3.433,3.433,0,0,0,.065.75,2.282,2.282,0,0,0,.9,1.292,3.143,3.143,0,0,0,1.413.416,8.421,8.421,0,0,0,1.185,1.826,10.039,10.039,0,0,0,1.552,1.419q-.184.477-.368.955a2.826,2.826,0,0,0-.235.8,1.418,1.418,0,0,0,.465,1.146,1.883,1.883,0,0,0,.6.336c.569.22,1.137.437,1.7.657a2.167,2.167,0,0,0,.8.211,1.466,1.466,0,0,0,1.232-.687,2.387,2.387,0,0,0,.186-.428c.112-.292.226-.583.34-.874a14.192,14.192,0,0,0,5.213.161c.256-.038.5-.109.757-.163l.273.71c.033.086.065.172.1.256a1.55,1.55,0,0,0,.672.836,1.521,1.521,0,0,0,1.337.042c.583-.226,1.169-.453,1.752-.676.062-.024.125-.047.19-.074a1.709,1.709,0,0,0,.447-.241,1.456,1.456,0,0,0,.485-.676,1.555,1.555,0,0,0-.084-1.139c-.145-.376-.29-.75-.434-1.125a9.765,9.765,0,0,0,2.258-2.375,7.411,7.411,0,0,0,1.13-3.17c.094-.022.19-.035.281-.066a3.049,3.049,0,0,0,1.872-1.661,5.114,5.114,0,0,0,.4-2.151A.892.892,0,0,0,355.669-202.6Zm-4.617.507c-.1-.118-.044-.057,0,0Zm-11.764-4.54a4.576,4.576,0,0,1,.237-.874,4.324,4.324,0,0,1,.343-.64c.038-.058.079-.113.118-.171l.007-.008c.09-.11.187-.215.288-.316s.2-.185.3-.273l.04-.033c.046-.034.09-.067.139-.1a4.294,4.294,0,0,1,.658-.354,4.382,4.382,0,0,1,.873-.236,4.608,4.608,0,0,1,.932,0,4.586,4.586,0,0,1,.877.238,4.326,4.326,0,0,1,.64.343c.058.038.113.079.17.118l.008.007a3.754,3.754,0,0,1,.316.289c.093.092.186.2.274.3l.033.039c.033.046.067.091.1.14a4.3,4.3,0,0,1,.354.658,4.463,4.463,0,0,1,.239.888,3.289,3.289,0,0,1,.035.443c0,.015.008.027.008.042,0,.143-.013.286-.028.428a4.661,4.661,0,0,1-.247.907c-.059.129-.118.258-.189.38-.05.084-.1.167-.155.25-.017.025-.053.072-.083.112a4.832,4.832,0,0,1-.493.488h-4.66c-.034-.031-.072-.059-.1-.091a2.289,2.289,0,0,1-.186-.2c-.03-.032-.059-.069-.093-.1a.874.874,0,0,1-.063-.076l-.008-.01a1.217,1.217,0,0,1-.077-.11c-.05-.074-.1-.152-.146-.23-.076-.127-.139-.262-.2-.4a4.415,4.415,0,0,1-.25-.9A4.74,4.74,0,0,1,339.288-206.633Zm-2.972,0h0l.016-.017Zm-.332-.04c.012.012.027.024.039.035l.012.011-.057-.025a.7.7,0,0,1,.08.047l0,0C335.735-206.777,335.953-206.7,335.984-206.669Zm15.4,11.04q-.147.234-.311.45l.022-.028-.025.032-.007.01c-.022.03-.06.075-.062.076-.062.076-.124.151-.189.224a7.992,7.992,0,0,1-.836.83c-.08.072-.163.141-.249.208-.036.03-.075.057-.111.087l.047-.038-.014.011c-.172.131-.353.253-.533.373a.867.867,0,0,0-.345.317.888.888,0,0,0-.09.685v0c.131.339.262.676.393,1.016l.259.669c0,.009.005.018.009.027l-.712.273-.735.279c-.018.008-.038.012-.056.02q-.264-.686-.529-1.37a.931.931,0,0,0-.41-.533.914.914,0,0,0-.688-.093,12.147,12.147,0,0,1-1.614.34,13.468,13.468,0,0,1-3.369,0,12.148,12.148,0,0,1-1.614-.34.928.928,0,0,0-.688.093,1.049,1.049,0,0,0-.41.533l-.531,1.374c-.019-.008-.039-.012-.058-.021l-.735-.278-.711-.274.006-.017c.086-.226.175-.452.262-.679l.392-1.015a.829.829,0,0,0-.044-.58.91.91,0,0,0-.366-.426c-.186-.118-.357-.241-.529-.371-.051-.039-.186-.149.024.02-.039-.029-.077-.059-.116-.093l-.223-.185a8.888,8.888,0,0,1-.863-.851c-.066-.077-.131-.151-.2-.232a1.36,1.36,0,0,1-.086-.111c.027.036.056.072.083.107l-.056-.074c-.114-.152-.223-.309-.325-.47a7.3,7.3,0,0,1-.5-.957c-.013-.033-.027-.067-.039-.1a.929.929,0,0,0-.86-.65c-.256.01-.511,0-.767-.008-.054-.013-.108-.025-.161-.043-.018-.01-.038-.018-.056-.029s-.05-.043-.055-.049a.429.429,0,0,1-.034-.039c-.016-.026-.028-.053-.043-.08-.016-.049-.028-.1-.04-.15-.014-.292-.021-.584-.008-.876s-.012-.578.005-.864a1.77,1.77,0,0,1,.046-.173c.01-.019.018-.039.029-.057a.715.715,0,0,1,.049-.054c.012-.012.026-.023.039-.035s.053-.028.08-.042c.049-.017.1-.029.15-.041.256-.012.511-.019.767-.008a.92.92,0,0,0,.86-.65c.013-.034.027-.069.041-.1a6.613,6.613,0,0,1,.443-.857c.086-.143.178-.279.278-.417.043-.061.088-.123.135-.184l.1-.117c.075-.09.164-.169.243-.256a.892.892,0,0,0,.351.073.892.892,0,0,0,.894-.891v-.715c0-.023.016-.042.017-.065.018-.667,0-1.34,0-2.006,0-.062,0-.123,0-.185l.4.364.744.673c.031.171.083.337.131.505.03.1.06.209.1.313.027.073.039.15.068.223.016.039.043.073.059.112a5.454,5.454,0,0,0,.307.629c.012.019.028.034.04.053a.877.877,0,0,0-.42.737.892.892,0,0,0,.891.894h1.3c.027.007.051.018.078.024.443.012.89,0,1.333,0,1.33,0,2.663.027,3.993,0a.932.932,0,0,0,.2-.024h1.178a.893.893,0,0,0,.891-.894.878.878,0,0,0-.4-.722,5.381,5.381,0,0,0,.525-1.16c.281.133.564.26.833.416.2.113.387.235.574.361.093.059.178.121.264.185l.122.093.017.013a9.114,9.114,0,0,1,.948.862c.146.151.279.309.417.473l.068.081.007.009c.062.086.126.173.186.262a7.363,7.363,0,0,1,.592,1.073,6.5,6.5,0,0,1,.388,1.4c.024.22.041.439.043.66l0,.016c0,.01.005.019.006.029a6.585,6.585,0,0,1-.046.7,6.475,6.475,0,0,1-.373,1.368A7.1,7.1,0,0,1,351.384-195.629Z"/><path class="a" d="M354.389-200.031v0l-.02.023.009-.009Z"/><path class="a" d="M335.847-201.2a.893.893,0,0,0-.893.893.9.9,0,0,0,.893.892.892.892,0,0,0,.892-.892A.892.892,0,0,0,335.847-201.2Z"/></g></svg>