<svg xmlns="http://www.w3.org/2000/svg" width="33.357" height="25.018" viewBox="0 0 33.357 25.018"><defs><style>.a{fill:#fb8b24;}.b{fill:#fed5af;}.c{fill:#e3f8fa;}</style></defs><path class="a" d="M157.535,160H131.821A3.825,3.825,0,0,0,128,163.821v17.373a3.826,3.826,0,0,0,3.821,3.824h25.712a3.826,3.826,0,0,0,3.823-3.821V163.823A3.825,3.825,0,0,0,157.535,160Zm0,0" transform="translate(-128 -160)"/><g transform="translate(19.457 6.254)"><path class="b" d="M286.015,295.413H278.37a1.042,1.042,0,0,1,0-2.085h7.645a1.042,1.042,0,0,1,0,2.085Zm0,0" transform="translate(-277.328 -282.21)"/><path class="b" d="M286.015,252.757H278.37a1.042,1.042,0,0,1,0-2.085h7.645a1.042,1.042,0,0,1,0,2.085Zm0,0" transform="translate(-277.328 -245.112)"/><path class="b" d="M286.015,210.085H278.37a1.042,1.042,0,0,1,0-2.085h7.645a1.042,1.042,0,0,1,0,2.085Zm0,0" transform="translate(-277.328 -208)"/></g><path class="c" d="M188.279,206.132a3.475,3.475,0,1,1-3.475-3.475A3.475,3.475,0,0,1,188.279,206.132Zm0,0" transform="translate(-174.379 -197.098)"/><path class="c" d="M172.509,271.188a1.043,1.043,0,0,1-1.042,1.042H161.042A1.043,1.043,0,0,1,160,271.188v-.694a3.825,3.825,0,0,1,3.821-3.821h4.864a3.825,3.825,0,0,1,3.821,3.821v.694Zm0,0" transform="translate(-155.83 -252.773)"/></svg>