<svg xmlns="http://www.w3.org/2000/svg" width="43" height="43" viewBox="0 0 43 43"><defs><style>.a{fill:#edecfc;}.b{fill:#9d98ec;}.c{fill:#00dc99;mix-blend-mode:multiply;isolation:isolate;}.d{fill:#2a286a;}</style></defs><g transform="translate(-185 -797)"><circle class="a" cx="21.5" cy="21.5" r="21.5" transform="translate(185 797)"/><g transform="translate(195 805)"><path class="b" d="M386.947-121.069l-6.738-6.52a10.793,10.793,0,0,1-2.526,1.544l-13.019,5.677a4.218,4.218,0,0,0,3.492,1.821h17.632A1.507,1.507,0,0,0,386.947-121.069Z" transform="translate(-363.968 145.975)"/><path class="c" d="M367.992-174.884,381.3-162.008a10.3,10.3,0,0,0,3.815-7.963h0a10.593,10.593,0,0,0-10.754-10.424h-4.424a4.936,4.936,0,0,0-3.553,1.49A4.811,4.811,0,0,0,367.992-174.884Z" transform="translate(-365.058 180.394)"/><path class="d" d="M378.968-159.218,365.661-172.1a4.811,4.811,0,0,1-1.608-4.02,4.644,4.644,0,0,0-1.309,2.863c-.007.093-.013.187-.014.282,0,.032,0,.063,0,.094v18.64a3.951,3.951,0,0,0,.7,2.238l13.019-5.677A10.8,10.8,0,0,0,378.968-159.218Z" transform="translate(-362.727 177.605)"/></g></g></svg>