<svg xmlns="http://www.w3.org/2000/svg" xmlns:xlink="http://www.w3.org/1999/xlink" width="18" height="18" viewBox="0 0 18 18"><defs><style>.a{fill:url(#a);}.b{fill:url(#b);}</style><linearGradient id="a" x1="0.5" y1="1" x2="0.5" gradientUnits="objectBoundingBox"><stop offset="0" stop-color="#fd5900"/><stop offset="1" stop-color="#ffde00"/></linearGradient><linearGradient id="b" x1="0.5" y1="1" x2="0.5" gradientUnits="objectBoundingBox"><stop offset="0" stop-color="#ffe59a"/><stop offset="1" stop-color="#ffffd5"/></linearGradient></defs><g transform="translate(0.493 0.493)"><g transform="translate(-0.493 -0.493)"><g transform="translate(0 0)"><circle class="a" cx="9" cy="9" r="9"/></g></g><g transform="translate(3.01 2.755)"><path class="b" d="M109.308,94.975a.523.523,0,0,0-.422-.356l-3.164-.46-1.415-2.867a.523.523,0,0,0-.938,0l-1.415,2.868-3.164.46a.523.523,0,0,0-.29.892l2.29,2.232-.541,3.152a.523.523,0,0,0,.759.551l2.83-1.488,2.83,1.488a.523.523,0,0,0,.759-.551l-.541-3.152,2.29-2.232A.523.523,0,0,0,109.308,94.975Z" transform="translate(-98.341 -91)"/></g></g></svg>