<svg xmlns="http://www.w3.org/2000/svg" width="85.204" height="84" viewBox="0 0 85.204 84"><defs><style>.a{fill:#00dc99;}.b{fill:rgba(0,0,0,0.15);}.c{fill:#f8f8f8;}.d{fill:#ebebeb;}</style></defs><g transform="translate(0 -2.901)"><circle class="a" cx="42" cy="42" r="42" transform="translate(0 2.901)"/><path class="b" d="M287.069,127.2a42.038,42.038,0,0,0-4.972-10.276l-36.926,38.461.074,4.28,1.743-.011L287.069,127.2Z" transform="translate(-204.77 -95.541)"/><path class="c" d="M165.592,61.775l-7.522-7.432a2.652,2.652,0,0,0-3.719,0L122.194,87.465l-13.867-13.7a2.653,2.653,0,0,0-3.72,0L97.94,80.352a2.575,2.575,0,0,0,0,3.673L120.2,106.013a3.585,3.585,0,0,0,4.34,0l41.056-40.563a2.576,2.576,0,0,0,0-3.674Z" transform="translate(-81.158 -42.638)"/><path class="d" d="M124.54,141.391,165.6,100.828a2.577,2.577,0,0,0,0-3.674l-1.228-1.213-42.233,41.54L98.876,114.808l-.931.921a2.575,2.575,0,0,0,0,3.673L120.2,141.391a3.585,3.585,0,0,0,4.34,0Z" transform="translate(-81.162 -78.017)"/></g></svg>