<svg xmlns="http://www.w3.org/2000/svg" width="85.744" height="80.744" viewBox="0 0 85.744 80.744"><defs><style>.a{fill:rgba(0,0,0,0.49);opacity:0.225;}.b{fill:#d1f9ec;}.c{fill:#00dc99;}.d{fill:#8befd1;}</style></defs><g transform="translate(-33.628 -360.628)"><rect class="a" width="31" height="26" transform="translate(61 388)"/><g transform="translate(49.958 366.958)"><g transform="translate(5.042 1.042)"><path class="b" d="M34.469,42.424H7.954A7.954,7.954,0,0,1,0,34.469V7.954A7.954,7.954,0,0,1,7.954,0H34.469a7.954,7.954,0,0,1,7.954,7.954V34.469A7.954,7.954,0,0,1,34.469,42.424Z"/><g transform="translate(9.846 9.848)"><g transform="translate(0.948 9.47)"><path class="c" d="M27.371,14.667H10.8A2.134,2.134,0,0,0,8.667,16.8v9A2.134,2.134,0,0,0,10.8,27.926H27.373A2.134,2.134,0,0,0,29.5,25.795v-9A2.136,2.136,0,0,0,27.371,14.667ZM12.692,22.006h-.473a.71.71,0,0,1,0-1.421h.473a.71.71,0,1,1,0,1.421Zm6.393,2.605A3.315,3.315,0,1,1,22.4,21.3,3.318,3.318,0,0,1,19.085,24.611Zm6.866-2.605h-.473a.71.71,0,0,1,0-1.421h.473a.71.71,0,0,1,0,1.421Z" transform="translate(-8.667 -14.667)"/></g><g transform="translate(7.814)"><path class="d" d="M17.69,8.247a.948.948,0,0,0-1.274,0L13.81,10.614a.947.947,0,0,0,.638,1.648h1.658v3.314a.947.947,0,1,0,1.894,0V12.262h1.658a.947.947,0,0,0,.638-1.648Z" transform="translate(-13.5 -8.001)"/></g><g transform="translate(0 1.421)"><path class="d" d="M12.19,9.247a.948.948,0,0,0-1.274,0L8.31,11.614a.947.947,0,0,0,.638,1.648h1.658v1.894a.947.947,0,1,0,1.894,0V13.262h1.658a.947.947,0,0,0,.638-1.648Z" transform="translate(-8 -9.001)"/></g><g transform="translate(15.628 1.419)"><path class="d" d="M25.793,11.614l-2.6-2.368a.948.948,0,0,0-1.274,0l-2.6,2.368a.947.947,0,0,0,.636,1.648h1.658v1.894a.948.948,0,1,0,1.9,0V13.262h1.658a.946.946,0,0,0,.635-1.648Z" transform="translate(-19.001 -9)"/></g></g></g></g></g></svg>